Exo-ThinItalic.ufo
<glyph name="exclam" format="2">
  <advance width="260"/>
  <unicode hex="0021"/>
  <note>
GF Latin Plus glyph
</note>
  <outline>
    <contour>
      <point x="151" y="196" type="line"/>
      <point x="167" y="196" type="line"/>
      <point x="256" y="731" type="line"/>
      <point x="232" y="731" type="line"/>
    </contour>
    <component base="period" xOffset="40"/>
  </outline>
</glyph>
<glyph name="dollar" format="2">
  <advance width="609"/>
  <unicode hex="0024"/>
  <note>
GF Latin Plus glyph
</note>
  <outline>
    <contour>
      <point x="421" y="732" type="line"/>
      <point x="435" y="824" type="line"/>
      <point x="417" y="824" type="line"/>
      <point x="403" y="733" type="line"/>
    </contour>
    <contour>
      <point x="273" y="-88" type="line"/>
      <point x="291" y="-88" type="line"/>
      <point x="305" y="2" type="line"/>
      <point x="287" y="3" type="line"/>
    </contour>
    <component base="S"/>
  </outline>
</glyph>
<glyph name="ampersand" format="2">
  <advance width="653"/>
  <unicode hex="0026"/>
  <note>
GF Latin Plus glyph
</note>
  <outline>
    <contour>
      <point x="218" y="-6" type="curve" smooth="yes"/>
      <point x="287.269" y="-6"/>
      <point x="352.441" y="13.753"/>
      <point x="439" y="83" type="curve" smooth="yes"/>
      <point x="474" y="111" type="line"/>
      <point x="538" y="0" type="line"/>
      <point x="567" y="0" type="line"/>
      <point x="493" y="125" type="line"/>
      <point x="585" y="201" type="line"/>
      <point x="668" y="286" type="line"/>
      <point x="660" y="295" type="line"/>
      <point x="480" y="144" type="line"/>
      <point x="286" y="481" type="line" smooth="yes"/>
      <point x="261" y="525"/>
      <point x="253" y="562"/>
      <point x="253" y="597" type="curve" smooth="yes"/>
      <point x="253" y="684"/>
      <point x="317" y="710"/>
      <point x="408" y="710" type="curve" smooth="yes"/>
      <point x="538" y="710" type="line"/>
      <point x="541" y="726" type="line"/>
      <point x="506.266" y="728.605"/>
      <point x="479.404" y="732"/>
      <point x="410" y="732" type="curve" smooth="yes"/>
      <point x="301" y="732"/>
      <point x="229" y="689"/>
      <point x="229" y="595" type="curve" smooth="yes"/>
      <point x="229" y="558"/>
      <point x="239.482" y="514.365"/>
      <point x="265" y="469" type="curve" smooth="yes"/>
      <point x="283" y="437" type="line"/>
      <point x="213" y="395" type="line" smooth="yes"/>
      <point x="99.25" y="326.75"/>
      <point x="61" y="260"/>
      <point x="61" y="152" type="curve" smooth="yes"/>
      <point x="61" y="54"/>
      <point x="124.928" y="-6"/>
    </contour>
    <contour>
      <point x="223" y="18" type="curve" smooth="yes"/>
      <point x="136.327" y="18"/>
      <point x="86" y="70"/>
      <point x="86" y="154" type="curve" smooth="yes"/>
      <point x="86" y="254"/>
      <point x="113.53" y="316.686"/>
      <point x="231" y="383" type="curve" smooth="yes"/>
      <point x="293" y="418" type="line"/>
      <point x="461" y="130" type="line"/>
      <point x="418" y="95" type="line" smooth="yes"/>
      <point x="340.302" y="31.757"/>
      <point x="282.057" y="18"/>
    </contour>
  </outline>
</glyph>
<glyph name="quotesingle" format="2">
  <advance width="113"/>
  <unicode hex="0027"/>
  <note>
GF Latin Plus glyph
</note>
  <outline>
    <contour>
      <point x="133" y="515" type="line"/>
      <point x="145" y="515" type="line"/>
      <point x="176" y="673" type="line"/>
      <point x="186" y="740" type="line"/>
      <point x="161" y="740" type="line"/>
      <point x="151" y="673" type="line"/>
    </contour>
  </outline>
</glyph>
<glyph name="parenleft" format="2">
  <advance width="315"/>
  <unicode hex="0028"/>
  <note>
GF Latin Plus glyph
</note>
  <outline>
    <contour>
      <point x="227" y="-210" type="curve"/>
      <point x="255" y="-210" type="line"/>
      <point x="192" y="-86"/>
      <point x="166" y="52"/>
      <point x="166" y="192" type="curve" smooth="yes"/>
      <point x="166" y="416"/>
      <point x="250" y="666"/>
      <point x="423" y="860" type="curve"/>
      <point x="396" y="860" type="line"/>
      <point x="221" y="663"/>
      <point x="141" y="410"/>
      <point x="141" y="184" type="curve" smooth="yes"/>
      <point x="141" y="47"/>
      <point x="164" y="-89"/>
    </contour>
  </outline>
</glyph>
<glyph name="plus" format="2">
  <advance width="609"/>
  <unicode hex="002B"/>
  <note>
GF Latin Plus glyph
</note>
  <outline>
    <contour>
      <point x="314" y="132" type="line"/>
      <point x="338" y="132" type="line"/>
      <point x="408" y="580" type="line"/>
      <point x="384" y="580" type="line"/>
    </contour>
    <contour>
      <point x="135" y="344" type="line"/>
      <point x="583" y="344" type="line"/>
      <point x="587" y="368" type="line"/>
      <point x="139" y="368" type="line"/>
    </contour>
  </outline>
</glyph>
<glyph name="comma" format="2">
  <advance width="172"/>
  <unicode hex="002C"/>
  <note>
GF Latin Plus glyph
</note>
  <outline>
    <contour>
      <point x="67" y="-69" type="curve" smooth="yes"/>
      <point x="77" y="-69"/>
      <point x="93" y="-65"/>
      <point x="97" y="-37" type="curve" smooth="yes"/>
      <point x="115" y="73" type="line" smooth="yes"/>
      <point x="115" y="74"/>
      <point x="115" y="76"/>
      <point x="115" y="77" type="curve" smooth="yes"/>
      <point x="115" y="83"/>
      <point x="112" y="86"/>
      <point x="105" y="86" type="curve" smooth="yes"/>
      <point x="95" y="86" type="line" smooth="yes"/>
      <point x="87" y="86"/>
      <point x="82" y="82"/>
      <point x="81" y="73" type="curve" smooth="yes"/>
      <point x="71" y="13" type="line" smooth="yes"/>
      <point x="71" y="12"/>
      <point x="71" y="11"/>
      <point x="71" y="10" type="curve" smooth="yes"/>
      <point x="71" y="4"/>
      <point x="75" y="0"/>
      <point x="81" y="0" type="curve" smooth="yes"/>
      <point x="87" y="0" type="line"/>
      <point x="80" y="-47" type="line" smooth="yes"/>
      <point x="78" y="-58"/>
      <point x="73" y="-62"/>
      <point x="61" y="-62" type="curve"/>
      <point x="60" y="-68" type="line"/>
      <point x="60" y="-68"/>
      <point x="63" y="-69"/>
    </contour>
  </outline>
</glyph>
<glyph name="hyphen" format="2">
  <advance width="331"/>
  <unicode hex="002D"/>
  <note>
GF Latin Plus glyph
</note>
  <outline>
    <contour>
      <point x="68" y="278" type="line"/>
      <point x="352" y="278" type="line"/>
      <point x="356" y="302" type="line"/>
      <point x="72" y="302" type="line"/>
    </contour>
  </outline>
</glyph>
<glyph name="period" format="2">
  <advance width="172"/>
  <unicode hex="002E"/>
  <note>
GF Latin Plus glyph
</note>
  <outline>
    <contour>
      <point x="81" y="0" type="curve" smooth="yes"/>
      <point x="92" y="0" type="line" smooth="yes"/>
      <point x="99" y="0"/>
      <point x="105" y="4"/>
      <point x="106" y="12" type="curve" smooth="yes"/>
      <point x="116" y="74" type="line" smooth="yes"/>
      <point x="116" y="75"/>
      <point x="116" y="76"/>
      <point x="116" y="77" type="curve" smooth="yes"/>
      <point x="116" y="82"/>
      <point x="113" y="86"/>
      <point x="106" y="86" type="curve" smooth="yes"/>
      <point x="95" y="86" type="line" smooth="yes"/>
      <point x="87" y="86"/>
      <point x="82" y="82"/>
      <point x="81" y="74" type="curve" smooth="yes"/>
      <point x="71" y="12" type="line" smooth="yes"/>
      <point x="71" y="11"/>
      <point x="71" y="11"/>
      <point x="71" y="10" type="curve" smooth="yes"/>
      <point x="71" y="4"/>
      <point x="75" y="0"/>
    </contour>
  </outline>
</glyph>
<glyph name="slash" format="2">
  <advance width="354"/>
  <unicode hex="002F"/>
  <note>
GF Latin Plus glyph
</note>
  <outline>
    <contour>
      <point x="16" y="-72" type="line"/>
      <point x="35" y="-72" type="line"/>
      <point x="449" y="770" type="line"/>
      <point x="430" y="770" type="line"/>
    </contour>
  </outline>
</glyph>
<glyph name="one" format="2">
  <advance width="354"/>
  <unicode hex="0031"/>
  <note>
GF Latin Plus glyph
</note>
  <outline>
    <contour>
      <point x="222" y="0" type="line"/>
      <point x="246" y="0" type="line"/>
      <point x="362" y="732" type="line"/>
      <point x="338" y="732" type="line"/>
      <point x="159" y="660" type="line"/>
      <point x="156" y="644" type="line"/>
      <point x="334" y="705" type="line"/>
    </contour>
  </outline>
</glyph>
<glyph name="two" format="2">
  <advance width="598"/>
  <unicode hex="0032"/>
  <note>
GF Latin Plus glyph
</note>
  <outline>
    <contour>
      <point x="61" y="0" type="line"/>
      <point x="541" y="0" type="line"/>
      <point x="545" y="24" type="line"/>
      <point x="101" y="24" type="line"/>
      <point x="394" y="281" type="line" smooth="yes"/>
      <point x="538.984" y="408.17"/>
      <point x="603" y="515"/>
      <point x="603" y="598" type="curve" smooth="yes"/>
      <point x="603" y="679"/>
      <point x="554" y="738"/>
      <point x="412" y="738" type="curve" smooth="yes"/>
      <point x="344" y="738"/>
      <point x="268" y="734"/>
      <point x="210" y="732" type="curve"/>
      <point x="207" y="716" type="line"/>
      <point x="400" y="716" type="line" smooth="yes"/>
      <point x="540" y="716"/>
      <point x="579" y="666"/>
      <point x="579" y="598" type="curve" smooth="yes"/>
      <point x="579" y="519"/>
      <point x="523.06" y="418.593"/>
      <point x="380" y="295" type="curve" smooth="yes"/>
      <point x="64" y="22" type="line"/>
    </contour>
  </outline>
</glyph>
<glyph name="four" format="2">
  <advance width="575"/>
  <unicode hex="0034"/>
  <note>
GF Latin Plus glyph
</note>
  <outline>
    <contour>
      <point x="404" y="2" type="line"/>
      <point x="428" y="2" type="line"/>
      <point x="462" y="212" type="line"/>
      <point x="583" y="218" type="line"/>
      <point x="585" y="234" type="line"/>
      <point x="465" y="234" type="line"/>
      <point x="511" y="527" type="line"/>
      <point x="495" y="527" type="line"/>
      <point x="479" y="472" type="line"/>
      <point x="441" y="234" type="line"/>
      <point x="91" y="234" type="line"/>
      <point x="477" y="732" type="line"/>
      <point x="452" y="732" type="line"/>
      <point x="66" y="235" type="line"/>
      <point x="73" y="212" type="line"/>
      <point x="438" y="212" type="line"/>
    </contour>
  </outline>
</glyph>
<glyph name="five" format="2">
  <advance width="649"/>
  <unicode hex="0035"/>
  <note>
GF Latin Plus glyph
</note>
  <outline>
    <contour>
      <point x="356" y="-4" type="curve" smooth="yes"/>
      <point x="473" y="-4"/>
      <point x="579" y="55"/>
      <point x="596" y="166" type="curve" smooth="yes"/>
      <point x="614" y="275" type="line" smooth="yes"/>
      <point x="615" y="287"/>
      <point x="616" y="298"/>
      <point x="616" y="309" type="curve" smooth="yes"/>
      <point x="616" y="387"/>
      <point x="559.646" y="441"/>
      <point x="457" y="441" type="curve" smooth="yes"/>
      <point x="364" y="441" type="line" smooth="yes"/>
      <point x="286" y="441"/>
      <point x="236" y="407"/>
      <point x="219" y="375" type="curve"/>
      <point x="288" y="710" type="line"/>
      <point x="661" y="710" type="line"/>
      <point x="665" y="732" type="line"/>
      <point x="270" y="732" type="line"/>
      <point x="183" y="312" type="line"/>
      <point x="205" y="312" type="line"/>
      <point x="230" y="386"/>
      <point x="282" y="419"/>
      <point x="358" y="419" type="curve" smooth="yes"/>
      <point x="453" y="419" type="line" smooth="yes"/>
      <point x="545.667" y="419"/>
      <point x="592" y="377"/>
      <point x="592" y="307" type="curve" smooth="yes"/>
      <point x="592" y="297"/>
      <point x="591" y="285"/>
      <point x="589" y="273" type="curve" smooth="yes"/>
      <point x="573" y="168" type="line" smooth="yes"/>
      <point x="557" y="68"/>
      <point x="460" y="18"/>
      <point x="358" y="18" type="curve" smooth="yes"/>
      <point x="136" y="18" type="line"/>
      <point x="133" y="2" type="line"/>
      <point x="187.721" y="-3.296"/>
      <point x="269.621" y="-4"/>
    </contour>
  </outline>
</glyph>
<glyph name="seven" format="2">
  <advance width="535"/>
  <unicode hex="0037"/>
  <note>
GF Latin Plus glyph
</note>
  <outline>
    <contour>
      <point x="178" y="0" type="line"/>
      <point x="206" y="0" type="line"/>
      <point x="606" y="709" type="line"/>
      <point x="594" y="732" type="line"/>
      <point x="166" y="732" type="line"/>
      <point x="162" y="708" type="line"/>
      <point x="578" y="708" type="line"/>
    </contour>
  </outline>
</glyph>
<glyph name="eight" format="2">
  <advance width="655"/>
  <unicode hex="0038"/>
  <note>
GF Latin Plus glyph
</note>
  <outline>
    <contour>
      <point x="267" y="0" type="curve" smooth="yes"/>
      <point x="402" y="0" type="line" smooth="yes"/>
      <point x="500" y="0"/>
      <point x="562" y="47"/>
      <point x="576" y="134" type="curve" smooth="yes"/>
      <point x="595" y="252" type="line" smooth="yes"/>
      <point x="596" y="261"/>
      <point x="597" y="269"/>
      <point x="597" y="277" type="curve" smooth="yes"/>
      <point x="597" y="328"/>
      <point x="570" y="368"/>
      <point x="519" y="377" type="curve"/>
      <point x="572" y="395"/>
      <point x="612" y="445"/>
      <point x="620" y="499" type="curve" smooth="yes"/>
      <point x="633" y="584" type="line" smooth="yes"/>
      <point x="636" y="601"/>
      <point x="637" y="616"/>
      <point x="637" y="629" type="curve" smooth="yes"/>
      <point x="637" y="705"/>
      <point x="597" y="737"/>
      <point x="520" y="737" type="curve" smooth="yes"/>
      <point x="384" y="737" type="line" smooth="yes"/>
      <point x="295" y="737"/>
      <point x="225" y="693"/>
      <point x="207" y="584" type="curve" smooth="yes"/>
      <point x="194" y="499" type="line" smooth="yes"/>
      <point x="193" y="491"/>
      <point x="192" y="483"/>
      <point x="192" y="475" type="curve" smooth="yes"/>
      <point x="192" y="431"/>
      <point x="213" y="391"/>
      <point x="263" y="369" type="curve"/>
      <point x="226" y="361"/>
      <point x="153" y="326"/>
      <point x="139" y="243" type="curve" smooth="yes"/>
      <point x="122" y="134" type="line" smooth="yes"/>
      <point x="121" y="125"/>
      <point x="120" y="116"/>
      <point x="120" y="108" type="curve" smooth="yes"/>
      <point x="120" y="37"/>
      <point x="172" y="0"/>
    </contour>
    <contour>
      <point x="270" y="22" type="line" smooth="yes"/>
      <point x="199" y="22"/>
      <point x="144" y="47"/>
      <point x="144" y="111" type="curve" smooth="yes"/>
      <point x="144" y="117"/>
      <point x="145" y="124"/>
      <point x="146" y="131" type="curve" smooth="yes"/>
      <point x="164" y="246" type="line" smooth="yes"/>
      <point x="178" y="336"/>
      <point x="277" y="362"/>
      <point x="323" y="362" type="curve" smooth="yes"/>
      <point x="452" y="362" type="line" smooth="yes"/>
      <point x="538" y="362"/>
      <point x="573" y="340"/>
      <point x="573" y="280" type="curve" smooth="yes"/>
      <point x="573" y="270"/>
      <point x="572" y="259"/>
      <point x="570" y="246" type="curve" smooth="yes"/>
      <point x="552" y="131" type="line" smooth="yes"/>
      <point x="540" y="58"/>
      <point x="490" y="22"/>
      <point x="405" y="22" type="curve" smooth="yes"/>
    </contour>
    <contour>
      <point x="327" y="384" type="line" smooth="yes"/>
      <point x="249" y="384"/>
      <point x="216" y="426"/>
      <point x="216" y="476" type="curve" smooth="yes"/>
      <point x="216" y="482"/>
      <point x="216" y="488"/>
      <point x="217" y="494" type="curve" smooth="yes"/>
      <point x="231" y="582" type="line" smooth="yes"/>
      <point x="245" y="672"/>
      <point x="288" y="715"/>
      <point x="380" y="715" type="curve" smooth="yes"/>
      <point x="516" y="715" type="line" smooth="yes"/>
      <point x="581" y="715"/>
      <point x="613" y="689"/>
      <point x="613" y="625" type="curve" smooth="yes"/>
      <point x="613" y="612"/>
      <point x="612" y="598"/>
      <point x="609" y="582" type="curve" smooth="yes"/>
      <point x="595" y="494" type="line" smooth="yes"/>
      <point x="588" y="448"/>
      <point x="543" y="384"/>
      <point x="456" y="384" type="curve" smooth="yes"/>
    </contour>
  </outline>
</glyph>
<glyph name="question" format="2">
  <advance width="532"/>
  <unicode hex="003F"/>
  <note>
GF Latin Plus glyph
</note>
  <outline>
    <contour>
      <point x="218" y="195" type="line"/>
      <point x="240" y="195" type="line"/>
      <point x="256" y="297" type="line"/>
      <point x="421" y="297"/>
      <point x="493" y="350"/>
      <point x="511" y="463" type="curve" smooth="yes"/>
      <point x="524" y="544" type="line" smooth="yes"/>
      <point x="528" y="567"/>
      <point x="530" y="589"/>
      <point x="530" y="608" type="curve" smooth="yes"/>
      <point x="530" y="691"/>
      <point x="492" y="739"/>
      <point x="382" y="739" type="curve" smooth="yes"/>
      <point x="315" y="739"/>
      <point x="242" y="729"/>
      <point x="156" y="689" type="curve"/>
      <point x="154" y="675" type="line"/>
      <point x="235" y="705"/>
      <point x="297" y="717"/>
      <point x="372" y="717" type="curve" smooth="yes"/>
      <point x="464" y="717"/>
      <point x="505" y="685"/>
      <point x="505" y="602" type="curve" smooth="yes"/>
      <point x="505" y="585"/>
      <point x="504" y="566"/>
      <point x="500" y="544" type="curve" smooth="yes"/>
      <point x="487" y="463" type="line" smooth="yes"/>
      <point x="470" y="355"/>
      <point x="413" y="321"/>
      <point x="273" y="321" type="curve" smooth="yes"/>
      <point x="238" y="321" type="line"/>
    </contour>
    <component base="period" xOffset="115"/>
  </outline>
</glyph>
<glyph name="at" format="2">
  <advance width="901"/>
  <unicode hex="0040"/>
  <note>
GF Latin Plus glyph
</note>
  <outline>
    <contour>
      <point x="211" y="-179" type="curve" smooth="yes"/>
      <point x="309" y="-179" type="line" smooth="yes"/>
      <point x="435" y="-179"/>
      <point x="549" y="-176"/>
      <point x="599" y="-169" type="curve"/>
      <point x="601" y="-155" type="line"/>
      <point x="217" y="-155" type="line" smooth="yes"/>
      <point x="141" y="-155"/>
      <point x="85" y="-110"/>
      <point x="85" y="-26" type="curve" smooth="yes"/>
      <point x="85" y="-15"/>
      <point x="86" y="-3"/>
      <point x="88" y="9" type="curve" smooth="yes"/>
      <point x="170" y="521" type="line" smooth="yes"/>
      <point x="183" y="604"/>
      <point x="230" y="675"/>
      <point x="350" y="675" type="curve" smooth="yes"/>
      <point x="744" y="675" type="line" smooth="yes"/>
      <point x="815" y="675"/>
      <point x="865" y="650"/>
      <point x="865" y="564" type="curve" smooth="yes"/>
      <point x="865" y="551"/>
      <point x="863" y="537"/>
      <point x="861" y="521" type="curve" smooth="yes"/>
      <point x="808" y="167" type="line" smooth="yes"/>
      <point x="788.096" y="34.054"/>
      <point x="683.903" y="22"/>
      <point x="637" y="22" type="curve"/>
      <point x="704" y="482" type="line"/>
      <point x="658.301" y="526.66"/>
      <point x="581.895" y="545"/>
      <point x="504" y="545" type="curve" smooth="yes"/>
      <point x="361.461" y="545"/>
      <point x="243" y="409"/>
      <point x="243" y="176" type="curve" smooth="yes"/>
      <point x="243" y="35"/>
      <point x="315" y="-6"/>
      <point x="404" y="-6" type="curve" smooth="yes"/>
      <point x="468.189" y="-6"/>
      <point x="583.694" y="22.661"/>
      <point x="620" y="63" type="curve"/>
      <point x="618" y="0" type="line"/>
      <point x="647" y="0" type="line" smooth="yes"/>
      <point x="787.952" y="0"/>
      <point x="826.767" y="132.049"/>
      <point x="832" y="167" type="curve" smooth="yes"/>
      <point x="885" y="521" type="line" smooth="yes"/>
      <point x="887" y="536"/>
      <point x="888" y="551"/>
      <point x="888" y="564" type="curve" smooth="yes"/>
      <point x="888" y="650"/>
      <point x="841" y="699"/>
      <point x="745" y="699" type="curve" smooth="yes"/>
      <point x="350" y="699" type="line" smooth="yes"/>
      <point x="212" y="699"/>
      <point x="161" y="613"/>
      <point x="146" y="521" type="curve" smooth="yes"/>
      <point x="64" y="9" type="line" smooth="yes"/>
      <point x="62" y="-3"/>
      <point x="61" y="-15"/>
      <point x="61" y="-26" type="curve" smooth="yes"/>
      <point x="61" y="-115"/>
      <point x="119" y="-179"/>
    </contour>
    <contour>
      <point x="402" y="18" type="curve" smooth="yes"/>
      <point x="335" y="18"/>
      <point x="267" y="46"/>
      <point x="267" y="179" type="curve" smooth="yes"/>
      <point x="267" y="396"/>
      <point x="378.341" y="523"/>
      <point x="506" y="523" type="curve" smooth="yes"/>
      <point x="566.476" y="523"/>
      <point x="614.864" y="514.237"/>
      <point x="680" y="479" type="curve"/>
      <point x="621" y="79" type="line"/>
      <point x="546.11" y="23.339"/>
      <point x="466.172" y="18"/>
    </contour>
  </outline>
</glyph>
<glyph name="A" format="2">
  <advance width="660"/>
  <unicode hex="0041"/>
  <note>
GF Latin Plus glyph
</note>
  <anchor x="307" y="-150" name="bottom"/>
  <anchor x="592" y="0" name="ogonek"/>
  <anchor x="459" y="810" name="top"/>
  <outline>
    <contour>
      <point x="45" y="0" type="line"/>
      <point x="70" y="0" type="line"/>
      <point x="206" y="254" type="line"/>
      <point x="539" y="254" type="line"/>
      <point x="590" y="0" type="line"/>
      <point x="615" y="0" type="line"/>
      <point x="469" y="732" type="line"/>
      <point x="435" y="732" type="line"/>
    </contour>
    <contour>
      <point x="218" y="276" type="line"/>
      <point x="448" y="706" type="line"/>
      <point x="535" y="276" type="line"/>
    </contour>
  </outline>
</glyph>
<glyph name="B" format="2">
  <advance width="597"/>
  <unicode hex="0042"/>
  <note>
GF Latin Plus glyph
</note>
  <anchor x="399" y="810" name="top"/>
  <outline>
    <contour>
      <point x="80" y="0" type="line"/>
      <point x="333" y="0" type="line" smooth="yes"/>
      <point x="465" y="0"/>
      <point x="532" y="68"/>
      <point x="555" y="179" type="curve" smooth="yes"/>
      <point x="560" y="201"/>
      <point x="561" y="219"/>
      <point x="561" y="233" type="curve" smooth="yes"/>
      <point x="561" y="328"/>
      <point x="493" y="373"/>
      <point x="455" y="384" type="curve"/>
      <point x="519" y="399"/>
      <point x="576" y="452"/>
      <point x="591" y="548" type="curve" smooth="yes"/>
      <point x="594" y="565"/>
      <point x="595" y="581"/>
      <point x="595" y="597" type="curve" smooth="yes"/>
      <point x="595" y="682"/>
      <point x="543" y="732"/>
      <point x="429" y="732" type="curve" smooth="yes"/>
      <point x="196" y="732" type="line"/>
    </contour>
    <contour>
      <point x="107" y="22" type="line"/>
      <point x="163" y="372" type="line"/>
      <point x="395" y="372" type="line" smooth="yes"/>
      <point x="477" y="372"/>
      <point x="537" y="319"/>
      <point x="537" y="233" type="curve" smooth="yes"/>
      <point x="537" y="221"/>
      <point x="536" y="203"/>
      <point x="532" y="185" type="curve" smooth="yes"/>
      <point x="510" y="88"/>
      <point x="462" y="22"/>
      <point x="337" y="22" type="curve" smooth="yes"/>
    </contour>
    <contour>
      <point x="166" y="394" type="line"/>
      <point x="216" y="710" type="line"/>
      <point x="425" y="710" type="line" smooth="yes"/>
      <point x="518" y="710"/>
      <point x="572" y="677"/>
      <point x="572" y="596" type="curve" smooth="yes"/>
      <point x="572" y="580"/>
      <point x="570" y="564"/>
      <point x="566" y="545" type="curve" smooth="yes"/>
      <point x="546" y="447"/>
      <point x="489" y="394"/>
      <point x="396" y="394" type="curve" smooth="yes"/>
    </contour>
  </outline>
</glyph>
<glyph name="E" format="2">
  <advance width="565"/>
  <unicode hex="0045"/>
  <note>
GF Latin Plus glyph
</note>
  <anchor x="277" y="-150" name="bottom"/>
  <anchor x="495" y="0" name="ogonek"/>
  <anchor x="429" y="810" name="top"/>
  <outline>
    <contour>
      <point x="216" y="-6" type="curve" smooth="yes"/>
      <point x="312" y="-4"/>
      <point x="409" y="-2"/>
      <point x="505" y="0" type="curve"/>
      <point x="508" y="16" type="line"/>
      <point x="220" y="16" type="line" smooth="yes"/>
      <point x="156" y="16"/>
      <point x="110" y="31"/>
      <point x="124" y="123" type="curve" smooth="yes"/>
      <point x="159" y="351" type="line"/>
      <point x="519" y="353" type="line"/>
      <point x="522" y="369" type="line"/>
      <point x="163" y="375" type="line"/>
      <point x="199" y="602" type="line" smooth="yes"/>
      <point x="212" y="683"/>
      <point x="257" y="710"/>
      <point x="319" y="710" type="curve" smooth="yes"/>
      <point x="616" y="710" type="line"/>
      <point x="619" y="726" type="line"/>
      <point x="520" y="728"/>
      <point x="421" y="730"/>
      <point x="322" y="732" type="curve" smooth="yes"/>
      <point x="258" y="733"/>
      <point x="192" y="705"/>
      <point x="176" y="607" type="curve" smooth="yes"/>
      <point x="100" y="128" type="line" smooth="yes"/>
      <point x="82" y="15"/>
      <point x="150" y="-7"/>
    </contour>
  </outline>
</glyph>
<glyph name="F" format="2">
  <advance width="544"/>
  <unicode hex="0046"/>
  <note>
GF Latin Plus glyph
</note>
  <anchor x="419" y="810" name="top"/>
  <outline>
    <contour>
      <point x="80" y="0" type="line"/>
      <point x="104" y="0" type="line"/>
      <point x="160" y="351" type="line"/>
      <point x="519" y="353" type="line"/>
      <point x="522" y="369" type="line"/>
      <point x="163" y="375" type="line"/>
      <point x="199" y="602" type="line" smooth="yes"/>
      <point x="212" y="681"/>
      <point x="250" y="710"/>
      <point x="316" y="710" type="curve" smooth="yes"/>
      <point x="616" y="710" type="line"/>
      <point x="619" y="726" type="line"/>
      <point x="520" y="728"/>
      <point x="420" y="730"/>
      <point x="321" y="732" type="curve" smooth="yes"/>
      <point x="254" y="733"/>
      <point x="193" y="711"/>
      <point x="175" y="598" type="curve" smooth="yes"/>
    </contour>
  </outline>
</glyph>
<glyph name="I" format="2">
  <advance width="184"/>
  <unicode hex="0049"/>
  <note>
GF Latin Plus glyph
</note>
  <anchor x="68" y="-150" name="bottom"/>
  <anchor x="94" y="0" name="ogonek"/>
  <anchor x="220" y="810" name="top"/>
  <outline>
    <contour>
      <point x="80" y="0" type="line"/>
      <point x="104" y="0" type="line"/>
      <point x="220" y="732" type="line"/>
      <point x="196" y="732" type="line"/>
    </contour>
  </outline>
</glyph>
<glyph name="K" format="2">
  <advance width="561"/>
  <unicode hex="004B"/>
  <note>
GF Latin Plus glyph
</note>
  <anchor x="247" y="-150" name="bottom"/>
  <anchor x="399" y="810" name="top"/>
  <outline>
    <contour>
      <point x="80" y="0" type="line"/>
      <point x="104" y="0" type="line"/>
      <point x="160" y="356" type="line"/>
      <point x="318" y="356" type="line"/>
      <point x="499" y="0" type="line"/>
      <point x="526" y="0" type="line"/>
      <point x="339" y="367" type="line"/>
      <point x="631" y="732" type="line"/>
      <point x="603" y="732" type="line"/>
      <point x="319" y="378" type="line"/>
      <point x="164" y="378" type="line"/>
      <point x="220" y="732" type="line"/>
      <point x="196" y="732" type="line"/>
    </contour>
  </outline>
</glyph>
<glyph name="L" format="2">
  <advance width="517"/>
  <unicode hex="004C"/>
  <note>
GF Latin Plus glyph
</note>
  <anchor x="287" y="580" name="altcaron"/>
  <anchor x="257" y="-150" name="bottom"/>
  <anchor x="404" y="400" name="dot"/>
  <anchor x="229" y="810" name="top"/>
  <outline>
    <contour>
      <point x="211" y="0" type="curve" smooth="yes"/>
      <point x="492" y="0" type="line"/>
      <point x="495" y="22" type="line"/>
      <point x="209" y="22" type="line" smooth="yes"/>
      <point x="162" y="22"/>
      <point x="121" y="32"/>
      <point x="121" y="91" type="curve" smooth="yes"/>
      <point x="121" y="104"/>
      <point x="122.097" y="113.984"/>
      <point x="124" y="126" type="curve" smooth="yes"/>
      <point x="220" y="732" type="line"/>
      <point x="196" y="732" type="line"/>
      <point x="100" y="126" type="line" smooth="yes"/>
      <point x="98.097" y="113.984"/>
      <point x="97" y="104"/>
      <point x="97" y="91" type="curve" smooth="yes"/>
      <point x="97" y="18"/>
      <point x="142" y="0"/>
    </contour>
  </outline>
</glyph>
<glyph name="M" format="2">
  <advance width="770"/>
  <unicode hex="004D"/>
  <note>
GF Latin Plus glyph
</note>
  <anchor x="367" y="-150" name="bottom"/>
  <anchor x="519" y="810" name="top"/>
  <outline>
    <contour>
      <point x="71" y="0" type="line"/>
      <point x="96" y="0" type="line"/>
      <point x="277" y="682" type="line"/>
      <point x="390" y="0" type="line"/>
      <point x="412" y="0" type="line"/>
      <point x="740" y="682" type="line"/>
      <point x="708" y="0" type="line"/>
      <point x="732" y="0" type="line"/>
      <point x="764" y="732" type="line"/>
      <point x="742" y="732" type="line"/>
      <point x="407" y="50" type="line"/>
      <point x="290" y="732" type="line"/>
      <point x="268" y="732" type="line"/>
    </contour>
  </outline>
</glyph>
<glyph name="N" format="2">
  <advance width="649"/>
  <unicode hex="004E"/>
  <note>
GF Latin Plus glyph
</note>
  <anchor x="297" y="-150" name="bottom"/>
  <anchor x="449" y="810" name="top"/>
  <outline>
    <contour>
      <point x="80" y="0" type="line"/>
      <point x="104" y="0" type="line"/>
      <point x="214" y="692" type="line"/>
      <point x="547" y="0" type="line"/>
      <point x="569" y="0" type="line"/>
      <point x="685" y="732" type="line"/>
      <point x="661" y="732" type="line"/>
      <point x="551" y="41" type="line"/>
      <point x="218" y="732" type="line"/>
      <point x="196" y="732" type="line"/>
    </contour>
  </outline>
</glyph>
<glyph name="P" format="2">
  <advance width="592"/>
  <unicode hex="0050"/>
  <note>
GF Latin Plus glyph
</note>
  <anchor x="399" y="810" name="top"/>
  <outline>
    <contour>
      <point x="80" y="0" type="line"/>
      <point x="104" y="0" type="line"/>
      <point x="153" y="309" type="line"/>
      <point x="226" y="306"/>
      <point x="315" y="303"/>
      <point x="383" y="303" type="curve" smooth="yes"/>
      <point x="474" y="303"/>
      <point x="577" y="340"/>
      <point x="605" y="522" type="curve" smooth="yes"/>
      <point x="608" y="542"/>
      <point x="611" y="571"/>
      <point x="611" y="587" type="curve" smooth="yes"/>
      <point x="611" y="697"/>
      <point x="546" y="732"/>
      <point x="462" y="732" type="curve" smooth="yes"/>
      <point x="196" y="732" type="line"/>
    </contour>
    <contour>
      <point x="155" y="325" type="line"/>
      <point x="216" y="710" type="line"/>
      <point x="458" y="710" type="line" smooth="yes"/>
      <point x="539" y="710"/>
      <point x="587" y="676"/>
      <point x="587" y="586" type="curve" smooth="yes"/>
      <point x="587" y="570"/>
      <point x="584" y="542"/>
      <point x="581" y="522" type="curve" smooth="yes"/>
      <point x="555" y="363"/>
      <point x="472" y="325"/>
      <point x="385" y="325" type="curve" smooth="yes"/>
    </contour>
  </outline>
</glyph>
<glyph name="R" format="2">
  <advance width="604"/>
  <unicode hex="0052"/>
  <note>
GF Latin Plus glyph
</note>
  <anchor x="287" y="-150" name="bottom"/>
  <anchor x="389" y="810" name="top"/>
  <outline>
    <contour>
      <point x="80" y="0" type="line"/>
      <point x="104" y="0" type="line"/>
      <point x="156" y="331" type="line"/>
      <point x="217" y="328"/>
      <point x="348" y="326"/>
      <point x="401" y="325" type="curve"/>
      <point x="510" y="0" type="line"/>
      <point x="534" y="0" type="line"/>
      <point x="425" y="326" type="line"/>
      <point x="487" y="330"/>
      <point x="579" y="353"/>
      <point x="606" y="518" type="curve" smooth="yes"/>
      <point x="609" y="539"/>
      <point x="611" y="558"/>
      <point x="611" y="575" type="curve" smooth="yes"/>
      <point x="611" y="708"/>
      <point x="518" y="732"/>
      <point x="452" y="732" type="curve" smooth="yes"/>
      <point x="196" y="732" type="line"/>
    </contour>
    <contour>
      <point x="159" y="347" type="line"/>
      <point x="216" y="710" type="line"/>
      <point x="448" y="710" type="line" smooth="yes"/>
      <point x="510" y="710"/>
      <point x="585" y="690.583"/>
      <point x="585" y="573" type="curve" smooth="yes"/>
      <point x="585" y="558"/>
      <point x="584" y="541"/>
      <point x="581" y="522" type="curve" smooth="yes"/>
      <point x="557.352" y="368.762"/>
      <point x="476" y="347"/>
      <point x="401" y="347" type="curve" smooth="yes"/>
    </contour>
  </outline>
</glyph>
<glyph name="S" format="2">
  <advance width="565"/>
  <unicode hex="0053"/>
  <note>
GF Latin Plus glyph
</note>
  <anchor x="257" y="-150" name="bottom"/>
  <anchor x="409" y="810" name="top"/>
  <outline>
    <contour>
      <point x="297" y="-6" type="curve" smooth="yes"/>
      <point x="411" y="-6"/>
      <point x="511" y="21"/>
      <point x="532" y="158" type="curve" smooth="yes"/>
      <point x="542" y="224" type="line" smooth="yes"/>
      <point x="544" y="239"/>
      <point x="545" y="252"/>
      <point x="545" y="265" type="curve" smooth="yes"/>
      <point x="545" y="343"/>
      <point x="501" y="381"/>
      <point x="404" y="381" type="curve" smooth="yes"/>
      <point x="290" y="381" type="line" smooth="yes"/>
      <point x="215" y="381"/>
      <point x="178" y="400"/>
      <point x="178" y="466" type="curve" smooth="yes"/>
      <point x="178" y="477"/>
      <point x="179" y="489"/>
      <point x="181" y="502" type="curve" smooth="yes"/>
      <point x="191" y="568" type="line" smooth="yes"/>
      <point x="209" y="688"/>
      <point x="271" y="714"/>
      <point x="382" y="714" type="curve" smooth="yes"/>
      <point x="426" y="714"/>
      <point x="524" y="710"/>
      <point x="587" y="706" type="curve"/>
      <point x="589" y="722" type="line"/>
      <point x="544" y="729"/>
      <point x="423" y="738"/>
      <point x="380" y="738" type="curve" smooth="yes"/>
      <point x="268" y="738"/>
      <point x="188" y="709"/>
      <point x="167" y="568" type="curve" smooth="yes"/>
      <point x="157" y="502" type="line" smooth="yes"/>
      <point x="155" y="488"/>
      <point x="154" y="476"/>
      <point x="154" y="464" type="curve" smooth="yes"/>
      <point x="154" y="386"/>
      <point x="200" y="357"/>
      <point x="288" y="357" type="curve" smooth="yes"/>
      <point x="400" y="357" type="line" smooth="yes"/>
      <point x="485" y="357"/>
      <point x="521" y="327"/>
      <point x="521" y="261" type="curve" smooth="yes"/>
      <point x="521" y="250"/>
      <point x="520" y="237"/>
      <point x="518" y="224" type="curve" smooth="yes"/>
      <point x="508" y="158" type="line" smooth="yes"/>
      <point x="490" y="39"/>
      <point x="408" y="16"/>
      <point x="302" y="16" type="curve" smooth="yes"/>
      <point x="225" y="16"/>
      <point x="134" y="18"/>
      <point x="81" y="22" type="curve"/>
      <point x="79" y="6" type="line"/>
      <point x="134" y="-2"/>
      <point x="233" y="-6"/>
    </contour>
  </outline>
</glyph>
<glyph name="U" format="2">
  <advance width="667"/>
  <unicode hex="0055"/>
  <note>
GF Latin Plus glyph
</note>
  <anchor x="297" y="-150" name="bottom"/>
  <anchor x="405" y="0" name="ogonek"/>
  <anchor x="449" y="810" name="top"/>
  <outline>
    <contour>
      <point x="333" y="-6" type="curve" smooth="yes"/>
      <point x="488" y="-6"/>
      <point x="593.305" y="36.705"/>
      <point x="638" y="320" type="curve" smooth="yes"/>
      <point x="703" y="732" type="line"/>
      <point x="679" y="732" type="line"/>
      <point x="614" y="320" type="line" smooth="yes"/>
      <point x="571.688" y="51.804"/>
      <point x="479" y="16"/>
      <point x="331" y="16" type="curve" smooth="yes"/>
      <point x="209" y="16"/>
      <point x="142" y="56"/>
      <point x="142" y="185" type="curve" smooth="yes"/>
      <point x="142" y="220"/>
      <point x="147" y="271"/>
      <point x="155" y="320" type="curve" smooth="yes"/>
      <point x="220" y="732" type="line"/>
      <point x="196" y="732" type="line"/>
      <point x="131" y="320" type="line" smooth="yes"/>
      <point x="123" y="272"/>
      <point x="119" y="221"/>
      <point x="119" y="186" type="curve" smooth="yes"/>
      <point x="119" y="43"/>
      <point x="195" y="-6"/>
    </contour>
  </outline>
</glyph>
<glyph name="V" format="2">
  <advance width="660"/>
  <unicode hex="0056"/>
  <note>
GF Latin Plus glyph
</note>
  <outline>
    <contour>
      <point x="307" y="0" type="line"/>
      <point x="341" y="0" type="line"/>
      <point x="731" y="732" type="line"/>
      <point x="706" y="732" type="line"/>
      <point x="328" y="26" type="line"/>
      <point x="186" y="732" type="line"/>
      <point x="161" y="732" type="line"/>
    </contour>
  </outline>
</glyph>
<glyph name="W" format="2">
  <advance width="980"/>
  <unicode hex="0057"/>
  <note>
GF Latin Plus glyph
</note>
  <anchor x="619" y="810" name="top"/>
  <outline>
    <contour>
      <point x="277" y="0" type="line"/>
      <point x="311" y="0" type="line"/>
      <point x="601" y="702" type="line"/>
      <point x="657" y="0" type="line"/>
      <point x="691" y="0" type="line"/>
      <point x="1051" y="732" type="line"/>
      <point x="1025" y="732" type="line"/>
      <point x="678" y="26" type="line"/>
      <point x="622" y="732" type="line"/>
      <point x="588" y="732" type="line"/>
      <point x="297" y="25" type="line"/>
      <point x="186" y="732" type="line"/>
      <point x="161" y="732" type="line"/>
    </contour>
  </outline>
</glyph>
<glyph name="X" format="2">
  <advance width="586"/>
  <unicode hex="0058"/>
  <note>
GF Latin Plus glyph
</note>
  <anchor x="275" y="-150" name="bottom"/>
  <anchor x="427" y="810" name="top"/>
  <outline>
    <contour>
      <point x="508" y="0" type="line"/>
      <point x="536" y="0" type="line"/>
      <point x="357" y="374" type="line"/>
      <point x="189" y="732" type="line"/>
      <point x="161" y="732" type="line"/>
      <point x="340" y="354" type="line"/>
    </contour>
    <contour>
      <point x="48" y="0" type="line"/>
      <point x="79" y="0" type="line"/>
      <point x="349" y="346" type="line"/>
      <point x="337" y="375" type="line"/>
    </contour>
    <contour>
      <point x="359" y="354" type="line"/>
      <point x="657" y="732" type="line"/>
      <point x="626" y="732" type="line"/>
      <point x="347" y="379" type="line"/>
    </contour>
  </outline>
</glyph>
<glyph name="Y" format="2">
  <advance width="590"/>
  <unicode hex="0059"/>
  <note>
GF Latin Plus glyph
</note>
  <anchor x="255" y="-150" name="bottom"/>
  <anchor x="407" y="810" name="top"/>
  <outline>
    <contour>
      <point x="273" y="0" type="line"/>
      <point x="297" y="0" type="line"/>
      <point x="338" y="260" type="line"/>
      <point x="676" y="732" type="line"/>
      <point x="647" y="732" type="line"/>
      <point x="329" y="292" type="line"/>
      <point x="173" y="732" type="line"/>
      <point x="146" y="732" type="line"/>
      <point x="314" y="260" type="line"/>
    </contour>
  </outline>
</glyph>
<glyph name="Z" format="2">
  <advance width="553"/>
  <unicode hex="005A"/>
  <note>
GF Latin Plus glyph
</note>
  <anchor x="235" y="-150" name="bottom"/>
  <anchor x="387" y="810" name="top"/>
  <outline>
    <contour>
      <point x="45" y="0" type="line"/>
      <point x="508" y="0" type="line"/>
      <point x="511" y="22" type="line"/>
      <point x="76" y="22" type="line"/>
      <point x="610" y="710" type="line"/>
      <point x="614" y="732" type="line"/>
      <point x="161" y="732" type="line"/>
      <point x="157" y="710" type="line"/>
      <point x="582" y="710" type="line"/>
      <point x="48" y="22" type="line"/>
    </contour>
  </outline>
</glyph>
<glyph name="bracketleft" format="2">
  <advance width="327"/>
  <unicode hex="005B"/>
  <note>
GF Latin Plus glyph
</note>
  <outline>
    <contour>
      <point x="218" y="-210" type="curve" smooth="yes"/>
      <point x="268" y="-210" type="line"/>
      <point x="271" y="-188" type="line"/>
      <point x="221" y="-188" type="line" smooth="yes"/>
      <point x="154" y="-188"/>
      <point x="129" y="-143"/>
      <point x="129" y="-82" type="curve" smooth="yes"/>
      <point x="129" y="-68"/>
      <point x="131" y="-53"/>
      <point x="133" y="-38" type="curve" smooth="yes"/>
      <point x="245" y="670" type="line" smooth="yes"/>
      <point x="262" y="776"/>
      <point x="315" y="820"/>
      <point x="381" y="820" type="curve" smooth="yes"/>
      <point x="431" y="820" type="line"/>
      <point x="434" y="842" type="line"/>
      <point x="384" y="842" type="line" smooth="yes"/>
      <point x="263" y="842"/>
      <point x="231" y="730"/>
      <point x="221" y="670" type="curve" smooth="yes"/>
      <point x="109" y="-38" type="line" smooth="yes"/>
      <point x="107" y="-52"/>
      <point x="105" y="-69"/>
      <point x="105" y="-86" type="curve" smooth="yes"/>
      <point x="105" y="-144"/>
      <point x="125" y="-210"/>
    </contour>
  </outline>
</glyph>
<glyph name="backslash" format="2">
  <advance width="354"/>
  <unicode hex="005C"/>
  <note>
GF Latin Plus glyph
</note>
  <outline>
    <contour>
      <point x="297" y="-72" type="line"/>
      <point x="316" y="-72" type="line"/>
      <point x="168" y="770" type="line"/>
      <point x="149" y="770" type="line"/>
    </contour>
  </outline>
</glyph>
<glyph name="bracketright" format="2">
  <advance width="327"/>
  <unicode hex="005D"/>
  <note>
GF Latin Plus glyph
</note>
  <outline>
    <contour>
      <point x="-6" y="-210" type="line"/>
      <point x="44" y="-210" type="line" smooth="yes"/>
      <point x="165" y="-210"/>
      <point x="197" y="-98"/>
      <point x="207" y="-38" type="curve" smooth="yes"/>
      <point x="319" y="670" type="line" smooth="yes"/>
      <point x="321" y="684"/>
      <point x="323" y="701"/>
      <point x="323" y="718" type="curve" smooth="yes"/>
      <point x="323" y="776"/>
      <point x="303" y="842"/>
      <point x="210" y="842" type="curve" smooth="yes"/>
      <point x="160" y="842" type="line"/>
      <point x="157" y="820" type="line"/>
      <point x="207" y="820" type="line" smooth="yes"/>
      <point x="263" y="820"/>
      <point x="299" y="789"/>
      <point x="299" y="716" type="curve" smooth="yes"/>
      <point x="299" y="702"/>
      <point x="298" y="687"/>
      <point x="295" y="670" type="curve" smooth="yes"/>
      <point x="183" y="-38" type="line" smooth="yes"/>
      <point x="170" y="-119"/>
      <point x="130" y="-188"/>
      <point x="47" y="-188" type="curve" smooth="yes"/>
      <point x="-3" y="-188" type="line"/>
    </contour>
  </outline>
</glyph>
<glyph name="asciicircum" format="2">
  <advance width="407"/>
  <unicode hex="005E"/>
  <note>
GF Latin Plus glyph
</note>
  <outline>
    <contour>
      <point x="152" y="531" type="line"/>
      <point x="170" y="531" type="line"/>
      <point x="312" y="646" type="line"/>
      <point x="406" y="531" type="line"/>
      <point x="424" y="531" type="line"/>
      <point x="325" y="661" type="line"/>
      <point x="305" y="661" type="line"/>
    </contour>
  </outline>
</glyph>
<glyph name="underscore" format="2">
  <advance width="609"/>
  <unicode hex="005F"/>
  <note>
GF Latin Plus glyph
</note>
  <outline>
    <contour>
      <point x="-22" y="-141" type="line"/>
      <point x="587" y="-141" type="line"/>
      <point x="590" y="-117" type="line"/>
      <point x="-19" y="-117" type="line"/>
    </contour>
  </outline>
</glyph>
<glyph name="grave" format="2">
  <advance width="201"/>
  <unicode hex="0060"/>
  <note>
GF Latin Plus glyph
</note>
  <outline>
    <contour>
      <point x="260" y="631" type="line"/>
      <point x="274" y="631" type="line"/>
      <point x="174" y="764" type="line"/>
      <point x="148" y="764" type="line"/>
    </contour>
  </outline>
</glyph>
<glyph name="a" format="2">
  <advance width="559"/>
  <unicode hex="0061"/>
  <note>
GF Latin Plus glyph
</note>
  <anchor x="257" y="-150" name="bottom"/>
  <anchor x="469" y="0" name="ogonek"/>
  <anchor x="383" y="650" name="top"/>
  <outline>
    <contour>
      <point x="259" y="-6" type="curve" smooth="yes"/>
      <point x="336" y="-6"/>
      <point x="436" y="40"/>
      <point x="465" y="59" type="curve"/>
      <point x="463" y="0" type="line"/>
      <point x="479" y="0" type="line"/>
      <point x="555" y="481" type="line"/>
      <point x="509.675" y="524.265"/>
      <point x="426" y="537"/>
      <point x="369" y="537" type="curve" smooth="yes"/>
      <point x="203" y="537"/>
      <point x="130.976" y="453.843"/>
      <point x="102" y="268" type="curve" smooth="yes"/>
      <point x="97" y="238"/>
      <point x="92" y="202"/>
      <point x="92" y="171" type="curve" smooth="yes"/>
      <point x="92" y="46"/>
      <point x="165" y="-6"/>
    </contour>
    <contour>
      <point x="258" y="16" type="curve" smooth="yes"/>
      <point x="175" y="16"/>
      <point x="116" y="62"/>
      <point x="116" y="172" type="curve" smooth="yes"/>
      <point x="116" y="196"/>
      <point x="119" y="220"/>
      <point x="125" y="258" type="curve" smooth="yes"/>
      <point x="153.972" y="439.825"/>
      <point x="206" y="515"/>
      <point x="367" y="515" type="curve" smooth="yes"/>
      <point x="445" y="515"/>
      <point x="503.789" y="491.727"/>
      <point x="530" y="476" type="curve"/>
      <point x="467" y="75" type="line"/>
      <point x="400" y="44"/>
      <point x="338" y="16"/>
    </contour>
  </outline>
</glyph>
<glyph name="c" format="2">
  <advance width="485"/>
  <unicode hex="0063"/>
  <note>
GF Latin Plus glyph
</note>
  <anchor x="227" y="-150" name="bottom"/>
  <anchor x="353" y="650" name="top"/>
  <outline>
    <contour>
      <point x="275" y="-6" type="curve" smooth="yes"/>
      <point x="345.684" y="-6"/>
      <point x="403.82" y="-2.686"/>
      <point x="445" y="0" type="curve"/>
      <point x="447" y="16" type="line"/>
      <point x="279" y="16" type="line" smooth="yes"/>
      <point x="174.042" y="16"/>
      <point x="117" y="46.329"/>
      <point x="117" y="180" type="curve" smooth="yes"/>
      <point x="117" y="202.96"/>
      <point x="121.055" y="229.857"/>
      <point x="126" y="262" type="curve" smooth="yes"/>
      <point x="158" y="465"/>
      <point x="241.448" y="515"/>
      <point x="347" y="515" type="curve" smooth="yes"/>
      <point x="512" y="515" type="line"/>
      <point x="516" y="531" type="line"/>
      <point x="466.864" y="533.68"/>
      <point x="395" y="537"/>
      <point x="349" y="537" type="curve" smooth="yes"/>
      <point x="219" y="537"/>
      <point x="133" y="462"/>
      <point x="103" y="273" type="curve" smooth="yes"/>
      <point x="97.106" y="236.793"/>
      <point x="93" y="205.973"/>
      <point x="93" y="180" type="curve" smooth="yes"/>
      <point x="93" y="28.321"/>
      <point x="168.272" y="-6"/>
    </contour>
  </outline>
</glyph>
<glyph name="d" format="2">
  <advance width="560"/>
  <unicode hex="0064"/>
  <note>
GF Latin Plus glyph
</note>
  <anchor x="602" y="650" name="altcaron"/>
  <anchor x="257" y="-150" name="bottom"/>
  <anchor x="603" y="850" name="top"/>
  <outline>
    <contour>
      <point x="253" y="-6" type="curve" smooth="yes"/>
      <point x="336" y="-6"/>
      <point x="417" y="31"/>
      <point x="466" y="59" type="curve"/>
      <point x="464" y="0" type="line"/>
      <point x="480" y="0" type="line"/>
      <point x="601" y="763" type="line"/>
      <point x="577" y="763" type="line"/>
      <point x="535" y="498" type="line"/>
      <point x="483.589" y="526.329"/>
      <point x="432" y="537"/>
      <point x="368" y="537" type="curve" smooth="yes"/>
      <point x="182" y="537"/>
      <point x="132.964" y="431.807"/>
      <point x="103" y="271" type="curve" smooth="yes"/>
      <point x="96" y="235"/>
      <point x="93" y="202"/>
      <point x="93" y="165" type="curve" smooth="yes"/>
      <point x="93" y="49"/>
      <point x="164" y="-6"/>
    </contour>
    <contour>
      <point x="252" y="16" type="curve" smooth="yes"/>
      <point x="178" y="16"/>
      <point x="117" y="59"/>
      <point x="117" y="171" type="curve" smooth="yes"/>
      <point x="117" y="197"/>
      <point x="121" y="228"/>
      <point x="127" y="263" type="curve" smooth="yes"/>
      <point x="156.964" y="430.796"/>
      <point x="199" y="515"/>
      <point x="366" y="515" type="curve" smooth="yes"/>
      <point x="435" y="515"/>
      <point x="482.693" y="502.254"/>
      <point x="531" y="476" type="curve"/>
      <point x="468" y="75" type="line"/>
      <point x="401" y="43"/>
      <point x="331" y="16"/>
    </contour>
  </outline>
</glyph>
<glyph name="g" format="2">
  <advance width="559"/>
  <unicode hex="0067"/>
  <note>
GF Latin Plus glyph
</note>
  <anchor x="207" y="-350" name="bottom"/>
  <anchor x="383" y="650" name="top"/>
  <outline>
    <contour>
      <point x="218" y="-237" type="line" smooth="yes"/>
      <point x="301.647" y="-239.698"/>
      <point x="446" y="-210"/>
      <point x="469" y="-68" type="curve" smooth="yes"/>
      <point x="563" y="524" type="line"/>
      <point x="530" y="529"/>
      <point x="462" y="537"/>
      <point x="377" y="537" type="curve" smooth="yes"/>
      <point x="191" y="537"/>
      <point x="131" y="443"/>
      <point x="104" y="275" type="curve" smooth="yes"/>
      <point x="98" y="236"/>
      <point x="94" y="198"/>
      <point x="94" y="164" type="curve" smooth="yes"/>
      <point x="94" y="49"/>
      <point x="168" y="-6"/>
      <point x="244" y="-6" type="curve" smooth="yes"/>
      <point x="309" y="-6"/>
      <point x="390" y="12"/>
      <point x="466" y="59" type="curve"/>
      <point x="445" y="-66" type="line" smooth="yes"/>
      <point x="427" y="-173"/>
      <point x="325.261" y="-216"/>
      <point x="222" y="-216" type="curve" smooth="yes"/>
      <point x="66" y="-216" type="line"/>
      <point x="63" y="-232" type="line"/>
    </contour>
    <contour>
      <point x="247" y="16" type="curve" smooth="yes"/>
      <point x="176" y="16"/>
      <point x="118" y="63"/>
      <point x="118" y="166" type="curve" smooth="yes"/>
      <point x="118" y="196"/>
      <point x="122" y="231"/>
      <point x="128" y="271" type="curve" smooth="yes"/>
      <point x="155" y="442"/>
      <point x="218" y="522"/>
      <point x="375" y="515" type="curve" smooth="yes"/>
      <point x="429" y="513"/>
      <point x="482" y="510"/>
      <point x="536" y="508" type="curve"/>
      <point x="468" y="75" type="line"/>
      <point x="382" y="34"/>
      <point x="321" y="16"/>
    </contour>
  </outline>
</glyph>
<glyph name="i" format="2">
  <advance width="184"/>
  <unicode hex="0069"/>
  <note>
GF Latin Plus glyph
</note>
  <anchor x="76" y="-150" name="bottom"/>
  <anchor x="94" y="0" name="ogonek"/>
  <outline>
    <contour>
      <point x="188" y="640" type="curve" smooth="yes"/>
      <point x="199" y="640" type="line" smooth="yes"/>
      <point x="206" y="640"/>
      <point x="211" y="644"/>
      <point x="212" y="652" type="curve" smooth="yes"/>
      <point x="222" y="714" type="line" smooth="yes"/>
      <point x="223" y="721"/>
      <point x="221" y="726"/>
      <point x="213" y="726" type="curve" smooth="yes"/>
      <point x="202" y="726" type="line" smooth="yes"/>
      <point x="194" y="726"/>
      <point x="189" y="722"/>
      <point x="188" y="714" type="curve" smooth="yes"/>
      <point x="178" y="652" type="line" smooth="yes"/>
      <point x="177" y="645"/>
      <point x="181" y="640"/>
    </contour>
    <component base="idotless"/>
  </outline>
</glyph>
<glyph name="j" format="2">
  <advance width="183.902"/>
  <unicode hex="006A"/>
  <note>
GF Latin Plus glyph
</note>
  <outline>
    <contour>
      <point x="188" y="640" type="curve" smooth="yes"/>
      <point x="199" y="640" type="line" smooth="yes"/>
      <point x="206" y="640"/>
      <point x="211" y="644"/>
      <point x="212" y="652" type="curve" smooth="yes"/>
      <point x="222" y="714" type="line" smooth="yes"/>
      <point x="223" y="721"/>
      <point x="221" y="726"/>
      <point x="213" y="726" type="curve" smooth="yes"/>
      <point x="202" y="726" type="line" smooth="yes"/>
      <point x="194" y="726"/>
      <point x="189" y="722"/>
      <point x="188" y="714" type="curve" smooth="yes"/>
      <point x="178" y="652" type="line" smooth="yes"/>
      <point x="177" y="645"/>
      <point x="181" y="640"/>
    </contour>
    <component base="jdotless"/>
  </outline>
</glyph>
<glyph name="k" format="2">
  <advance width="497"/>
  <unicode hex="006B"/>
  <note>
GF Latin Plus glyph
</note>
  <anchor x="227" y="-150" name="bottom"/>
  <outline>
    <contour>
      <point x="80" y="0" type="line"/>
      <point x="104" y="0" type="line"/>
      <point x="148" y="275" type="line"/>
      <point x="179" y="275"/>
      <point x="228" y="280"/>
      <point x="265" y="290" type="curve"/>
      <point x="429" y="0" type="line"/>
      <point x="457" y="0" type="line"/>
      <point x="289" y="297" type="line"/>
      <point x="366" y="327"/>
      <point x="442" y="391"/>
      <point x="483" y="531" type="curve"/>
      <point x="459" y="531" type="line"/>
      <point x="405" y="354"/>
      <point x="292" y="297"/>
      <point x="151" y="297" type="curve"/>
      <point x="225" y="763" type="line"/>
      <point x="201" y="763" type="line"/>
    </contour>
  </outline>
</glyph>
<glyph name="n" format="2">
  <advance width="564"/>
  <unicode hex="006E"/>
  <note>
GF Latin Plus glyph
</note>
  <anchor x="259" y="-150" name="bottom"/>
  <anchor x="385" y="650" name="top"/>
  <outline>
    <contour>
      <point x="80" y="0" type="line"/>
      <point x="104" y="0" type="line"/>
      <point x="176" y="453" type="line"/>
      <point x="256" y="496"/>
      <point x="314" y="518"/>
      <point x="402" y="518" type="curve" smooth="yes"/>
      <point x="493" y="518"/>
      <point x="522" y="470"/>
      <point x="522" y="409" type="curve" smooth="yes"/>
      <point x="522" y="396"/>
      <point x="520" y="383"/>
      <point x="512" y="331" type="curve" smooth="yes"/>
      <point x="460" y="0" type="line"/>
      <point x="484" y="0" type="line"/>
      <point x="537" y="332" type="line" smooth="yes"/>
      <point x="545" y="384"/>
      <point x="546" y="398"/>
      <point x="546" y="411" type="curve" smooth="yes"/>
      <point x="546" y="482"/>
      <point x="512" y="540"/>
      <point x="406" y="540" type="curve" smooth="yes"/>
      <point x="325" y="540"/>
      <point x="243" y="510"/>
      <point x="178" y="469" type="curve"/>
      <point x="180" y="531" type="line"/>
      <point x="164" y="531" type="line"/>
    </contour>
  </outline>
</glyph>
<glyph name="o" format="2">
  <advance width="560"/>
  <unicode hex="006F"/>
  <note>
GF Latin Plus glyph
</note>
  <anchor x="251" y="-150" name="bottom"/>
  <anchor x="345" y="0" name="ogonek"/>
  <anchor x="377" y="650" name="top"/>
  <outline>
    <contour>
      <point x="279" y="-6" type="curve" smooth="yes"/>
      <point x="440" y="-6"/>
      <point x="509" y="56"/>
      <point x="540" y="251" type="curve" smooth="yes"/>
      <point x="545.837" y="289.914"/>
      <point x="550" y="324.889"/>
      <point x="550" y="356" type="curve" smooth="yes"/>
      <point x="550" y="474.972"/>
      <point x="496" y="537"/>
      <point x="365" y="537" type="curve" smooth="yes"/>
      <point x="206" y="537"/>
      <point x="136" y="477"/>
      <point x="102" y="265" type="curve" smooth="yes"/>
      <point x="96.895" y="230.284"/>
      <point x="94" y="199"/>
      <point x="94" y="170" type="curve" smooth="yes"/>
      <point x="94" y="35"/>
      <point x="172" y="-6"/>
    </contour>
    <contour>
      <point x="284" y="16" type="curve" smooth="yes"/>
      <point x="188" y="16"/>
      <point x="118" y="42"/>
      <point x="118" y="170" type="curve" smooth="yes"/>
      <point x="118" y="195"/>
      <point x="121" y="224"/>
      <point x="126" y="258" type="curve" smooth="yes"/>
      <point x="160" y="469"/>
      <point x="220" y="515"/>
      <point x="360" y="515" type="curve" smooth="yes"/>
      <point x="480" y="515"/>
      <point x="525" y="470"/>
      <point x="525" y="356" type="curve" smooth="yes"/>
      <point x="525" y="328"/>
      <point x="522" y="296"/>
      <point x="516" y="258" type="curve" smooth="yes"/>
      <point x="484" y="54"/>
      <point x="415" y="16"/>
    </contour>
  </outline>
</glyph>
<glyph name="r" format="2">
  <advance width="376"/>
  <unicode hex="0072"/>
  <note>
GF Latin Plus glyph
</note>
  <anchor x="71" y="-150" name="bottom"/>
  <anchor x="293" y="650" name="top"/>
  <outline>
    <contour>
      <point x="80" y="0" type="line"/>
      <point x="104" y="0" type="line"/>
      <point x="176" y="453" type="line"/>
      <point x="226" y="484"/>
      <point x="284" y="513"/>
      <point x="351" y="513" type="curve" smooth="yes"/>
      <point x="380" y="513"/>
      <point x="405" y="510"/>
      <point x="426" y="505" type="curve"/>
      <point x="430" y="529" type="line"/>
      <point x="411" y="535"/>
      <point x="384" y="537"/>
      <point x="355" y="537" type="curve" smooth="yes"/>
      <point x="285" y="537"/>
      <point x="224" y="504"/>
      <point x="178" y="469" type="curve"/>
      <point x="180" y="531" type="line"/>
      <point x="164" y="531" type="line"/>
    </contour>
  </outline>
</glyph>
<glyph name="s" format="2">
  <advance width="502"/>
  <unicode hex="0073"/>
  <note>
GF Latin Plus glyph
</note>
  <anchor x="216" y="-150" name="bottom"/>
  <anchor x="342" y="650" name="top"/>
  <outline>
    <contour>
      <point x="278" y="-6" type="curve" smooth="yes"/>
      <point x="378.689" y="-6"/>
      <point x="445.551" y="24.623"/>
      <point x="459" y="107" type="curve" smooth="yes"/>
      <point x="467" y="156" type="line" smooth="yes"/>
      <point x="468" y="164"/>
      <point x="469" y="171"/>
      <point x="469" y="178" type="curve" smooth="yes"/>
      <point x="469" y="243"/>
      <point x="421" y="276"/>
      <point x="355" y="276" type="curve" smooth="yes"/>
      <point x="243" y="276" type="line" smooth="yes"/>
      <point x="170" y="276"/>
      <point x="139" y="289"/>
      <point x="139" y="329" type="curve" smooth="yes"/>
      <point x="139" y="338"/>
      <point x="140" y="349"/>
      <point x="143" y="369" type="curve" smooth="yes"/>
      <point x="151" y="415" type="line" smooth="yes"/>
      <point x="162.692" y="482.227"/>
      <point x="199.488" y="515"/>
      <point x="290" y="515" type="curve" smooth="yes"/>
      <point x="487" y="515" type="line"/>
      <point x="491" y="531" type="line"/>
      <point x="444.358" y="533.856"/>
      <point x="341.585" y="537"/>
      <point x="294" y="537" type="curve" smooth="yes"/>
      <point x="184.439" y="537"/>
      <point x="140.067" y="490.136"/>
      <point x="127" y="415" type="curve" smooth="yes"/>
      <point x="119" y="369" type="line" smooth="yes"/>
      <point x="116" y="354"/>
      <point x="115" y="341"/>
      <point x="115" y="329" type="curve" smooth="yes"/>
      <point x="115" y="275"/>
      <point x="153" y="252"/>
      <point x="241" y="252" type="curve" smooth="yes"/>
      <point x="354" y="252" type="line" smooth="yes"/>
      <point x="415" y="252"/>
      <point x="444" y="229"/>
      <point x="444" y="179" type="curve" smooth="yes"/>
      <point x="444" y="173"/>
      <point x="444" y="168"/>
      <point x="443" y="162" type="curve" smooth="yes"/>
      <point x="435" y="113" type="line" smooth="yes"/>
      <point x="422.988" y="39.428"/>
      <point x="367.113" y="16"/>
      <point x="282" y="16" type="curve" smooth="yes"/>
      <point x="70" y="16" type="line"/>
      <point x="67" y="0" type="line"/>
      <point x="99.451" y="-3.508"/>
      <point x="235.1" y="-6"/>
    </contour>
  </outline>
</glyph>
<glyph name="t" format="2">
  <advance width="366"/>
  <unicode hex="0074"/>
  <note>
GF Latin Plus glyph
</note>
  <anchor x="279" y="670" name="altcaron"/>
  <anchor x="215" y="-150" name="bottom"/>
  <anchor x="259" y="750" name="top"/>
  <outline>
    <contour>
      <point x="258" y="0" type="curve" smooth="yes"/>
      <point x="314" y="0" type="line"/>
      <point x="317" y="16" type="line"/>
      <point x="251" y="22" type="line" smooth="yes"/>
      <point x="195" y="27"/>
      <point x="169" y="55"/>
      <point x="169" y="107" type="curve" smooth="yes"/>
      <point x="169" y="133"/>
      <point x="174" y="163"/>
      <point x="178" y="188" type="curve" smooth="yes"/>
      <point x="229" y="509" type="line"/>
      <point x="404" y="509" type="line"/>
      <point x="407" y="531" type="line"/>
      <point x="232" y="531" type="line"/>
      <point x="256" y="680" type="line"/>
      <point x="240" y="680" type="line"/>
      <point x="208" y="531" type="line"/>
      <point x="123" y="525" type="line"/>
      <point x="121" y="509" type="line"/>
      <point x="207" y="509" type="line"/>
      <point x="154" y="188" type="line" smooth="yes"/>
      <point x="150" y="163"/>
      <point x="145" y="137"/>
      <point x="145" y="107" type="curve" smooth="yes"/>
      <point x="145" y="40"/>
      <point x="182" y="0"/>
    </contour>
  </outline>
</glyph>
<glyph name="u" format="2">
  <advance width="564"/>
  <unicode hex="0075"/>
  <note>
GF Latin Plus glyph
</note>
  <anchor x="257" y="-150" name="bottom"/>
  <anchor x="474" y="0" name="ogonek"/>
  <anchor x="383" y="650" name="top"/>
  <outline>
    <contour>
      <point x="243" y="-6" type="curve" smooth="yes"/>
      <point x="337" y="-6"/>
      <point x="405" y="24"/>
      <point x="470" y="62" type="curve"/>
      <point x="468" y="0" type="line"/>
      <point x="484" y="0" type="line"/>
      <point x="568" y="531" type="line"/>
      <point x="544" y="531" type="line"/>
      <point x="472" y="78" type="line"/>
      <point x="392" y="38"/>
      <point x="332" y="16"/>
      <point x="246" y="16" type="curve" smooth="yes"/>
      <point x="159" y="16"/>
      <point x="126" y="55"/>
      <point x="126" y="121" type="curve" smooth="yes"/>
      <point x="126" y="136"/>
      <point x="128" y="150"/>
      <point x="130" y="162" type="curve" smooth="yes"/>
      <point x="188" y="531" type="line"/>
      <point x="164" y="531" type="line"/>
      <point x="106" y="167" type="line" smooth="yes"/>
      <point x="104" y="154"/>
      <point x="102" y="136"/>
      <point x="102" y="116" type="curve" smooth="yes"/>
      <point x="102" y="41"/>
      <point x="150" y="-6"/>
    </contour>
  </outline>
</glyph>
<glyph name="v" format="2">
  <advance width="529"/>
  <unicode hex="0076"/>
  <note>
GF Latin Plus glyph
</note>
  <outline>
    <contour>
      <point x="239" y="0" type="line"/>
      <point x="263" y="0" type="line"/>
      <point x="503" y="414" type="line" smooth="yes"/>
      <point x="529.942" y="460.475"/>
      <point x="541" y="501.607"/>
      <point x="541" y="539" type="curve"/>
      <point x="525" y="539" type="line"/>
      <point x="517.479" y="498.17"/>
      <point x="505.943" y="463.084"/>
      <point x="485" y="427" type="curve" smooth="yes"/>
      <point x="254" y="29" type="line"/>
      <point x="128" y="531" type="line"/>
      <point x="104" y="531" type="line"/>
    </contour>
  </outline>
</glyph>
<glyph name="y" format="2">
  <advance width="543"/>
  <unicode hex="0079"/>
  <note>
GF Latin Plus glyph
</note>
  <anchor x="397" y="-150" name="bottom"/>
  <anchor x="343" y="650" name="top"/>
  <outline>
    <contour>
      <point x="97" y="-237" type="line"/>
      <point x="174" y="-222"/>
      <point x="241" y="-164"/>
      <point x="320" y="1" type="curve" smooth="yes"/>
      <point x="533" y="446" type="line" smooth="yes"/>
      <point x="550" y="481"/>
      <point x="554" y="509"/>
      <point x="554" y="539" type="curve"/>
      <point x="538" y="539" type="line"/>
      <point x="535" y="509"/>
      <point x="520" y="476"/>
      <point x="510" y="454" type="curve" smooth="yes"/>
      <point x="305" y="25" type="line"/>
      <point x="262" y="28"/>
      <point x="225" y="39"/>
      <point x="210" y="116" type="curve" smooth="yes"/>
      <point x="128" y="531" type="line"/>
      <point x="104" y="531" type="line"/>
      <point x="187" y="110" type="line" smooth="yes"/>
      <point x="206" y="12"/>
      <point x="254" y="5"/>
      <point x="293" y="0" type="curve"/>
      <point x="224.933" y="-143.394"/>
      <point x="149" y="-202"/>
      <point x="97" y="-215" type="curve"/>
    </contour>
  </outline>
</glyph>
<glyph name="z" format="2">
  <advance width="497"/>
  <unicode hex="007A"/>
  <note>
GF Latin Plus glyph
</note>
  <anchor x="221" y="-150" name="bottom"/>
  <anchor x="347" y="650" name="top"/>
  <outline>
    <contour>
      <point x="65" y="1" type="line"/>
      <point x="446" y="1" type="line"/>
      <point x="446" y="1"/>
      <point x="451" y="22"/>
      <point x="450" y="23" type="curve"/>
      <point x="95" y="23" type="line"/>
      <point x="507" y="509" type="line"/>
      <point x="510" y="531" type="line"/>
      <point x="134" y="531" type="line"/>
      <point x="131" y="509" type="line"/>
      <point x="480" y="509" type="line"/>
      <point x="68" y="22" type="line"/>
    </contour>
  </outline>
</glyph>
<glyph name="braceleft" format="2">
  <advance width="304"/>
  <unicode hex="007B"/>
  <note>
GF Latin Plus glyph
</note>
  <outline>
    <contour>
      <point x="267" y="-210" type="curve"/>
      <point x="270" y="-188" type="line"/>
      <point x="193" y="-188"/>
      <point x="153" y="-164"/>
      <point x="153" y="-87" type="curve" smooth="yes"/>
      <point x="153" y="-49"/>
      <point x="207" y="232"/>
      <point x="207" y="259" type="curve" smooth="yes"/>
      <point x="207" y="295"/>
      <point x="185" y="329"/>
      <point x="137" y="334" type="curve"/>
      <point x="181" y="340"/>
      <point x="223" y="372"/>
      <point x="231" y="420" type="curve" smooth="yes"/>
      <point x="268" y="656" type="line" smooth="yes"/>
      <point x="291" y="800"/>
      <point x="342" y="820"/>
      <point x="430" y="820" type="curve"/>
      <point x="434" y="842" type="line"/>
      <point x="301" y="842"/>
      <point x="262" y="772"/>
      <point x="244" y="656" type="curve" smooth="yes"/>
      <point x="207" y="420" type="line" smooth="yes"/>
      <point x="198" y="362"/>
      <point x="139" y="350"/>
      <point x="105" y="347" type="curve"/>
      <point x="101" y="320" type="line"/>
      <point x="158" y="320"/>
      <point x="182" y="300"/>
      <point x="182" y="254" type="curve" smooth="yes"/>
      <point x="182" y="219"/>
      <point x="128" y="-46"/>
      <point x="128" y="-94" type="curve" smooth="yes"/>
      <point x="128" y="-155"/>
      <point x="153" y="-210"/>
    </contour>
  </outline>
</glyph>
<glyph name="bar" format="2">
  <advance width="254"/>
  <unicode hex="007C"/>
  <note>
GF Latin Plus glyph
</note>
  <outline>
    <contour>
      <point x="104" y="-72" type="line"/>
      <point x="128" y="-72" type="line"/>
      <point x="261" y="770" type="line"/>
      <point x="237" y="770" type="line"/>
    </contour>
  </outline>
</glyph>
<glyph name="asciitilde" format="2">
  <advance width="473"/>
  <unicode hex="007E"/>
  <note>
GF Latin Plus glyph
</note>
  <outline>
    <contour>
      <point x="386" y="541" type="curve" smooth="yes"/>
      <point x="428" y="541"/>
      <point x="463" y="570"/>
      <point x="502" y="603" type="curve"/>
      <point x="497" y="610" type="line"/>
      <point x="471" y="591"/>
      <point x="427" y="557"/>
      <point x="388" y="557" type="curve" smooth="yes"/>
      <point x="356" y="557"/>
      <point x="313" y="630"/>
      <point x="274" y="630" type="curve" smooth="yes"/>
      <point x="235" y="630"/>
      <point x="197" y="602"/>
      <point x="159" y="572" type="curve"/>
      <point x="161" y="564" type="line"/>
      <point x="201" y="590"/>
      <point x="233" y="614"/>
      <point x="271" y="614" type="curve" smooth="yes"/>
      <point x="304" y="614"/>
      <point x="344" y="541"/>
    </contour>
  </outline>
</glyph>
<glyph name="yen" format="2">
  <advance width="609"/>
  <unicode hex="00A5"/>
  <note>
GF Latin Plus glyph
</note>
  <outline>
    <contour>
      <point x="90" y="260" type="line"/>
      <point x="539" y="260" type="line"/>
      <point x="543" y="284" type="line"/>
      <point x="94" y="284" type="line"/>
    </contour>
    <contour>
      <point x="72" y="144" type="line"/>
      <point x="521" y="144" type="line"/>
      <point x="525" y="168" type="line"/>
      <point x="76" y="168" type="line"/>
    </contour>
    <component base="Y" xOffset="-11"/>
  </outline>
</glyph>
<glyph name="ordfeminine" format="2">
  <advance width="406"/>
  <unicode hex="00AA"/>
  <note>
GF Latin Plus glyph
</note>
  <outline>
    <contour>
      <point x="100" y="271" type="line"/>
      <point x="412" y="271" type="line"/>
      <point x="415" y="291" type="line"/>
      <point x="103" y="291" type="line"/>
    </contour>
    <component base="a.superior" yOffset="80"/>
  </outline>
</glyph>
<glyph name="logicalnot" format="2">
  <advance width="609"/>
  <unicode hex="00AC"/>
  <note>
GF Latin Plus glyph
</note>
  <outline>
    <contour>
      <point x="540" y="224" type="line"/>
      <point x="564" y="224" type="line"/>
      <point x="606" y="488" type="line"/>
      <point x="582" y="488" type="line"/>
    </contour>
    <component base="minus" xOffset="19" yOffset="120"/>
  </outline>
</glyph>
<glyph name="registered" format="2">
  <advance width="864"/>
  <unicode hex="00AE"/>
  <note>
GF Latin Plus glyph
</note>
  <outline>
    <contour>
      <point x="315" y="0" type="curve" smooth="yes"/>
      <point x="571" y="0" type="line" smooth="yes"/>
      <point x="721" y="0"/>
      <point x="861" y="237"/>
      <point x="861" y="495" type="curve" smooth="yes"/>
      <point x="861" y="618"/>
      <point x="817" y="732"/>
      <point x="687" y="732" type="curve" smooth="yes"/>
      <point x="431" y="732" type="line" smooth="yes"/>
      <point x="283" y="732"/>
      <point x="123" y="512"/>
      <point x="123" y="279" type="curve" smooth="yes"/>
      <point x="123" y="150"/>
      <point x="168" y="0"/>
    </contour>
    <contour>
      <point x="309" y="153" type="line"/>
      <point x="323" y="153" type="line"/>
      <point x="354" y="350" type="line"/>
      <point x="517" y="345" type="line"/>
      <point x="597" y="153" type="line"/>
      <point x="610" y="153" type="line"/>
      <point x="530" y="346" type="line"/>
      <point x="606" y="351"/>
      <point x="661" y="414"/>
      <point x="661" y="490" type="curve" smooth="yes"/>
      <point x="661" y="565"/>
      <point x="612" y="580"/>
      <point x="554" y="580" type="curve" smooth="yes"/>
      <point x="377" y="580" type="line"/>
    </contour>
    <contour>
      <point x="317" y="14" type="line" smooth="yes"/>
      <point x="180" y="14"/>
      <point x="139" y="145"/>
      <point x="139" y="279" type="curve" smooth="yes"/>
      <point x="139" y="519"/>
      <point x="298" y="718"/>
      <point x="429" y="718" type="curve" smooth="yes"/>
      <point x="685" y="718" type="line" smooth="yes"/>
      <point x="801" y="718"/>
      <point x="845" y="623"/>
      <point x="845" y="492" type="curve" smooth="yes"/>
      <point x="845" y="248"/>
      <point x="716" y="14"/>
      <point x="573" y="14" type="curve" smooth="yes"/>
    </contour>
    <contour>
      <point x="356" y="359" type="line"/>
      <point x="389" y="566" type="line"/>
      <point x="558" y="566" type="line" smooth="yes"/>
      <point x="613" y="566"/>
      <point x="647" y="546"/>
      <point x="647" y="486" type="curve" smooth="yes"/>
      <point x="647" y="420"/>
      <point x="595" y="359"/>
      <point x="524" y="359" type="curve" smooth="yes"/>
    </contour>
  </outline>
</glyph>
<glyph name="macron" format="2">
  <advance width="387"/>
  <unicode hex="00AF"/>
  <note>
GF Latin Plus glyph
</note>
  <outline>
    <contour>
      <point x="177" y="691" type="line"/>
      <point x="429" y="691" type="line"/>
      <point x="432" y="706" type="line"/>
      <point x="180" y="706" type="line"/>
    </contour>
  </outline>
</glyph>
<glyph name="degree" format="2">
  <advance width="338"/>
  <unicode hex="00B0"/>
  <note>
GF Latin Plus glyph
</note>
  <outline>
    <contour>
      <point x="251" y="510" type="curve" smooth="yes"/>
      <point x="333" y="510"/>
      <point x="392" y="566"/>
      <point x="392" y="654" type="curve" smooth="yes"/>
      <point x="392" y="714"/>
      <point x="352" y="755"/>
      <point x="290" y="755" type="curve" smooth="yes"/>
      <point x="207" y="755"/>
      <point x="146" y="697"/>
      <point x="146" y="610" type="curve" smooth="yes"/>
      <point x="146" y="551"/>
      <point x="188" y="510"/>
    </contour>
    <contour>
      <point x="253" y="524" type="curve" smooth="yes"/>
      <point x="196.391" y="524"/>
      <point x="160" y="561"/>
      <point x="160" y="613" type="curve" smooth="yes"/>
      <point x="160" y="684"/>
      <point x="213" y="741"/>
      <point x="287" y="741" type="curve" smooth="yes"/>
      <point x="343" y="741"/>
      <point x="378" y="704"/>
      <point x="378" y="652" type="curve" smooth="yes"/>
      <point x="378" y="579"/>
      <point x="326" y="524"/>
    </contour>
  </outline>
</glyph>
<glyph name="twosuperior" format="2">
  <advance width="421"/>
  <unicode hex="00B2"/>
  <note>
GF Latin Plus glyph
</note>
  <outline>
    <contour>
      <point x="108" y="355" type="line"/>
      <point x="434" y="355" type="line"/>
      <point x="437" y="376" type="line"/>
      <point x="146" y="376" type="line"/>
      <point x="351" y="542" type="line" smooth="yes"/>
      <point x="445" y="618"/>
      <point x="475" y="687"/>
      <point x="475" y="753" type="curve" smooth="yes"/>
      <point x="475" y="807"/>
      <point x="441" y="846"/>
      <point x="345" y="846" type="curve" smooth="yes"/>
      <point x="298" y="846"/>
      <point x="246" y="843"/>
      <point x="206" y="841" type="curve"/>
      <point x="204" y="826" type="line"/>
      <point x="335" y="826" type="line" smooth="yes"/>
      <point x="427" y="826"/>
      <point x="453" y="794"/>
      <point x="453" y="750" type="curve" smooth="yes"/>
      <point x="453" y="689"/>
      <point x="425" y="627"/>
      <point x="335" y="554" type="curve" smooth="yes"/>
      <point x="110" y="374" type="line"/>
    </contour>
  </outline>
</glyph>
<glyph name="threesuperior" format="2">
  <advance width="421"/>
  <unicode hex="00B3"/>
  <note>
GF Latin Plus glyph
</note>
  <outline>
    <contour>
      <point x="272" y="351" type="curve" smooth="yes"/>
      <point x="358" y="351"/>
      <point x="413" y="390"/>
      <point x="424" y="463" type="curve" smooth="yes"/>
      <point x="431" y="503" type="line" smooth="yes"/>
      <point x="432" y="510"/>
      <point x="433" y="515"/>
      <point x="433" y="521" type="curve" smooth="yes"/>
      <point x="433" y="577"/>
      <point x="382" y="597"/>
      <point x="360" y="601" type="curve"/>
      <point x="381" y="603"/>
      <point x="441" y="622"/>
      <point x="452" y="690" type="curve" smooth="yes"/>
      <point x="459" y="735" type="line" smooth="yes"/>
      <point x="461" y="743"/>
      <point x="461" y="750"/>
      <point x="461" y="757" type="curve" smooth="yes"/>
      <point x="461" y="808"/>
      <point x="427" y="846"/>
      <point x="348" y="846" type="curve" smooth="yes"/>
      <point x="281" y="846"/>
      <point x="232" y="844"/>
      <point x="197" y="841" type="curve"/>
      <point x="194" y="826" type="line"/>
      <point x="338" y="826" type="line" smooth="yes"/>
      <point x="404" y="826"/>
      <point x="438" y="798"/>
      <point x="438" y="752" type="curve" smooth="yes"/>
      <point x="438" y="746"/>
      <point x="438" y="740"/>
      <point x="437" y="734" type="curve" smooth="yes"/>
      <point x="430" y="690" type="line" smooth="yes"/>
      <point x="421" y="635"/>
      <point x="378" y="614"/>
      <point x="324" y="612" type="curve" smooth="yes"/>
      <point x="193" y="608" type="line"/>
      <point x="190" y="594" type="line"/>
      <point x="321" y="589" type="line" smooth="yes"/>
      <point x="361" y="588"/>
      <point x="409" y="572"/>
      <point x="410" y="520" type="curve" smooth="yes"/>
      <point x="410" y="515"/>
      <point x="409" y="510"/>
      <point x="408" y="504" type="curve" smooth="yes"/>
      <point x="401" y="464" type="line" smooth="yes"/>
      <point x="390" y="388"/>
      <point x="332" y="371"/>
      <point x="272" y="371" type="curve" smooth="yes"/>
      <point x="102" y="371" type="line"/>
      <point x="99" y="356" type="line"/>
      <point x="139" y="353"/>
      <point x="201" y="351"/>
    </contour>
  </outline>
</glyph>
<glyph name="acute" format="2">
  <advance width="201"/>
  <unicode hex="00B4"/>
  <note>
GF Latin Plus glyph
</note>
  <outline>
    <contour>
      <point x="127" y="631" type="line"/>
      <point x="141" y="631" type="line"/>
      <point x="295" y="764" type="line"/>
      <point x="269" y="764" type="line"/>
    </contour>
  </outline>
</glyph>
<glyph name="paragraph" format="2">
  <advance width="572"/>
  <unicode hex="00B6"/>
  <note>
GF Latin Plus glyph
</note>
  <outline>
    <contour>
      <point x="251" y="-270" type="line"/>
      <point x="275" y="-270" type="line"/>
      <point x="430" y="708" type="line"/>
      <point x="544" y="708" type="line"/>
      <point x="432" y="0" type="line"/>
      <point x="456" y="0" type="line"/>
      <point x="568" y="706" type="line"/>
      <point x="657" y="706" type="line"/>
      <point x="661" y="732" type="line"/>
      <point x="326" y="732" type="line" smooth="yes"/>
      <point x="244" y="732"/>
      <point x="153" y="687"/>
      <point x="138" y="592" type="curve" smooth="yes"/>
      <point x="118" y="469" type="line" smooth="yes"/>
      <point x="117" y="460"/>
      <point x="116" y="450"/>
      <point x="116" y="441" type="curve" smooth="yes"/>
      <point x="116" y="370"/>
      <point x="162" y="315"/>
      <point x="260" y="315" type="curve" smooth="yes"/>
      <point x="299" y="315"/>
      <point x="334.412" y="317.941"/>
      <point x="345" y="325" type="curve"/>
    </contour>
    <contour>
      <point x="264" y="339" type="line" smooth="yes"/>
      <point x="208" y="339"/>
      <point x="140" y="351"/>
      <point x="140" y="445" type="curve" smooth="yes"/>
      <point x="140" y="453"/>
      <point x="141" y="462"/>
      <point x="143" y="471" type="curve" smooth="yes"/>
      <point x="161" y="590" type="line" smooth="yes"/>
      <point x="172" y="656"/>
      <point x="231" y="708"/>
      <point x="322" y="708" type="curve" smooth="yes"/>
      <point x="406" y="708" type="line"/>
      <point x="348" y="339" type="line"/>
    </contour>
  </outline>
</glyph>
<glyph name="periodcentered" format="2">
  <advance width="281"/>
  <unicode hex="00B7"/>
  <note>
GF Latin Plus glyph
</note>
  <outline>
    <contour>
      <point x="149" y="364" type="curve" smooth="yes"/>
      <point x="161" y="364" type="line" smooth="yes"/>
      <point x="168" y="364"/>
      <point x="173" y="368"/>
      <point x="174" y="376" type="curve" smooth="yes"/>
      <point x="176" y="388" type="line" smooth="yes"/>
      <point x="177" y="395"/>
      <point x="175" y="400"/>
      <point x="167" y="400" type="curve" smooth="yes"/>
      <point x="155" y="400" type="line" smooth="yes"/>
      <point x="147" y="400"/>
      <point x="142" y="396"/>
      <point x="141" y="388" type="curve" smooth="yes"/>
      <point x="139" y="376" type="line" smooth="yes"/>
      <point x="138" y="369"/>
      <point x="142" y="364"/>
    </contour>
  </outline>
</glyph>
<glyph name="cedilla" format="2">
  <advance width="267"/>
  <unicode hex="00B8"/>
  <note>
GF Latin Plus glyph
</note>
  <outline>
    <contour>
      <point x="39" y="-183" type="line"/>
      <point x="59" y="-183" type="line" smooth="yes"/>
      <point x="124" y="-183"/>
      <point x="158" y="-134"/>
      <point x="158" y="-105" type="curve" smooth="yes"/>
      <point x="158" y="-76"/>
      <point x="139" y="-58"/>
      <point x="83" y="-58" type="curve"/>
      <point x="67" y="-68" type="line"/>
      <point x="128" y="-68"/>
      <point x="143" y="-86"/>
      <point x="143" y="-108" type="curve" smooth="yes"/>
      <point x="143" y="-128"/>
      <point x="118" y="-167"/>
      <point x="67" y="-171" type="curve" smooth="yes"/>
      <point x="41" y="-173" type="line"/>
    </contour>
    <contour>
      <point x="67" y="-68" type="line"/>
      <point x="81" y="-68" type="line"/>
      <point x="147" y="10" type="line"/>
      <point x="133" y="10" type="line"/>
    </contour>
  </outline>
</glyph>
<glyph name="AE" format="2">
  <advance width="896"/>
  <unicode hex="00C6"/>
  <note>
GF Latin Plus glyph
</note>
  <anchor x="609" y="810" name="top"/>
  <outline>
    <contour>
      <point x="622" y="-3" type="curve" smooth="yes"/>
      <point x="705" y="-1"/>
      <point x="788" y="1"/>
      <point x="871" y="3" type="curve"/>
      <point x="874" y="19" type="line"/>
      <point x="617" y="19" type="line" smooth="yes"/>
      <point x="562" y="19"/>
      <point x="506" y="31"/>
      <point x="521" y="123" type="curve" smooth="yes"/>
      <point x="558" y="352" type="line"/>
      <point x="887" y="355" type="line"/>
      <point x="890" y="371" type="line"/>
      <point x="561" y="374" type="line"/>
      <point x="596" y="592" type="line" smooth="yes"/>
      <point x="608" y="667"/>
      <point x="600" y="710"/>
      <point x="716" y="710" type="curve" smooth="yes"/>
      <point x="983" y="710" type="line"/>
      <point x="986" y="726" type="line"/>
      <point x="897" y="728"/>
      <point x="809" y="730"/>
      <point x="720" y="732" type="curve" smooth="yes"/>
      <point x="610" y="734"/>
      <point x="578" y="689"/>
      <point x="499" y="590" type="curve" smooth="yes"/>
      <point x="30" y="0" type="line"/>
      <point x="60" y="0" type="line"/>
      <point x="259" y="252" type="line"/>
      <point x="518" y="252" type="line"/>
      <point x="497" y="121" type="line" smooth="yes"/>
      <point x="479" y="8"/>
      <point x="557" y="-5"/>
    </contour>
    <contour>
      <point x="277" y="274" type="line"/>
      <point x="583" y="661" type="line"/>
      <point x="521" y="274" type="line"/>
    </contour>
  </outline>
</glyph>
<glyph name="multiply" format="2">
  <advance width="609"/>
  <unicode hex="00D7"/>
  <note>
GF Latin Plus glyph
</note>
  <outline>
    <contour>
      <point x="185" y="189" type="line"/>
      <point x="552" y="506" type="line"/>
      <point x="537" y="523" type="line"/>
      <point x="170" y="206" type="line"/>
    </contour>
    <contour>
      <point x="485" y="189" type="line"/>
      <point x="504" y="206" type="line"/>
      <point x="237" y="523" type="line"/>
      <point x="218" y="506" type="line"/>
    </contour>
  </outline>
</glyph>
<glyph name="Oslash" format="2">
  <advance width="678"/>
  <unicode hex="00D8"/>
  <note>
GF Latin Plus glyph
</note>
  <anchor x="468" y="810" name="top"/>
  <outline>
    <contour>
      <point x="65" y="0" type="line"/>
      <point x="90" y="0" type="line"/>
      <point x="729" y="732" type="line"/>
      <point x="704" y="732" type="line"/>
    </contour>
    <component base="O"/>
  </outline>
</glyph>
<glyph name="Thorn" format="2">
  <advance width="535.089"/>
  <unicode hex="00DE"/>
  <note>
GF Latin Plus glyph
</note>
  <outline>
    <contour>
      <point x="80" y="0" type="line"/>
      <point x="104" y="0" type="line"/>
      <point x="218" y="732" type="line"/>
      <point x="196" y="732" type="line"/>
    </contour>
    <contour>
      <point x="303" y="183" type="curve" smooth="yes"/>
      <point x="394.104" y="183"/>
      <point x="500.974" y="213.828"/>
      <point x="525" y="372" type="curve" smooth="yes"/>
      <point x="528" y="392"/>
      <point x="531" y="421"/>
      <point x="531" y="437" type="curve" smooth="yes"/>
      <point x="531" y="547"/>
      <point x="461.638" y="582"/>
      <point x="372" y="582" type="curve" smooth="yes"/>
      <point x="184" y="582" type="line"/>
      <point x="183" y="560" type="line"/>
      <point x="368" y="560" type="line" smooth="yes"/>
      <point x="455.279" y="560"/>
      <point x="507" y="526"/>
      <point x="507" y="436" type="curve" smooth="yes"/>
      <point x="507" y="420"/>
      <point x="504" y="392"/>
      <point x="501" y="372" type="curve" smooth="yes"/>
      <point x="478.969" y="236.807"/>
      <point x="392.462" y="205"/>
      <point x="305" y="205" type="curve" smooth="yes"/>
      <point x="129" y="205" type="line"/>
      <point x="125" y="188" type="line"/>
      <point x="189.39" y="185.159"/>
      <point x="245.245" y="183"/>
    </contour>
  </outline>
</glyph>
<glyph name="germandbls" format="2">
  <advance width="566"/>
  <unicode hex="00DF"/>
  <note>
GF Latin Plus glyph
</note>
  <outline>
    <contour>
      <point x="382" y="-6" type="curve" smooth="yes"/>
      <point x="469.611" y="-6"/>
      <point x="533.159" y="38.522"/>
      <point x="548" y="122" type="curve" smooth="yes"/>
      <point x="554" y="156"/>
      <point x="554" y="167"/>
      <point x="554" y="174" type="curve" smooth="yes"/>
      <point x="554" y="296.516"/>
      <point x="366" y="258"/>
      <point x="366" y="354" type="curve" smooth="yes"/>
      <point x="366" y="444.49"/>
      <point x="551" y="504"/>
      <point x="551" y="632" type="curve" smooth="yes"/>
      <point x="551" y="707"/>
      <point x="505" y="769"/>
      <point x="398" y="769" type="curve" smooth="yes"/>
      <point x="265" y="769"/>
      <point x="193.342" y="706.51"/>
      <point x="171" y="566" type="curve" smooth="yes"/>
      <point x="81" y="0" type="line"/>
      <point x="105" y="0" type="line"/>
      <point x="195" y="566" type="line" smooth="yes"/>
      <point x="215.824" y="696.962"/>
      <point x="283" y="747"/>
      <point x="396" y="747" type="curve" smooth="yes"/>
      <point x="476" y="747"/>
      <point x="527" y="704"/>
      <point x="527" y="631" type="curve" smooth="yes"/>
      <point x="527" y="514"/>
      <point x="342" y="458.458"/>
      <point x="342" y="354" type="curve" smooth="yes"/>
      <point x="342" y="240"/>
      <point x="530" y="271.067"/>
      <point x="530" y="174" type="curve" smooth="yes"/>
      <point x="530" y="160"/>
      <point x="528" y="146"/>
      <point x="524" y="122" type="curve" smooth="yes"/>
      <point x="517.603" y="82.705"/>
      <point x="489.5" y="16"/>
      <point x="386" y="16" type="curve" smooth="yes"/>
      <point x="317" y="16"/>
      <point x="251" y="19"/>
      <point x="213" y="21" type="curve"/>
      <point x="211" y="7" type="line"/>
      <point x="245" y="0"/>
      <point x="314" y="-6"/>
    </contour>
  </outline>
</glyph>
<glyph name="eth" format="2">
  <advance width="560"/>
  <unicode hex="00F0"/>
  <note>
GF Latin Plus glyph
</note>
  <outline>
    <contour>
      <point x="136" y="477"/>
      <point x="102" y="265" type="curve" smooth="yes"/>
      <point x="97" y="230"/>
      <point x="94" y="199"/>
      <point x="94" y="170" type="curve" smooth="yes"/>
      <point x="94" y="35"/>
      <point x="172" y="-6"/>
      <point x="279" y="-6" type="curve" smooth="yes"/>
      <point x="440" y="-6"/>
      <point x="509" y="56"/>
      <point x="542" y="266" type="curve" smooth="yes"/>
      <point x="546" y="290"/>
      <point x="540" y="325"/>
      <point x="540" y="356" type="curve" smooth="yes"/>
      <point x="540" y="475"/>
      <point x="486" y="537"/>
      <point x="365" y="537" type="curve" smooth="yes"/>
      <point x="206" y="537"/>
    </contour>
    <contour>
      <point x="121" y="224"/>
      <point x="126" y="258" type="curve" smooth="yes"/>
      <point x="160" y="469"/>
      <point x="220" y="515"/>
      <point x="360" y="515" type="curve" smooth="yes"/>
      <point x="475" y="515"/>
      <point x="525" y="470"/>
      <point x="525" y="356" type="curve" smooth="yes"/>
      <point x="525" y="328"/>
      <point x="522" y="296"/>
      <point x="517" y="264" type="curve" smooth="yes"/>
      <point x="484" y="54"/>
      <point x="415" y="16"/>
      <point x="284" y="16" type="curve" smooth="yes"/>
      <point x="188" y="16"/>
      <point x="118" y="42"/>
      <point x="118" y="170" type="curve" smooth="yes"/>
      <point x="118" y="195"/>
    </contour>
    <contour>
      <point x="260" y="763" type="curve"/>
      <point x="256" y="741" type="line"/>
      <point x="421" y="738"/>
      <point x="535" y="658"/>
      <point x="535" y="435" type="curve" smooth="yes"/>
      <point x="535" y="385"/>
      <point x="531" y="328"/>
      <point x="522" y="264" type="curve"/>
      <point x="542" y="266" type="line"/>
      <point x="552" y="331"/>
      <point x="556" y="389"/>
      <point x="556" y="440" type="curve" smooth="yes"/>
      <point x="556" y="666"/>
      <point x="432" y="761"/>
    </contour>
    <contour>
      <point x="618" y="755" type="line"/>
      <point x="292" y="634" type="line"/>
      <point x="295" y="620" type="line"/>
      <point x="621" y="741" type="line"/>
    </contour>
  </outline>
</glyph>
<glyph name="divide" format="2">
  <advance width="609"/>
  <unicode hex="00F7"/>
  <note>
GF Latin Plus glyph
</note>
  <outline>
    <contour>
      <point x="317" y="124" type="curve" smooth="yes"/>
      <point x="329" y="124" type="line" smooth="yes"/>
      <point x="343" y="124"/>
      <point x="355" y="129"/>
      <point x="358" y="147" type="curve" smooth="yes"/>
      <point x="362" y="174" type="line" smooth="yes"/>
      <point x="365" y="190"/>
      <point x="359" y="199"/>
      <point x="341" y="199" type="curve" smooth="yes"/>
      <point x="329" y="199" type="line" smooth="yes"/>
      <point x="313" y="199"/>
      <point x="304" y="189"/>
      <point x="301" y="174" type="curve" smooth="yes"/>
      <point x="297" y="147" type="line" smooth="yes"/>
      <point x="295" y="133"/>
      <point x="303" y="124"/>
    </contour>
    <contour>
      <point x="379" y="513" type="curve" smooth="yes"/>
      <point x="391" y="513" type="line" smooth="yes"/>
      <point x="405" y="513"/>
      <point x="417" y="518"/>
      <point x="420" y="536" type="curve" smooth="yes"/>
      <point x="424" y="563" type="line" smooth="yes"/>
      <point x="426" y="579"/>
      <point x="421" y="588"/>
      <point x="403" y="588" type="curve" smooth="yes"/>
      <point x="391" y="588" type="line" smooth="yes"/>
      <point x="375" y="588"/>
      <point x="365" y="578"/>
      <point x="363" y="563" type="curve" smooth="yes"/>
      <point x="359" y="536" type="line" smooth="yes"/>
      <point x="356" y="522"/>
      <point x="365" y="513"/>
    </contour>
    <component base="minus"/>
  </outline>
</glyph>
<glyph name="oslash" format="2">
  <advance width="560"/>
  <unicode hex="00F8"/>
  <note>
GF Latin Plus glyph
</note>
  <anchor x="348" y="650" name="top"/>
  <outline>
    <contour>
      <point x="70" y="0" type="line"/>
      <point x="92" y="0" type="line"/>
      <point x="574" y="531" type="line"/>
      <point x="552" y="531" type="line"/>
    </contour>
    <component base="o"/>
  </outline>
</glyph>
<glyph name="thorn" format="2">
  <advance width="560"/>
  <unicode hex="00FE"/>
  <note>
GF Latin Plus glyph
</note>
  <outline>
    <contour>
      <point x="42" y="-237" type="line"/>
      <point x="66" y="-237" type="line"/>
      <point x="109" y="33" type="line"/>
      <point x="169" y="4"/>
      <point x="223" y="-6"/>
      <point x="293" y="-6" type="curve" smooth="yes"/>
      <point x="454" y="-6"/>
      <point x="516" y="103"/>
      <point x="541" y="261" type="curve" smooth="yes"/>
      <point x="546" y="289"/>
      <point x="551" y="326"/>
      <point x="551" y="361" type="curve" smooth="yes"/>
      <point x="551" y="482"/>
      <point x="489" y="537"/>
      <point x="385" y="537" type="curve" smooth="yes"/>
      <point x="300" y="537"/>
      <point x="234" y="535"/>
      <point x="188" y="531" type="curve"/>
      <point x="225" y="763" type="line"/>
      <point x="201" y="763" type="line"/>
    </contour>
    <contour>
      <point x="294" y="16" type="curve" smooth="yes"/>
      <point x="220" y="16"/>
      <point x="188" y="24"/>
      <point x="112" y="49" type="curve"/>
      <point x="185" y="513" type="line"/>
      <point x="384" y="515" type="line" smooth="yes"/>
      <point x="482" y="516"/>
      <point x="527" y="461"/>
      <point x="527" y="360" type="curve" smooth="yes"/>
      <point x="527" y="328"/>
      <point x="521" y="293"/>
      <point x="517" y="268" type="curve" smooth="yes"/>
      <point x="491" y="107"/>
      <point x="438" y="16"/>
    </contour>
  </outline>
</glyph>
<glyph name="dcroat" format="2">
  <advance width="568"/>
  <unicode hex="0111"/>
  <note>
GF Latin Plus glyph
</note>
  <outline>
    <contour>
      <point x="400" y="640" type="line"/>
      <point x="658" y="640" type="line"/>
      <point x="661" y="656" type="line"/>
      <point x="403" y="656" type="line"/>
    </contour>
    <component base="d"/>
  </outline>
</glyph>
<glyph name="Hbar" format="2">
  <advance width="646"/>
  <unicode hex="0126"/>
  <note>
GF Latin Plus glyph
</note>
  <outline>
    <contour>
      <point x="89" y="531" type="line"/>
      <point x="726" y="531" type="line"/>
      <point x="729" y="553" type="line"/>
      <point x="92" y="553" type="line"/>
    </contour>
    <component base="H"/>
  </outline>
</glyph>
<glyph name="hbar" format="2">
  <advance width="564"/>
  <unicode hex="0127"/>
  <note>
GF Latin Plus glyph
</note>
  <outline>
    <contour>
      <point x="100" y="640" type="line"/>
      <point x="358" y="640" type="line"/>
      <point x="361" y="656" type="line"/>
      <point x="103" y="656" type="line"/>
    </contour>
    <component base="h"/>
  </outline>
</glyph>
<glyph name="idotless" format="2">
  <advance width="184"/>
  <unicode hex="0131"/>
  <note>
GF Latin Plus glyph
</note>
  <anchor x="68" y="-150" name="bottom"/>
  <anchor x="94" y="0" name="ogonek"/>
  <anchor x="195" y="650" name="top"/>
  <outline>
    <contour>
      <point x="80" y="0" type="line"/>
      <point x="104" y="0" type="line"/>
      <point x="188" y="531" type="line"/>
      <point x="164" y="531" type="line"/>
    </contour>
  </outline>
</glyph>
<glyph name="kgreenlandic" format="2">
  <advance width="497"/>
  <unicode hex="0138"/>
  <note>
GF Latin Plus glyph
</note>
  <outline>
    <contour>
      <point x="80" y="0" type="line"/>
      <point x="104" y="0" type="line"/>
      <point x="144" y="255" type="line"/>
      <point x="175.265" y="255"/>
      <point x="225" y="259"/>
      <point x="262" y="270" type="curve"/>
      <point x="429" y="0" type="line"/>
      <point x="457" y="0" type="line"/>
      <point x="286" y="277" type="line"/>
      <point x="365" y="313"/>
      <point x="438.716" y="379.785"/>
      <point x="483" y="531" type="curve"/>
      <point x="459" y="531" type="line"/>
      <point x="400.722" y="339.977"/>
      <point x="290.373" y="277"/>
      <point x="148" y="277" type="curve"/>
      <point x="188" y="531" type="line"/>
      <point x="164" y="531" type="line"/>
    </contour>
  </outline>
</glyph>
<glyph name="Lslash" format="2">
  <advance width="517"/>
  <unicode hex="0141"/>
  <note>
GF Latin Plus glyph
</note>
  <outline>
    <contour>
      <point x="48" y="322" type="line"/>
      <point x="141" y="359" type="line"/>
      <point x="158" y="364" type="line"/>
      <point x="313" y="427" type="line"/>
      <point x="316" y="447" type="line"/>
      <point x="161" y="384" type="line"/>
      <point x="144" y="380" type="line"/>
      <point x="51" y="343" type="line"/>
    </contour>
    <component base="L"/>
  </outline>
</glyph>
<glyph name="lslash" format="2">
  <advance width="269"/>
  <unicode hex="0142"/>
  <note>
GF Latin Plus glyph
</note>
  <outline>
    <contour>
      <point x="57" y="371" type="line"/>
      <point x="144" y="399" type="line"/>
      <point x="167" y="407" type="line"/>
      <point x="289" y="444" type="line"/>
      <point x="292" y="465" type="line"/>
      <point x="170" y="428" type="line"/>
      <point x="148" y="420" type="line"/>
      <point x="60" y="392" type="line"/>
    </contour>
    <component base="l"/>
  </outline>
</glyph>
<glyph name="Eng" format="2">
  <advance width="649"/>
  <unicode hex="014A"/>
  <note>
GF Latin Plus glyph
</note>
  <outline>
    <contour>
      <point x="365" y="-243" type="curve" smooth="yes"/>
      <point x="469" y="-243"/>
      <point x="535" y="-211"/>
      <point x="554" y="-92" type="curve" smooth="yes"/>
      <point x="569" y="0" type="line"/>
      <point x="546" y="6" type="line"/>
      <point x="530" y="-92" type="line" smooth="yes"/>
      <point x="512" y="-200"/>
      <point x="449" y="-221"/>
      <point x="368" y="-221" type="curve" smooth="yes"/>
      <point x="337" y="-221"/>
      <point x="292" y="-211"/>
      <point x="264" y="-202" type="curve"/>
      <point x="262" y="-218" type="line"/>
      <point x="287" y="-232"/>
      <point x="331" y="-243"/>
    </contour>
    <component base="N"/>
  </outline>
</glyph>
<glyph name="eng" format="2">
  <advance width="564"/>
  <unicode hex="014B"/>
  <note>
GF Latin Plus glyph
</note>
  <outline>
    <contour>
      <point x="282" y="-237" type="curve"/>
      <point x="304" y="-237" type="line"/>
      <point x="402" y="-203"/>
      <point x="465" y="-120"/>
      <point x="484" y="0" type="curve" smooth="yes"/>
      <point x="491" y="44" type="line"/>
      <point x="467" y="44" type="line"/>
      <point x="460" y="0" type="line" smooth="yes"/>
      <point x="442" y="-114"/>
      <point x="387" y="-188"/>
    </contour>
    <component base="n"/>
  </outline>
</glyph>
<glyph name="Tbar" format="2">
  <advance width="602"/>
  <unicode hex="0166"/>
  <note>
GF Latin Plus glyph
</note>
  <outline>
    <contour>
      <point x="144" y="381" type="line"/>
      <point x="569" y="381" type="line"/>
      <point x="572" y="403" type="line"/>
      <point x="147" y="403" type="line"/>
    </contour>
    <component base="T"/>
  </outline>
</glyph>
<glyph name="tbar" format="2">
  <advance width="350"/>
  <unicode hex="0167"/>
  <note>
GF Latin Plus glyph
</note>
  <outline>
    <contour>
      <point x="90" y="318" type="line"/>
      <point x="353" y="318" type="line"/>
      <point x="356" y="334" type="line"/>
      <point x="93" y="334" type="line"/>
    </contour>
    <component base="t"/>
  </outline>
</glyph>
<glyph name="florin" format="2">
  <advance width="609"/>
  <unicode hex="0192"/>
  <note>
GF Latin Plus glyph
</note>
  <outline>
    <contour>
      <point x="68" y="-204" type="curve" smooth="yes"/>
      <point x="175" y="-204"/>
      <point x="226" y="-128"/>
      <point x="294" y="88" type="curve" smooth="yes"/>
      <point x="400" y="423" type="line"/>
      <point x="544" y="423" type="line"/>
      <point x="550" y="445" type="line"/>
      <point x="406" y="445" type="line"/>
      <point x="444" y="562" type="line" smooth="yes"/>
      <point x="496" y="723"/>
      <point x="531" y="776"/>
      <point x="616" y="776" type="curve" smooth="yes"/>
      <point x="694" y="776" type="line"/>
      <point x="699" y="792" type="line"/>
      <point x="688" y="794"/>
      <point x="663" y="798"/>
      <point x="619" y="798" type="curve" smooth="yes"/>
      <point x="517" y="798"/>
      <point x="477" y="740"/>
      <point x="418" y="556" type="curve" smooth="yes"/>
      <point x="383" y="446" type="line"/>
      <point x="281" y="446" type="line"/>
      <point x="274" y="423" type="line"/>
      <point x="376" y="423" type="line"/>
      <point x="270" y="88" type="line" smooth="yes"/>
      <point x="204" y="-121"/>
      <point x="155" y="-182"/>
      <point x="76" y="-182" type="curve" smooth="yes"/>
      <point x="1" y="-182" type="line"/>
      <point x="-5" y="-198" type="line"/>
      <point x="13" y="-202"/>
      <point x="44" y="-204"/>
    </contour>
  </outline>
</glyph>
<glyph name="jdotless" format="2">
  <advance width="183.902"/>
  <unicode hex="0237"/>
  <note>
GF Latin Plus glyph
</note>
  <anchor x="195" y="650" name="top"/>
  <outline>
    <contour>
      <point x="42" y="-237" type="line"/>
      <point x="58" y="-237" type="line"/>
      <point x="77.464" y="-159.145"/>
      <point x="90.944" y="-79.883"/>
      <point x="103" y="-4" type="curve" smooth="yes"/>
      <point x="188" y="531" type="line"/>
      <point x="164" y="531" type="line"/>
    </contour>
  </outline>
</glyph>
<glyph name="ringhalfright" format="2">
  <advance width="192"/>
  <unicode hex="02BE"/>
  <outline>
    <contour>
      <point x="105" y="590" type="line"/>
      <point x="213" y="590"/>
      <point x="266" y="645"/>
      <point x="266" y="712" type="curve" smooth="yes"/>
      <point x="266" y="781"/>
      <point x="221" y="805"/>
      <point x="139" y="805" type="curve"/>
      <point x="137" y="789" type="line"/>
      <point x="208" y="789"/>
      <point x="242" y="768"/>
      <point x="242" y="710" type="curve" smooth="yes"/>
      <point x="242" y="649"/>
      <point x="203" y="606"/>
      <point x="108" y="606" type="curve"/>
    </contour>
  </outline>
</glyph>
<glyph name="circumflex" format="2">
  <advance width="407"/>
  <unicode hex="02C6"/>
  <note>
GF Latin Plus glyph
</note>
  <outline>
    <contour>
      <point x="168" y="631" type="line"/>
      <point x="186" y="631" type="line"/>
      <point x="328" y="746" type="line"/>
      <point x="422" y="631" type="line"/>
      <point x="440" y="631" type="line"/>
      <point x="341" y="761" type="line"/>
      <point x="321" y="761" type="line"/>
    </contour>
  </outline>
</glyph>
<glyph name="breve" format="2">
  <advance width="363"/>
  <unicode hex="02D8"/>
  <note>
GF Latin Plus glyph
</note>
  <outline>
    <contour>
      <point x="282" y="633" type="curve" smooth="yes"/>
      <point x="342" y="633"/>
      <point x="412" y="658"/>
      <point x="429" y="767" type="curve"/>
      <point x="415" y="767" type="line"/>
      <point x="401" y="677"/>
      <point x="342" y="647"/>
      <point x="282" y="647" type="curve" smooth="yes"/>
      <point x="231" y="647"/>
      <point x="191" y="673"/>
      <point x="191" y="737" type="curve" smooth="yes"/>
      <point x="191" y="746"/>
      <point x="192" y="756"/>
      <point x="193" y="767" type="curve"/>
      <point x="179" y="767" type="line"/>
      <point x="178" y="755"/>
      <point x="177" y="744"/>
      <point x="177" y="734" type="curve" smooth="yes"/>
      <point x="177" y="656"/>
      <point x="229" y="633"/>
    </contour>
  </outline>
</glyph>
<glyph name="dotaccent" format="2">
  <advance width="170"/>
  <unicode hex="02D9"/>
  <note>
GF Latin Plus glyph
</note>
  <outline>
    <contour>
      <point x="179" y="666" type="curve" smooth="yes"/>
      <point x="190" y="666" type="line" smooth="yes"/>
      <point x="197" y="666"/>
      <point x="203" y="670"/>
      <point x="204" y="678" type="curve" smooth="yes"/>
      <point x="214" y="740" type="line" smooth="yes"/>
      <point x="214" y="741"/>
      <point x="214" y="742"/>
      <point x="214" y="743" type="curve" smooth="yes"/>
      <point x="214" y="748"/>
      <point x="211" y="752"/>
      <point x="204" y="752" type="curve" smooth="yes"/>
      <point x="193" y="752" type="line" smooth="yes"/>
      <point x="185" y="752"/>
      <point x="180" y="748"/>
      <point x="179" y="740" type="curve" smooth="yes"/>
      <point x="169" y="678" type="line" smooth="yes"/>
      <point x="169" y="677"/>
      <point x="169" y="677"/>
      <point x="169" y="676" type="curve" smooth="yes"/>
      <point x="169" y="670"/>
      <point x="173" y="666"/>
    </contour>
  </outline>
</glyph>
<glyph name="ring" format="2">
  <advance width="338"/>
  <unicode hex="02DA"/>
  <note>
GF Latin Plus glyph
</note>
  <outline>
    <contour>
      <point x="267" y="600" type="curve" smooth="yes"/>
      <point x="344" y="600"/>
      <point x="384" y="657"/>
      <point x="384" y="723" type="curve" smooth="yes"/>
      <point x="384" y="783"/>
      <point x="342" y="805"/>
      <point x="298" y="805" type="curve" smooth="yes"/>
      <point x="219" y="805"/>
      <point x="177" y="746"/>
      <point x="177" y="683" type="curve" smooth="yes"/>
      <point x="177" y="620"/>
      <point x="220" y="600"/>
    </contour>
    <contour>
      <point x="267" y="616" type="curve" smooth="yes"/>
      <point x="230" y="616"/>
      <point x="193" y="631"/>
      <point x="193" y="683" type="curve" smooth="yes"/>
      <point x="193" y="740"/>
      <point x="226" y="789"/>
      <point x="297" y="789" type="curve" smooth="yes"/>
      <point x="332" y="789"/>
      <point x="368" y="774"/>
      <point x="368" y="721" type="curve" smooth="yes"/>
      <point x="368" y="665"/>
      <point x="337" y="616"/>
    </contour>
  </outline>
</glyph>
<glyph name="tilde" format="2">
  <advance width="473"/>
  <unicode hex="02DC"/>
  <note>
GF Latin Plus glyph
</note>
  <outline>
    <contour>
      <point x="172" y="661" type="curve"/>
      <point x="186" y="661" type="line"/>
      <point x="194" y="714"/>
      <point x="232" y="734"/>
      <point x="269" y="734" type="curve" smooth="yes"/>
      <point x="331" y="734"/>
      <point x="367" y="661"/>
      <point x="425" y="661" type="curve" smooth="yes"/>
      <point x="482" y="661"/>
      <point x="518" y="698"/>
      <point x="526" y="750" type="curve"/>
      <point x="512" y="750" type="line"/>
      <point x="504" y="702"/>
      <point x="470" y="677"/>
      <point x="429" y="677" type="curve" smooth="yes"/>
      <point x="372" y="677"/>
      <point x="336" y="750"/>
      <point x="274" y="750" type="curve" smooth="yes"/>
      <point x="231" y="750"/>
      <point x="182" y="728"/>
    </contour>
  </outline>
</glyph>
<glyph name="hungarumlaut" format="2">
  <advance width="344"/>
  <unicode hex="02DD"/>
  <note>
GF Latin Plus glyph
</note>
  <outline>
    <contour>
      <point x="266" y="631" type="line"/>
      <point x="280" y="631" type="line"/>
      <point x="434" y="764" type="line"/>
      <point x="408" y="764" type="line"/>
    </contour>
    <contour>
      <point x="127" y="631" type="line"/>
      <point x="141" y="631" type="line"/>
      <point x="295" y="764" type="line"/>
      <point x="269" y="764" type="line"/>
    </contour>
  </outline>
</glyph>
<glyph name="hookabovecomb" format="2">
  <unicode hex="0309"/>
  <note>
GF Latin Plus glyph
</note>
  <anchor x="-316" y="650" name="_top"/>
  <outline>
    <contour>
      <point x="-334" y="610" type="line"/>
      <point x="-259.518" y="630.098"/>
      <point x="-233" y="672"/>
      <point x="-233" y="714" type="curve" smooth="yes"/>
      <point x="-233" y="748"/>
      <point x="-251.397" y="770"/>
      <point x="-294" y="770" type="curve" smooth="yes"/>
      <point x="-307.634" y="770"/>
      <point x="-321.34" y="769.22"/>
      <point x="-337" y="764" type="curve"/>
      <point x="-339" y="750" type="line"/>
      <point x="-326.43" y="754.19"/>
      <point x="-311.632" y="756"/>
      <point x="-299" y="756" type="curve" smooth="yes"/>
      <point x="-263.423" y="756"/>
      <point x="-249" y="740"/>
      <point x="-249" y="713" type="curve" smooth="yes"/>
      <point x="-249" y="677"/>
      <point x="-268" y="643"/>
      <point x="-331" y="624" type="curve"/>
    </contour>
  </outline>
</glyph>
<glyph name="dblgravecomb" format="2">
  <unicode hex="030F"/>
  <note>
GF Latin Plus glyph
</note>
  <anchor x="-269" y="650" name="_top"/>
  <outline>
    <contour>
      <point x="-190" y="631" type="line"/>
      <point x="-176" y="631" type="line"/>
      <point x="-276" y="764" type="line"/>
      <point x="-302" y="764" type="line"/>
    </contour>
    <contour>
      <point x="-310" y="631" type="line"/>
      <point x="-296" y="631" type="line"/>
      <point x="-396" y="764" type="line"/>
      <point x="-422" y="764" type="line"/>
    </contour>
  </outline>
</glyph>
<glyph name="commaturnedabovecomb" format="2">
  <unicode hex="0312"/>
  <note>
GF Latin Plus glyph
</note>
  <anchor x="-204" y="650" name="_top"/>
  <outline>
    <contour>
      <point x="-252" y="609" type="curve"/>
      <point x="-235" y="609" type="line"/>
      <point x="-220" y="717"/>
      <point x="-187" y="727"/>
      <point x="-133" y="732" type="curve" smooth="yes"/>
      <point x="-101" y="735" type="line"/>
      <point x="-99" y="745" type="line"/>
      <point x="-126" y="745" type="line" smooth="yes"/>
      <point x="-212" y="745"/>
      <point x="-236" y="709"/>
    </contour>
  </outline>
</glyph>
<glyph name="commaaccentcomb" format="2">
  <unicode hex="0326"/>
  <note>
GF Latin Plus glyph
</note>
  <anchor x="-304.276" y="-150" name="_bottom"/>
  <outline>
    <contour>
      <point x="-391" y="-191" type="line"/>
      <point x="-364" y="-191" type="line" smooth="yes"/>
      <point x="-278" y="-191"/>
      <point x="-254" y="-155"/>
      <point x="-238" y="-55" type="curve"/>
      <point x="-255" y="-55" type="line"/>
      <point x="-270" y="-163"/>
      <point x="-303" y="-173"/>
      <point x="-357" y="-178" type="curve" smooth="yes"/>
      <point x="-389" y="-181" type="line"/>
    </contour>
  </outline>
</glyph>
<glyph name="Omega" format="2">
  <advance width="793"/>
  <unicode hex="03A9"/>
  <outline>
    <contour>
      <point x="70" y="0" type="line"/>
      <point x="316" y="0" type="line"/>
      <point x="319" y="22" type="line"/>
      <point x="231" y="109"/>
      <point x="165" y="204"/>
      <point x="165" y="319" type="curve" smooth="yes"/>
      <point x="165" y="502"/>
      <point x="266.012" y="717"/>
      <point x="503" y="717" type="curve" smooth="yes"/>
      <point x="678" y="717"/>
      <point x="753" y="610"/>
      <point x="753" y="481" type="curve" smooth="yes"/>
      <point x="753" y="342"/>
      <point x="688.409" y="146.844"/>
      <point x="480" y="22" type="curve"/>
      <point x="477" y="0" type="line"/>
      <point x="723" y="0" type="line"/>
      <point x="726" y="16" type="line"/>
      <point x="518" y="23" type="line"/>
      <point x="711" y="146"/>
      <point x="777" y="346"/>
      <point x="777" y="481" type="curve" smooth="yes"/>
      <point x="777" y="618"/>
      <point x="690.856" y="739"/>
      <point x="503" y="739" type="curve" smooth="yes"/>
      <point x="246.097" y="739"/>
      <point x="141" y="515"/>
      <point x="141" y="319" type="curve" smooth="yes"/>
      <point x="141" y="223"/>
      <point x="197" y="109"/>
      <point x="285" y="24" type="curve"/>
      <point x="73" y="16" type="line"/>
    </contour>
  </outline>
</glyph>
<glyph name="mu" format="2">
  <advance width="582"/>
  <unicode hex="03BC"/>
  <note>
GF Latin Plus glyph
</note>
  <outline>
    <contour>
      <point x="254" y="-6" type="curve" smooth="yes"/>
      <point x="335" y="-6"/>
      <point x="417" y="24"/>
      <point x="481" y="62" type="curve"/>
      <point x="481" y="0" type="line"/>
      <point x="495" y="0" type="line"/>
      <point x="579" y="532" type="line"/>
      <point x="555" y="532" type="line"/>
      <point x="483" y="76" type="line"/>
      <point x="403" y="36"/>
      <point x="346" y="16"/>
      <point x="264" y="16" type="curve" smooth="yes"/>
      <point x="188" y="16"/>
      <point x="137" y="40"/>
      <point x="137" y="120" type="curve" smooth="yes"/>
      <point x="137" y="132"/>
      <point x="138" y="145"/>
      <point x="140" y="159" type="curve" smooth="yes"/>
      <point x="199" y="532" type="line"/>
      <point x="175" y="532" type="line"/>
      <point x="119" y="179" type="line" smooth="yes"/>
      <point x="117" y="162"/>
      <point x="115" y="146"/>
      <point x="115" y="130" type="curve" smooth="yes"/>
      <point x="115" y="49"/>
      <point x="155" y="-6"/>
    </contour>
    <contour>
      <point x="49" y="-268" type="line"/>
      <point x="73" y="-268" type="line"/>
      <point x="150" y="219" type="line"/>
      <point x="126" y="219" type="line"/>
    </contour>
  </outline>
</glyph>
<glyph name="pi" format="2">
  <advance width="603"/>
  <unicode hex="03C0"/>
  <outline>
    <contour>
      <point x="471" y="-6" type="curve" smooth="yes"/>
      <point x="495" y="-6"/>
      <point x="519" y="-1"/>
      <point x="536" y="6" type="curve"/>
      <point x="538" y="20" type="line"/>
      <point x="475" y="20" type="line" smooth="yes"/>
      <point x="434" y="20"/>
      <point x="413" y="38"/>
      <point x="413" y="83" type="curve" smooth="yes"/>
      <point x="413" y="93"/>
      <point x="414" y="104"/>
      <point x="416" y="116" type="curve" smooth="yes"/>
      <point x="478" y="507" type="line"/>
      <point x="607" y="507" type="line"/>
      <point x="611" y="531" type="line"/>
      <point x="111" y="531" type="line"/>
      <point x="107" y="507" type="line"/>
      <point x="223" y="507" type="line"/>
      <point x="143" y="0" type="line"/>
      <point x="167" y="0" type="line"/>
      <point x="247" y="507" type="line"/>
      <point x="454" y="507" type="line"/>
      <point x="392" y="116" type="line" smooth="yes"/>
      <point x="390" y="101"/>
      <point x="389" y="87"/>
      <point x="389" y="75" type="curve" smooth="yes"/>
      <point x="389" y="15"/>
      <point x="418" y="-6"/>
    </contour>
  </outline>
</glyph>
<glyph name="endash" format="2">
  <advance width="527"/>
  <unicode hex="2013"/>
  <note>
GF Latin Plus glyph
</note>
  <outline>
    <contour>
      <point x="71" y="277" type="line"/>
      <point x="544" y="277" type="line"/>
      <point x="548" y="302" type="line"/>
      <point x="75" y="302" type="line"/>
    </contour>
  </outline>
</glyph>
<glyph name="quoteleft" format="2">
  <advance width="155"/>
  <unicode hex="2018"/>
  <note>
GF Latin Plus glyph
</note>
  <outline>
    <contour>
      <point x="156" y="551" type="curve" smooth="yes"/>
      <point x="168" y="551" type="line" smooth="yes"/>
      <point x="178" y="551"/>
      <point x="183" y="556"/>
      <point x="185" y="567" type="curve" smooth="yes"/>
      <point x="195" y="630" type="line" smooth="yes"/>
      <point x="195" y="631"/>
      <point x="195" y="632"/>
      <point x="195" y="634" type="curve" smooth="yes"/>
      <point x="195" y="641"/>
      <point x="190" y="646"/>
      <point x="183" y="646" type="curve" smooth="yes"/>
      <point x="176" y="646" type="line"/>
      <point x="187" y="713" type="line" smooth="yes"/>
      <point x="189" y="727"/>
      <point x="196" y="732"/>
      <point x="209" y="732" type="curve"/>
      <point x="210" y="739" type="line"/>
      <point x="206" y="740"/>
      <point x="204" y="740"/>
      <point x="202" y="740" type="curve" smooth="yes"/>
      <point x="193" y="740"/>
      <point x="176" y="735"/>
      <point x="171" y="701" type="curve" smooth="yes"/>
      <point x="150" y="567" type="line" smooth="yes"/>
      <point x="149" y="565"/>
      <point x="149" y="563"/>
      <point x="149" y="561" type="curve" smooth="yes"/>
      <point x="149" y="555"/>
      <point x="151" y="551"/>
    </contour>
  </outline>
</glyph>
<glyph name="quoteright" format="2">
  <advance width="155"/>
  <unicode hex="2019"/>
  <note>
GF Latin Plus glyph
</note>
  <outline>
    <contour>
      <point x="157" y="551" type="curve" smooth="yes"/>
      <point x="166" y="551"/>
      <point x="183" y="556"/>
      <point x="188" y="590" type="curve" smooth="yes"/>
      <point x="210" y="724" type="line" smooth="yes"/>
      <point x="210" y="726"/>
      <point x="210" y="728"/>
      <point x="210" y="730" type="curve" smooth="yes"/>
      <point x="210" y="736"/>
      <point x="208" y="740"/>
      <point x="203" y="740" type="curve" smooth="yes"/>
      <point x="191" y="740" type="line" smooth="yes"/>
      <point x="181" y="740"/>
      <point x="176" y="735"/>
      <point x="175" y="724" type="curve" smooth="yes"/>
      <point x="165" y="661" type="line" smooth="yes"/>
      <point x="164" y="660"/>
      <point x="164" y="659"/>
      <point x="164" y="657" type="curve" smooth="yes"/>
      <point x="164" y="650"/>
      <point x="169" y="645"/>
      <point x="176" y="645" type="curve" smooth="yes"/>
      <point x="183" y="645" type="line"/>
      <point x="173" y="578" type="line" smooth="yes"/>
      <point x="170" y="564"/>
      <point x="164" y="559"/>
      <point x="151" y="559" type="curve"/>
      <point x="149" y="552" type="line"/>
      <point x="153" y="551"/>
      <point x="155" y="551"/>
    </contour>
  </outline>
</glyph>
<glyph name="quotesinglbase" format="2">
  <advance width="155"/>
  <unicode hex="201A"/>
  <note>
GF Latin Plus glyph
</note>
  <outline>
    <contour>
      <point x="54" y="-100" type="curve" smooth="yes"/>
      <point x="63" y="-100"/>
      <point x="80" y="-95"/>
      <point x="85" y="-61" type="curve" smooth="yes"/>
      <point x="107" y="73" type="line" smooth="yes"/>
      <point x="107" y="75"/>
      <point x="107" y="77"/>
      <point x="107" y="79" type="curve" smooth="yes"/>
      <point x="107" y="85"/>
      <point x="105" y="89"/>
      <point x="100" y="89" type="curve" smooth="yes"/>
      <point x="88" y="89" type="line" smooth="yes"/>
      <point x="78" y="89"/>
      <point x="73" y="84"/>
      <point x="72" y="73" type="curve" smooth="yes"/>
      <point x="62" y="10" type="line" smooth="yes"/>
      <point x="61" y="9"/>
      <point x="61" y="8"/>
      <point x="61" y="6" type="curve" smooth="yes"/>
      <point x="61" y="-1"/>
      <point x="66" y="-6"/>
      <point x="73" y="-6" type="curve" smooth="yes"/>
      <point x="80" y="-6" type="line"/>
      <point x="69" y="-73" type="line" smooth="yes"/>
      <point x="67" y="-87"/>
      <point x="60" y="-92"/>
      <point x="47" y="-92" type="curve"/>
      <point x="46" y="-99" type="line"/>
      <point x="50" y="-100"/>
      <point x="52" y="-100"/>
    </contour>
  </outline>
</glyph>
<glyph name="minute" format="2">
  <advance width="124"/>
  <unicode hex="2032"/>
  <outline>
    <contour>
      <point x="110" y="475" type="line"/>
      <point x="127" y="475" type="line"/>
      <point x="214" y="763" type="line"/>
      <point x="190" y="763" type="line"/>
    </contour>
  </outline>
</glyph>
<glyph name="guilsinglleft" format="2">
  <advance width="354"/>
  <unicode hex="2039"/>
  <note>
GF Latin Plus glyph
</note>
  <outline>
    <contour>
      <point x="278" y="70" type="line"/>
      <point x="295" y="85" type="line"/>
      <point x="131" y="276" type="line"/>
      <point x="353" y="465" type="line"/>
      <point x="339" y="481" type="line"/>
      <point x="101" y="278" type="line"/>
    </contour>
  </outline>
</glyph>
<glyph name="fraction" format="2">
  <advance width="754"/>
  <unicode hex="2044"/>
  <note>
GF Latin Plus glyph
</note>
  <outline>
    <contour>
      <point x="90" y="0" type="line"/>
      <point x="110" y="0" type="line"/>
      <point x="618" y="770" type="line"/>
      <point x="598" y="770" type="line"/>
    </contour>
  </outline>
</glyph>
<glyph name="zerosuperior" format="2">
  <advance width="421"/>
  <unicode hex="2070"/>
  <note>
GF Latin Plus glyph
</note>
  <outline>
    <contour>
      <point x="226" y="355" type="curve" smooth="yes"/>
      <point x="311" y="355" type="line" smooth="yes"/>
      <point x="379" y="355"/>
      <point x="430" y="385"/>
      <point x="443" y="464" type="curve" smooth="yes"/>
      <point x="486" y="737" type="line" smooth="yes"/>
      <point x="487" y="745"/>
      <point x="488" y="754"/>
      <point x="488" y="762" type="curve" smooth="yes"/>
      <point x="488" y="808"/>
      <point x="460" y="846"/>
      <point x="389" y="846" type="curve" smooth="yes"/>
      <point x="304" y="846" type="line" smooth="yes"/>
      <point x="238" y="846"/>
      <point x="180" y="809"/>
      <point x="169" y="737" type="curve" smooth="yes"/>
      <point x="126" y="464" type="line" smooth="yes"/>
      <point x="124" y="455"/>
      <point x="124" y="447"/>
      <point x="124" y="440" type="curve" smooth="yes"/>
      <point x="124" y="381"/>
      <point x="170" y="355"/>
    </contour>
    <contour>
      <point x="230" y="375" type="line" smooth="yes"/>
      <point x="172" y="375"/>
      <point x="146" y="399"/>
      <point x="146" y="445" type="curve" smooth="yes"/>
      <point x="146" y="451"/>
      <point x="147" y="458"/>
      <point x="148" y="465" type="curve" smooth="yes"/>
      <point x="190" y="736" type="line" smooth="yes"/>
      <point x="199" y="793"/>
      <point x="243" y="826"/>
      <point x="302" y="826" type="curve" smooth="yes"/>
      <point x="383" y="826" type="line" smooth="yes"/>
      <point x="446" y="826"/>
      <point x="465" y="802"/>
      <point x="466" y="757" type="curve" smooth="yes"/>
      <point x="466" y="751"/>
      <point x="465" y="744"/>
      <point x="464" y="736" type="curve" smooth="yes"/>
      <point x="421" y="465" type="line" smooth="yes"/>
      <point x="412" y="410"/>
      <point x="380" y="375"/>
      <point x="312" y="375" type="curve" smooth="yes"/>
    </contour>
  </outline>
</glyph>
<glyph name="foursuperior" format="2">
  <advance width="421"/>
  <unicode hex="2074"/>
  <note>
GF Latin Plus glyph
</note>
  <outline>
    <contour>
      <point x="351" y="356" type="line"/>
      <point x="373" y="356" type="line"/>
      <point x="396" y="493" type="line"/>
      <point x="476" y="498" type="line"/>
      <point x="478" y="513" type="line"/>
      <point x="398" y="513" type="line"/>
      <point x="429" y="705" type="line"/>
      <point x="413" y="705" type="line"/>
      <point x="401" y="667" type="line"/>
      <point x="376" y="513" type="line"/>
      <point x="150" y="513" type="line"/>
      <point x="406" y="842" type="line"/>
      <point x="381" y="842" type="line"/>
      <point x="123" y="511" type="line"/>
      <point x="128" y="493" type="line"/>
      <point x="374" y="493" type="line"/>
    </contour>
  </outline>
</glyph>
<glyph name="fivesuperior" format="2">
  <advance width="421"/>
  <unicode hex="2075"/>
  <note>
GF Latin Plus glyph
</note>
  <outline>
    <contour>
      <point x="300" y="352" type="curve" smooth="yes"/>
      <point x="381" y="352"/>
      <point x="453" y="391"/>
      <point x="464" y="466" type="curve" smooth="yes"/>
      <point x="476" y="539" type="line" smooth="yes"/>
      <point x="477" y="545"/>
      <point x="478" y="551"/>
      <point x="478" y="557" type="curve" smooth="yes"/>
      <point x="477" y="609"/>
      <point x="439" y="644"/>
      <point x="369" y="644" type="curve" smooth="yes"/>
      <point x="307" y="644" type="line" smooth="yes"/>
      <point x="255" y="644"/>
      <point x="222" y="621"/>
      <point x="210" y="600" type="curve"/>
      <point x="256" y="822" type="line"/>
      <point x="506" y="822" type="line"/>
      <point x="509" y="842" type="line"/>
      <point x="239" y="842" type="line"/>
      <point x="180" y="556" type="line"/>
      <point x="200" y="556" type="line"/>
      <point x="217" y="604"/>
      <point x="251" y="625"/>
      <point x="300" y="625" type="curve" smooth="yes"/>
      <point x="363" y="625" type="line" smooth="yes"/>
      <point x="424" y="625"/>
      <point x="455" y="598"/>
      <point x="455" y="554" type="curve" smooth="yes"/>
      <point x="455" y="548"/>
      <point x="455" y="543"/>
      <point x="453" y="536" type="curve" smooth="yes"/>
      <point x="443" y="469" type="line" smooth="yes"/>
      <point x="433" y="405"/>
      <point x="370" y="372"/>
      <point x="303" y="372" type="curve" smooth="yes"/>
      <point x="131" y="372" type="line"/>
      <point x="128" y="357" type="line"/>
      <point x="171" y="353"/>
      <point x="234" y="352"/>
    </contour>
  </outline>
</glyph>
<glyph name="sixsuperior" format="2">
  <advance width="421"/>
  <unicode hex="2076"/>
  <note>
GF Latin Plus glyph
</note>
  <outline>
    <contour>
      <point x="247" y="354" type="curve" smooth="yes"/>
      <point x="327" y="354" type="line" smooth="yes"/>
      <point x="385" y="354"/>
      <point x="442" y="379"/>
      <point x="453" y="454" type="curve" smooth="yes"/>
      <point x="464" y="522" type="line" smooth="yes"/>
      <point x="465" y="529"/>
      <point x="466" y="536"/>
      <point x="466" y="542" type="curve" smooth="yes"/>
      <point x="466" y="603"/>
      <point x="412" y="618"/>
      <point x="336" y="618" type="curve" smooth="yes"/>
      <point x="303" y="618"/>
      <point x="229" y="616"/>
      <point x="181" y="613" type="curve"/>
      <point x="207" y="758"/>
      <point x="284" y="826"/>
      <point x="368" y="826" type="curve" smooth="yes"/>
      <point x="482" y="826" type="line"/>
      <point x="485" y="842" type="line"/>
      <point x="450" y="843"/>
      <point x="398" y="846"/>
      <point x="364" y="846" type="curve" smooth="yes"/>
      <point x="229" y="846"/>
      <point x="147" y="688"/>
      <point x="148" y="491" type="curve" smooth="yes"/>
      <point x="148" y="383"/>
      <point x="188" y="354"/>
    </contour>
    <contour>
      <point x="251" y="374" type="line" smooth="yes"/>
      <point x="201" y="374"/>
      <point x="169" y="400"/>
      <point x="169" y="490" type="curve" smooth="yes"/>
      <point x="169" y="519"/>
      <point x="172" y="554"/>
      <point x="178" y="598" type="curve"/>
      <point x="331" y="598" type="line" smooth="yes"/>
      <point x="400" y="598"/>
      <point x="444" y="588"/>
      <point x="444" y="538" type="curve" smooth="yes"/>
      <point x="444" y="533"/>
      <point x="443" y="527"/>
      <point x="442" y="520" type="curve" smooth="yes"/>
      <point x="432" y="455" type="line" smooth="yes"/>
      <point x="422" y="388"/>
      <point x="376" y="374"/>
      <point x="329" y="374" type="curve" smooth="yes"/>
    </contour>
  </outline>
</glyph>
<glyph name="sevensuperior" format="2">
  <advance width="421"/>
  <unicode hex="2077"/>
  <note>
GF Latin Plus glyph
</note>
  <outline>
    <contour>
      <point x="198" y="355" type="line"/>
      <point x="223" y="355" type="line"/>
      <point x="491" y="825" type="line"/>
      <point x="482" y="842" type="line"/>
      <point x="190" y="842" type="line"/>
      <point x="187" y="820" type="line"/>
      <point x="464" y="820" type="line"/>
    </contour>
  </outline>
</glyph>
<glyph name="eightsuperior" format="2">
  <advance width="421"/>
  <unicode hex="2078"/>
  <note>
GF Latin Plus glyph
</note>
  <outline>
    <contour>
      <point x="225" y="355" type="curve" smooth="yes"/>
      <point x="317" y="355" type="line" smooth="yes"/>
      <point x="384" y="355"/>
      <point x="427" y="385"/>
      <point x="436" y="445" type="curve" smooth="yes"/>
      <point x="449" y="523" type="line" smooth="yes"/>
      <point x="449" y="529"/>
      <point x="450" y="534"/>
      <point x="450" y="540" type="curve" smooth="yes"/>
      <point x="450" y="573"/>
      <point x="432" y="600"/>
      <point x="398" y="606" type="curve"/>
      <point x="434" y="618"/>
      <point x="459" y="652"/>
      <point x="465" y="687" type="curve" smooth="yes"/>
      <point x="474" y="744" type="line" smooth="yes"/>
      <point x="476" y="755"/>
      <point x="476" y="764"/>
      <point x="476" y="773" type="curve" smooth="yes"/>
      <point x="476" y="821"/>
      <point x="448" y="845"/>
      <point x="395" y="845" type="curve" smooth="yes"/>
      <point x="303" y="845" type="line" smooth="yes"/>
      <point x="242" y="845"/>
      <point x="194" y="816"/>
      <point x="182" y="744" type="curve" smooth="yes"/>
      <point x="174" y="687" type="line" smooth="yes"/>
      <point x="173" y="681"/>
      <point x="172" y="676"/>
      <point x="172" y="670" type="curve" smooth="yes"/>
      <point x="172" y="641"/>
      <point x="186" y="615"/>
      <point x="220" y="601" type="curve"/>
      <point x="194" y="595"/>
      <point x="146" y="571"/>
      <point x="137" y="517" type="curve" smooth="yes"/>
      <point x="126" y="445" type="line" smooth="yes"/>
      <point x="125" y="439"/>
      <point x="124" y="433"/>
      <point x="124" y="427" type="curve" smooth="yes"/>
      <point x="124" y="381"/>
      <point x="161" y="355"/>
    </contour>
    <contour>
      <point x="229" y="374" type="line" smooth="yes"/>
      <point x="183" y="374"/>
      <point x="147" y="390"/>
      <point x="147" y="431" type="curve" smooth="yes"/>
      <point x="147" y="435"/>
      <point x="147" y="440"/>
      <point x="148" y="445" type="curve" smooth="yes"/>
      <point x="160" y="519" type="line" smooth="yes"/>
      <point x="169" y="576"/>
      <point x="233" y="593"/>
      <point x="264" y="593" type="curve" smooth="yes"/>
      <point x="349" y="593" type="line" smooth="yes"/>
      <point x="405" y="593"/>
      <point x="428" y="579"/>
      <point x="428" y="540" type="curve" smooth="yes"/>
      <point x="428" y="534"/>
      <point x="427" y="527"/>
      <point x="426" y="519" type="curve" smooth="yes"/>
      <point x="414" y="445" type="line" smooth="yes"/>
      <point x="407" y="398"/>
      <point x="374" y="374"/>
      <point x="318" y="374" type="curve" smooth="yes"/>
    </contour>
    <contour>
      <point x="267" y="613" type="line" smooth="yes"/>
      <point x="216" y="613"/>
      <point x="194" y="640"/>
      <point x="194" y="672" type="curve" smooth="yes"/>
      <point x="194" y="676"/>
      <point x="194" y="680"/>
      <point x="195" y="684" type="curve" smooth="yes"/>
      <point x="204" y="741" type="line" smooth="yes"/>
      <point x="213" y="799"/>
      <point x="241" y="826"/>
      <point x="301" y="826" type="curve" smooth="yes"/>
      <point x="391" y="826" type="line" smooth="yes"/>
      <point x="433" y="826"/>
      <point x="454" y="809"/>
      <point x="454" y="768" type="curve" smooth="yes"/>
      <point x="454" y="760"/>
      <point x="454" y="751"/>
      <point x="452" y="741" type="curve" smooth="yes"/>
      <point x="443" y="684" type="line" smooth="yes"/>
      <point x="438" y="654"/>
      <point x="409" y="613"/>
      <point x="352" y="613" type="curve" smooth="yes"/>
    </contour>
  </outline>
</glyph>
<glyph name="ninesuperior" format="2">
  <advance width="421"/>
  <unicode hex="2079"/>
  <note>
GF Latin Plus glyph
</note>
  <outline>
    <contour>
      <point x="264" y="352" type="curve" smooth="yes"/>
      <point x="399" y="352"/>
      <point x="481" y="511"/>
      <point x="481" y="708" type="curve" smooth="yes"/>
      <point x="481" y="814"/>
      <point x="440" y="844"/>
      <point x="381" y="844" type="curve" smooth="yes"/>
      <point x="301" y="844" type="line" smooth="yes"/>
      <point x="243" y="844"/>
      <point x="187" y="819"/>
      <point x="175" y="744" type="curve" smooth="yes"/>
      <point x="165" y="676" type="line" smooth="yes"/>
      <point x="163" y="669"/>
      <point x="162" y="662"/>
      <point x="163" y="656" type="curve" smooth="yes"/>
      <point x="163" y="595"/>
      <point x="217" y="581"/>
      <point x="292" y="581" type="curve" smooth="yes"/>
      <point x="325" y="581"/>
      <point x="400" y="582"/>
      <point x="447" y="585" type="curve"/>
      <point x="418" y="441"/>
      <point x="344" y="372"/>
      <point x="260" y="372" type="curve" smooth="yes"/>
      <point x="146" y="372" type="line"/>
      <point x="143" y="357" type="line"/>
      <point x="179" y="355"/>
      <point x="230" y="352"/>
    </contour>
    <contour>
      <point x="297" y="600" type="line" smooth="yes"/>
      <point x="229" y="600"/>
      <point x="185" y="610"/>
      <point x="185" y="660" type="curve" smooth="yes"/>
      <point x="185" y="665"/>
      <point x="185" y="671"/>
      <point x="186" y="678" type="curve" smooth="yes"/>
      <point x="196" y="744" type="line" smooth="yes"/>
      <point x="207" y="810"/>
      <point x="252" y="824"/>
      <point x="300" y="824" type="curve" smooth="yes"/>
      <point x="377" y="824" type="line" smooth="yes"/>
      <point x="427" y="824"/>
      <point x="460" y="798"/>
      <point x="460" y="708" type="curve" smooth="yes"/>
      <point x="460" y="679"/>
      <point x="457" y="644"/>
      <point x="450" y="600" type="curve"/>
    </contour>
  </outline>
</glyph>
<glyph name="colonsign" format="2">
  <advance width="609"/>
  <unicode hex="20A1"/>
  <note>
GF Latin Plus glyph
</note>
  <outline>
    <contour>
      <point x="203" y="-110" type="line"/>
      <point x="228" y="-110" type="line"/>
      <point x="780" y="793" type="line"/>
      <point x="755" y="793" type="line"/>
    </contour>
    <contour>
      <point x="63" y="-110" type="line"/>
      <point x="88" y="-110" type="line"/>
      <point x="640" y="793" type="line"/>
      <point x="615" y="793" type="line"/>
    </contour>
    <contour>
      <point x="338" y="-6" type="curve" smooth="yes"/>
      <point x="426" y="-6"/>
      <point x="511" y="8"/>
      <point x="559" y="26" type="curve"/>
      <point x="563" y="42" type="line"/>
      <point x="483" y="22"/>
      <point x="434" y="16"/>
      <point x="348" y="16" type="curve" smooth="yes"/>
      <point x="220" y="16"/>
      <point x="158" y="61.964"/>
      <point x="158" y="214" type="curve" smooth="yes"/>
      <point x="158" y="459.609"/>
      <point x="320" y="726"/>
      <point x="537" y="726" type="curve" smooth="yes"/>
      <point x="607" y="726"/>
      <point x="665" y="711"/>
      <point x="713" y="699" type="curve"/>
      <point x="717" y="715" type="line"/>
      <point x="688" y="729"/>
      <point x="633" y="750"/>
      <point x="540" y="750" type="curve" smooth="yes"/>
      <point x="304" y="750"/>
      <point x="135" y="470"/>
      <point x="135" y="212" type="curve" smooth="yes"/>
      <point x="135" y="53"/>
      <point x="208" y="-6"/>
    </contour>
  </outline>
</glyph>
<glyph name="franc" format="2">
  <advance width="609"/>
  <unicode hex="20A3"/>
  <note>
GF Latin Plus glyph
</note>
  <outline>
    <contour>
      <point x="158" y="0" type="line"/>
      <point x="182" y="0" type="line"/>
      <point x="242" y="378" type="line"/>
      <point x="541" y="381" type="line"/>
      <point x="544" y="397" type="line"/>
      <point x="245" y="400" type="line"/>
      <point x="277" y="602" type="line" smooth="yes"/>
      <point x="289" y="677"/>
      <point x="334" y="710"/>
      <point x="396" y="710" type="curve" smooth="yes"/>
      <point x="633" y="710" type="line"/>
      <point x="636" y="726" type="line"/>
      <point x="557" y="728"/>
      <point x="479" y="730"/>
      <point x="400" y="732" type="curve" smooth="yes"/>
      <point x="333" y="734"/>
      <point x="268" y="698"/>
      <point x="253" y="602" type="curve" smooth="yes"/>
    </contour>
    <contour>
      <point x="183" y="160" type="line"/>
      <point x="207" y="160" type="line"/>
      <point x="514" y="163" type="line"/>
      <point x="516" y="179" type="line"/>
      <point x="211" y="182" type="line"/>
      <point x="187" y="182" type="line"/>
      <point x="93" y="179" type="line"/>
      <point x="91" y="163" type="line"/>
    </contour>
  </outline>
</glyph>
<glyph name="naira" format="2">
  <advance width="609"/>
  <unicode hex="20A6"/>
  <note>
GF Latin Plus glyph
</note>
  <outline>
    <contour>
      <point x="105" y="0" type="line"/>
      <point x="129" y="0" type="line"/>
      <point x="239" y="694" type="line"/>
      <point x="480" y="0" type="line"/>
      <point x="504" y="0" type="line"/>
      <point x="622" y="743" type="line"/>
      <point x="598" y="743" type="line"/>
      <point x="488" y="49" type="line"/>
      <point x="247" y="743" type="line"/>
      <point x="223" y="743" type="line"/>
    </contour>
    <contour>
      <point x="70" y="255" type="line"/>
      <point x="403" y="255" type="line"/>
      <point x="396" y="279" type="line"/>
      <point x="74" y="279" type="line"/>
    </contour>
    <contour>
      <point x="103" y="464" type="line"/>
      <point x="188" y="464" type="line"/>
      <point x="192" y="488" type="line"/>
      <point x="107" y="488" type="line"/>
    </contour>
    <contour>
      <point x="531" y="255" type="line"/>
      <point x="619" y="255" type="line"/>
      <point x="623" y="279" type="line"/>
      <point x="535" y="279" type="line"/>
    </contour>
    <contour>
      <point x="331" y="464" type="line"/>
      <point x="652" y="464" type="line"/>
      <point x="656" y="488" type="line"/>
      <point x="325" y="488" type="line"/>
    </contour>
  </outline>
</glyph>
<glyph name="won" format="2">
  <advance width="609"/>
  <unicode hex="20A9"/>
  <note>
GF Latin Plus glyph
</note>
  <outline>
    <contour>
      <point x="145" y="0" type="line"/>
      <point x="166" y="0" type="line"/>
      <point x="391" y="555" type="line"/>
      <point x="434" y="0" type="line"/>
      <point x="454" y="0" type="line"/>
      <point x="665" y="732" type="line"/>
      <point x="640" y="732" type="line"/>
      <point x="453" y="79" type="line"/>
      <point x="410" y="603" type="line"/>
      <point x="387" y="603" type="line"/>
      <point x="173" y="79" type="line"/>
      <point x="196" y="732" type="line"/>
      <point x="171" y="732" type="line"/>
    </contour>
    <contour>
      <point x="45" y="255" type="line"/>
      <point x="171" y="255" type="line"/>
      <point x="170" y="279" type="line"/>
      <point x="49" y="279" type="line"/>
    </contour>
    <contour>
      <point x="78" y="464" type="line"/>
      <point x="175" y="464" type="line"/>
      <point x="179" y="488" type="line"/>
      <point x="82" y="488" type="line"/>
    </contour>
    <contour>
      <point x="517" y="255" type="line"/>
      <point x="634" y="255" type="line"/>
      <point x="638" y="279" type="line"/>
      <point x="521" y="279" type="line"/>
    </contour>
    <contour>
      <point x="583" y="464" type="line"/>
      <point x="667" y="464" type="line"/>
      <point x="671" y="488" type="line"/>
      <point x="587" y="488" type="line"/>
    </contour>
  </outline>
</glyph>
<glyph name="euro" format="2">
  <advance width="609"/>
  <unicode hex="20AC"/>
  <note>
GF Latin Plus glyph
</note>
  <outline>
    <contour>
      <point x="179" y="429" type="line"/>
      <point x="194" y="429" type="line"/>
      <point x="497" y="432" type="line"/>
      <point x="500" y="448" type="line"/>
      <point x="197" y="451" type="line"/>
      <point x="182" y="451" type="line"/>
      <point x="104" y="447" type="line"/>
      <point x="101" y="432" type="line"/>
    </contour>
    <contour>
      <point x="153" y="267" type="line"/>
      <point x="168" y="267" type="line"/>
      <point x="471" y="270" type="line"/>
      <point x="474" y="286" type="line"/>
      <point x="171" y="289" type="line"/>
      <point x="156" y="289" type="line"/>
      <point x="78" y="287" type="line"/>
      <point x="76" y="271" type="line"/>
    </contour>
    <component base="C" xOffset="30"/>
  </outline>
</glyph>
<glyph name="kip" format="2">
  <advance width="609"/>
  <unicode hex="20AD"/>
  <note>
GF Latin Plus glyph
</note>
  <outline>
    <contour>
      <point x="108" y="0" type="line"/>
      <point x="132" y="0" type="line"/>
      <point x="188" y="356" type="line"/>
      <point x="342" y="356" type="line"/>
      <point x="527" y="0" type="line"/>
      <point x="554" y="0" type="line"/>
      <point x="364" y="367" type="line"/>
      <point x="670" y="732" type="line"/>
      <point x="644" y="732" type="line"/>
      <point x="347" y="378" type="line"/>
      <point x="192" y="378" type="line"/>
      <point x="248" y="732" type="line"/>
      <point x="224" y="732" type="line"/>
    </contour>
    <contour>
      <point x="86" y="356" type="line"/>
      <point x="595" y="356" type="line"/>
      <point x="599" y="378" type="line"/>
      <point x="90" y="378" type="line"/>
    </contour>
  </outline>
</glyph>
<glyph name="guarani" format="2">
  <advance width="609"/>
  <unicode hex="20B2"/>
  <note>
GF Latin Plus glyph
</note>
  <outline>
    <contour>
      <point x="306" y="-5" type="curve" smooth="yes"/>
      <point x="391" y="-5"/>
      <point x="470.588" y="22.412"/>
      <point x="540" y="53" type="curve"/>
      <point x="538" y="0" type="line"/>
      <point x="554" y="0" type="line"/>
      <point x="611" y="363" type="line"/>
      <point x="587" y="363" type="line"/>
      <point x="541" y="69" type="line"/>
      <point x="477" y="44"/>
      <point x="387" y="17"/>
      <point x="316" y="17" type="curve" smooth="yes"/>
      <point x="185" y="17"/>
      <point x="135" y="63"/>
      <point x="135" y="194" type="curve" smooth="yes"/>
      <point x="135" y="399"/>
      <point x="208" y="696"/>
      <point x="430" y="696" type="curve" smooth="yes"/>
      <point x="516" y="696"/>
      <point x="618" y="686"/>
      <point x="655" y="682" type="curve"/>
      <point x="658" y="698" type="line"/>
      <point x="596" y="709"/>
      <point x="492" y="718"/>
      <point x="434" y="718" type="curve" smooth="yes"/>
      <point x="195" y="718"/>
      <point x="111" y="413"/>
      <point x="111" y="191" type="curve" smooth="yes"/>
      <point x="111" y="47"/>
      <point x="166" y="-5"/>
    </contour>
    <contour>
      <point x="311" y="-110" type="line"/>
      <point x="336" y="-110" type="line"/>
      <point x="479" y="793" type="line"/>
      <point x="454" y="793" type="line"/>
    </contour>
  </outline>
</glyph>
<glyph name="cedi" format="2">
  <advance width="609"/>
  <unicode hex="20B5"/>
  <note>
GF Latin Plus glyph
</note>
  <outline>
    <contour>
      <point x="338" y="-6" type="curve" smooth="yes"/>
      <point x="426" y="-6"/>
      <point x="510" y="8"/>
      <point x="557" y="26" type="curve"/>
      <point x="560" y="42" type="line"/>
      <point x="481" y="22"/>
      <point x="433" y="16"/>
      <point x="347" y="16" type="curve" smooth="yes"/>
      <point x="228" y="16"/>
      <point x="143" y="58.062"/>
      <point x="143" y="220" type="curve" smooth="yes"/>
      <point x="143" y="515.911"/>
      <point x="285.689" y="706"/>
      <point x="474" y="706" type="curve" smooth="yes"/>
      <point x="547.933" y="706"/>
      <point x="609.983" y="692.004"/>
      <point x="662" y="679" type="curve"/>
      <point x="664" y="695" type="line"/>
      <point x="632.972" y="710.013"/>
      <point x="551.056" y="730"/>
      <point x="474" y="730" type="curve" smooth="yes"/>
      <point x="273.644" y="730"/>
      <point x="119" y="528.95"/>
      <point x="119" y="221" type="curve" smooth="yes"/>
      <point x="119" y="41.074"/>
      <point x="215" y="-6"/>
    </contour>
    <contour>
      <point x="322" y="-110" type="line"/>
      <point x="347" y="-110" type="line"/>
      <point x="490" y="793" type="line"/>
      <point x="465" y="793" type="line"/>
    </contour>
  </outline>
</glyph>
<glyph name="liraTurkish" format="2">
  <advance width="609"/>
  <unicode hex="20BA"/>
  <note>
GF Latin Plus glyph
</note>
  <outline>
    <contour>
      <point x="135" y="0" type="line"/>
      <point x="159" y="0" type="line" smooth="yes"/>
      <point x="405" y="0"/>
      <point x="565" y="67"/>
      <point x="606" y="327" type="curve"/>
      <point x="582" y="327" type="line"/>
      <point x="543" y="79"/>
      <point x="390" y="22"/>
      <point x="162" y="22" type="curve"/>
      <point x="275" y="732" type="line"/>
      <point x="251" y="732" type="line"/>
    </contour>
    <contour>
      <point x="49" y="245" type="line"/>
      <point x="534" y="475" type="line"/>
      <point x="538" y="499" type="line"/>
      <point x="53" y="269" type="line"/>
    </contour>
    <contour>
      <point x="74" y="405" type="line"/>
      <point x="560" y="635" type="line"/>
      <point x="563" y="659" type="line"/>
      <point x="78" y="429" type="line"/>
    </contour>
  </outline>
</glyph>
<glyph name="ruble" format="2">
  <advance width="609"/>
  <unicode hex="20BD"/>
  <note>
GF Latin Plus glyph
</note>
  <outline>
    <contour>
      <point x="135" y="0" type="line"/>
      <point x="159" y="0" type="line"/>
      <point x="206" y="294" type="line"/>
      <point x="264" y="294"/>
      <point x="321" y="294"/>
      <point x="379" y="294" type="curve" smooth="yes"/>
      <point x="541" y="294"/>
      <point x="624" y="452"/>
      <point x="624" y="578" type="curve" smooth="yes"/>
      <point x="624" y="694"/>
      <point x="558" y="732"/>
      <point x="467" y="732" type="curve" smooth="yes"/>
      <point x="251" y="732" type="line"/>
    </contour>
    <contour>
      <point x="41" y="132" type="line"/>
      <point x="168" y="132" type="line"/>
      <point x="171" y="154" type="line"/>
      <point x="44" y="154" type="line"/>
    </contour>
    <contour>
      <point x="67" y="294" type="line"/>
      <point x="188" y="294" type="line"/>
      <point x="191" y="316" type="line"/>
      <point x="70" y="316" type="line"/>
    </contour>
    <contour>
      <point x="172" y="132" type="line"/>
      <point x="500" y="132" type="line"/>
      <point x="503" y="154" type="line"/>
      <point x="175" y="154" type="line"/>
    </contour>
    <contour>
      <point x="209" y="316" type="line"/>
      <point x="271" y="710" type="line"/>
      <point x="443" y="710" type="line" smooth="yes"/>
      <point x="551" y="710"/>
      <point x="600" y="677"/>
      <point x="600" y="581" type="curve" smooth="yes"/>
      <point x="600" y="457"/>
      <point x="524" y="316"/>
      <point x="381" y="316" type="curve" smooth="yes"/>
    </contour>
  </outline>
</glyph>
<glyph name="estimated" format="2">
  <advance width="890"/>
  <unicode hex="212E"/>
  <outline>
    <contour>
      <point x="494" y="-41" type="curve" smooth="yes"/>
      <point x="578" y="-41"/>
      <point x="619" y="-32"/>
      <point x="676" y="-10" type="curve" smooth="yes"/>
      <point x="730" y="12"/>
      <point x="776" y="50"/>
      <point x="827" y="105" type="curve"/>
      <point x="752" y="105" type="line"/>
      <point x="694" y="39"/>
      <point x="597" y="-13"/>
      <point x="494" y="-13" type="curve" smooth="yes"/>
      <point x="340" y="-13"/>
      <point x="238" y="80"/>
      <point x="238" y="117" type="curve" smooth="yes"/>
      <point x="238" y="301" type="line" smooth="yes"/>
      <point x="238" y="318"/>
      <point x="244" y="317"/>
      <point x="254" y="317" type="curve" smooth="yes"/>
      <point x="900" y="317" type="line"/>
      <point x="895" y="439"/>
      <point x="853" y="542"/>
      <point x="775" y="604" type="curve" smooth="yes"/>
      <point x="696" y="666"/>
      <point x="614" y="698"/>
      <point x="494" y="698" type="curve" smooth="yes"/>
      <point x="363" y="698"/>
      <point x="276" y="661"/>
      <point x="201" y="591" type="curve" smooth="yes"/>
      <point x="126" y="521"/>
      <point x="90" y="434"/>
      <point x="90" y="327" type="curve" smooth="yes"/>
      <point x="90" y="219"/>
      <point x="127" y="132"/>
      <point x="201" y="62" type="curve" smooth="yes"/>
      <point x="275" y="-8"/>
      <point x="368" y="-41"/>
    </contour>
    <contour>
      <point x="250" y="340" type="line" smooth="yes"/>
      <point x="243" y="340"/>
      <point x="238" y="340"/>
      <point x="238" y="353" type="curve" smooth="yes"/>
      <point x="238" y="540" type="line" smooth="yes"/>
      <point x="238" y="572"/>
      <point x="347" y="673"/>
      <point x="493" y="673" type="curve" smooth="yes"/>
      <point x="609" y="673"/>
      <point x="751" y="594"/>
      <point x="751" y="536" type="curve" smooth="yes"/>
      <point x="751" y="350" type="line" smooth="yes"/>
      <point x="751" y="336"/>
      <point x="750" y="340"/>
      <point x="733" y="340" type="curve" smooth="yes"/>
    </contour>
  </outline>
</glyph>
<glyph name="partialdiff" format="2">
  <advance width="674"/>
  <unicode hex="2202"/>
  <outline>
    <contour>
      <point x="334" y="-5" type="curve" smooth="yes"/>
      <point x="551" y="-5"/>
      <point x="638" y="263"/>
      <point x="638" y="486" type="curve" smooth="yes"/>
      <point x="638" y="644"/>
      <point x="578" y="740"/>
      <point x="424" y="740" type="curve" smooth="yes"/>
      <point x="340" y="740"/>
      <point x="278" y="716"/>
      <point x="213" y="675" type="curve"/>
      <point x="218" y="660" type="line"/>
      <point x="270" y="690"/>
      <point x="331" y="718"/>
      <point x="410" y="718" type="curve" smooth="yes"/>
      <point x="562" y="718"/>
      <point x="614" y="629"/>
      <point x="614" y="487" type="curve" smooth="yes"/>
      <point x="614" y="456"/>
      <point x="612" y="423"/>
      <point x="608" y="387" type="curve"/>
      <point x="544" y="429"/>
      <point x="451" y="440"/>
      <point x="400" y="440" type="curve" smooth="yes"/>
      <point x="213" y="440"/>
      <point x="122" y="338"/>
      <point x="122" y="197" type="curve" smooth="yes"/>
      <point x="122" y="65"/>
      <point x="215" y="-5"/>
    </contour>
    <contour>
      <point x="334" y="19" type="curve" smooth="yes"/>
      <point x="232" y="19"/>
      <point x="145" y="80"/>
      <point x="145" y="202" type="curve" smooth="yes"/>
      <point x="145" y="334"/>
      <point x="230" y="418"/>
      <point x="397" y="418" type="curve" smooth="yes"/>
      <point x="473" y="418"/>
      <point x="574" y="390"/>
      <point x="606" y="371" type="curve"/>
      <point x="593" y="268"/>
      <point x="536" y="19"/>
    </contour>
  </outline>
</glyph>
<glyph name="increment" format="2">
  <advance width="660"/>
  <unicode hex="2206"/>
  <outline>
    <contour>
      <point x="45" y="0" type="line"/>
      <point x="615" y="0" type="line"/>
      <point x="469" y="732" type="line"/>
      <point x="435" y="732" type="line"/>
    </contour>
    <contour>
      <point x="82" y="22" type="line"/>
      <point x="448" y="706" type="line"/>
      <point x="585" y="22" type="line"/>
    </contour>
  </outline>
</glyph>
<glyph name="product" format="2">
  <advance width="579"/>
  <unicode hex="220F"/>
  <outline>
    <contour>
      <point x="106" y="0" type="line"/>
      <point x="130" y="0" type="line"/>
      <point x="242" y="710" type="line"/>
      <point x="555" y="710" type="line"/>
      <point x="443" y="0" type="line"/>
      <point x="467" y="0" type="line"/>
      <point x="579" y="710" type="line"/>
      <point x="666" y="710" type="line"/>
      <point x="670" y="732" type="line"/>
      <point x="136" y="732" type="line"/>
      <point x="132" y="710" type="line"/>
      <point x="218" y="710" type="line"/>
    </contour>
  </outline>
</glyph>
<glyph name="divisionslash" format="2">
  <advance width="609"/>
  <unicode hex="2215"/>
  <note>
GF Latin Plus glyph
</note>
  <outline>
    <contour>
      <point x="70" y="0" type="line"/>
      <point x="96" y="0" type="line"/>
      <point x="651" y="713" type="line"/>
      <point x="625" y="713" type="line"/>
    </contour>
  </outline>
</glyph>
<glyph name="bulletoperator" format="2">
  <advance width="609"/>
  <unicode hex="2219"/>
  <note>
GF Latin Plus glyph
</note>
  <outline>
    <contour>
      <point x="349" y="320" type="curve" smooth="yes"/>
      <point x="361" y="320" type="line" smooth="yes"/>
      <point x="375" y="320"/>
      <point x="386" y="325"/>
      <point x="389" y="343" type="curve" smooth="yes"/>
      <point x="393" y="367" type="line" smooth="yes"/>
      <point x="394" y="369"/>
      <point x="394" y="372"/>
      <point x="394" y="374" type="curve" smooth="yes"/>
      <point x="394" y="386"/>
      <point x="387" y="392"/>
      <point x="372" y="392" type="curve" smooth="yes"/>
      <point x="360" y="392" type="line" smooth="yes"/>
      <point x="344" y="392"/>
      <point x="335" y="382"/>
      <point x="332" y="367" type="curve" smooth="yes"/>
      <point x="328" y="343" type="line" smooth="yes"/>
      <point x="328" y="342"/>
      <point x="328" y="340"/>
      <point x="328" y="339" type="curve" smooth="yes"/>
      <point x="328" y="327"/>
      <point x="336" y="320"/>
    </contour>
  </outline>
</glyph>
<glyph name="radical" format="2">
  <advance width="545"/>
  <unicode hex="221A"/>
  <outline>
    <contour>
      <point x="247" y="0" type="line"/>
      <point x="265" y="0" type="line"/>
      <point x="676" y="800" type="line"/>
      <point x="652" y="800" type="line"/>
      <point x="261" y="41" type="line"/>
      <point x="171" y="358" type="line"/>
      <point x="68" y="358" type="line"/>
      <point x="64" y="334" type="line"/>
      <point x="154" y="334" type="line"/>
    </contour>
  </outline>
</glyph>
<glyph name="integral" format="2">
  <advance width="384"/>
  <unicode hex="222B"/>
  <outline>
    <contour>
      <point x="87" y="-204" type="curve" smooth="yes"/>
      <point x="184" y="-204"/>
      <point x="216" y="-121"/>
      <point x="234" y="-5" type="curve" smooth="yes"/>
      <point x="326" y="573" type="line" smooth="yes"/>
      <point x="338" y="649"/>
      <point x="370" y="776"/>
      <point x="457" y="776" type="curve" smooth="yes"/>
      <point x="547" y="776" type="line"/>
      <point x="549" y="792" type="line"/>
      <point x="532" y="796"/>
      <point x="509" y="800"/>
      <point x="456" y="800" type="curve" smooth="yes"/>
      <point x="351" y="800"/>
      <point x="316" y="665"/>
      <point x="302" y="574" type="curve" smooth="yes"/>
      <point x="211" y="-2" type="line" smooth="yes"/>
      <point x="190" y="-134"/>
      <point x="156" y="-180"/>
      <point x="90" y="-180" type="curve" smooth="yes"/>
      <point x="-6" y="-180" type="line"/>
      <point x="-8" y="-196" type="line"/>
      <point x="14" y="-200"/>
      <point x="53" y="-204"/>
    </contour>
  </outline>
</glyph>
<glyph name="notequal" format="2">
  <advance width="609"/>
  <unicode hex="2260"/>
  <note>
GF Latin Plus glyph
</note>
  <outline>
    <contour>
      <point x="133" y="79" type="line"/>
      <point x="159" y="79" type="line"/>
      <point x="589" y="633" type="line"/>
      <point x="563" y="633" type="line"/>
    </contour>
    <component base="equal"/>
  </outline>
</glyph>
<glyph name="lessequal" format="2">
  <advance width="609"/>
  <unicode hex="2264"/>
  <note>
GF Latin Plus glyph
</note>
  <outline>
    <contour>
      <point x="536" y="250" type="line"/>
      <point x="539" y="270" type="line"/>
      <point x="164" y="399" type="line"/>
      <point x="579" y="526" type="line"/>
      <point x="582" y="546" type="line"/>
      <point x="146" y="410" type="line"/>
      <point x="142" y="386" type="line"/>
    </contour>
    <component base="minus" xOffset="-40" yOffset="-250"/>
  </outline>
</glyph>
<glyph name="lozenge" format="2">
  <advance width="544"/>
  <unicode hex="25CA"/>
  <outline>
    <contour>
      <point x="252" y="0" type="line"/>
      <point x="276" y="0" type="line"/>
      <point x="561" y="373" type="line"/>
      <point x="392" y="732" type="line"/>
      <point x="368" y="732" type="line"/>
      <point x="79" y="373" type="line"/>
    </contour>
    <contour>
      <point x="267" y="26" type="line"/>
      <point x="106" y="370" type="line"/>
      <point x="378" y="709" type="line"/>
      <point x="533" y="375" type="line"/>
    </contour>
  </outline>
</glyph>
<glyph name="fi" format="2">
  <advance width="544"/>
  <unicode hex="FB01"/>
  <note>
GF Latin Plus glyph
</note>
  <outline>
    <contour>
      <point x="120" y="0" type="line"/>
      <point x="144" y="0" type="line"/>
      <point x="224" y="507" type="line"/>
      <point x="533" y="507" type="line"/>
      <point x="537" y="531" type="line"/>
      <point x="228" y="531" type="line"/>
      <point x="242" y="616" type="line" smooth="yes"/>
      <point x="255" y="694"/>
      <point x="271" y="748"/>
      <point x="355" y="748" type="curve" smooth="yes"/>
      <point x="471" y="748" type="line"/>
      <point x="473" y="764" type="line"/>
      <point x="439" y="767"/>
      <point x="394" y="769"/>
      <point x="358" y="769" type="curve" smooth="yes"/>
      <point x="232" y="769"/>
      <point x="227" y="670"/>
      <point x="218" y="616" type="curve" smooth="yes"/>
      <point x="204" y="531" type="line"/>
      <point x="116" y="523" type="line"/>
      <point x="113" y="507" type="line"/>
      <point x="200" y="507" type="line"/>
    </contour>
    <component base="i" xOffset="360"/>
  </outline>
</glyph>
<glyph name="M.salt" format="2">
  <advance width="809"/>
  <anchor x="374" y="-150" name="bottom"/>
  <anchor x="526" y="810" name="top"/>
  <outline>
    <contour>
      <point x="68" y="0" type="line"/>
      <point x="91" y="0" type="line"/>
      <point x="248" y="662" type="line" smooth="yes"/>
      <point x="258" y="704"/>
      <point x="281" y="717"/>
      <point x="304" y="717" type="curve" smooth="yes"/>
      <point x="322" y="717"/>
      <point x="337" y="702"/>
      <point x="341" y="672" type="curve" smooth="yes"/>
      <point x="398" y="263" type="line" smooth="yes"/>
      <point x="403" y="231"/>
      <point x="420" y="215"/>
      <point x="446" y="215" type="curve" smooth="yes"/>
      <point x="473" y="215"/>
      <point x="497" y="232"/>
      <point x="510" y="263" type="curve" smooth="yes"/>
      <point x="684" y="673" type="line" smooth="yes"/>
      <point x="696" y="701"/>
      <point x="713" y="717"/>
      <point x="728" y="717" type="curve" smooth="yes"/>
      <point x="742" y="717"/>
      <point x="754" y="709"/>
      <point x="754" y="670" type="curve" smooth="yes"/>
      <point x="754" y="667"/>
      <point x="754" y="665"/>
      <point x="754" y="662" type="curve" smooth="yes"/>
      <point x="705" y="0" type="line"/>
      <point x="729" y="0" type="line"/>
      <point x="778" y="654" type="line" smooth="yes"/>
      <point x="778" y="659"/>
      <point x="778" y="664"/>
      <point x="778" y="669" type="curve" smooth="yes"/>
      <point x="778" y="725"/>
      <point x="762" y="739"/>
      <point x="730" y="739" type="curve" smooth="yes"/>
      <point x="702" y="739"/>
      <point x="678" y="720"/>
      <point x="662" y="681" type="curve" smooth="yes"/>
      <point x="488" y="270" type="line" smooth="yes"/>
      <point x="480" y="250"/>
      <point x="466" y="240"/>
      <point x="450" y="240" type="curve" smooth="yes"/>
      <point x="435" y="240"/>
      <point x="425" y="249"/>
      <point x="422" y="270" type="curve" smooth="yes"/>
      <point x="365" y="680" type="line" smooth="yes"/>
      <point x="359" y="720"/>
      <point x="341" y="739"/>
      <point x="309" y="739" type="curve" smooth="yes"/>
      <point x="271" y="739"/>
      <point x="238" y="717"/>
      <point x="223" y="652" type="curve" smooth="yes"/>
    </contour>
  </outline>
</glyph>
<glyph name="N.salt" format="2">
  <advance width="691"/>
  <anchor x="333" y="-150" name="bottom"/>
  <anchor x="485" y="810" name="top"/>
  <outline>
    <contour>
      <point x="542" y="-6" type="curve" smooth="yes"/>
      <point x="585" y="-6"/>
      <point x="625" y="14"/>
      <point x="636" y="79" type="curve" smooth="yes"/>
      <point x="739" y="732" type="line"/>
      <point x="715" y="732" type="line"/>
      <point x="611" y="77" type="line" smooth="yes"/>
      <point x="604" y="29"/>
      <point x="576" y="16"/>
      <point x="547" y="16" type="curve" smooth="yes"/>
      <point x="515" y="16"/>
      <point x="500" y="30"/>
      <point x="494" y="59" type="curve" smooth="yes"/>
      <point x="372" y="680" type="line" smooth="yes"/>
      <point x="364" y="720"/>
      <point x="344" y="739"/>
      <point x="305" y="739" type="curve" smooth="yes"/>
      <point x="263" y="739"/>
      <point x="222" y="719"/>
      <point x="211" y="652" type="curve" smooth="yes"/>
      <point x="108" y="0" type="line"/>
      <point x="132" y="0" type="line"/>
      <point x="235" y="650" type="line" smooth="yes"/>
      <point x="243" y="702"/>
      <point x="269" y="717"/>
      <point x="303" y="717" type="curve" smooth="yes"/>
      <point x="329" y="717"/>
      <point x="344" y="700"/>
      <point x="349" y="672" type="curve" smooth="yes"/>
      <point x="472" y="51" type="line" smooth="yes"/>
      <point x="480" y="11"/>
      <point x="502" y="-6"/>
    </contour>
  </outline>
</glyph>
<glyph name="X.salt" format="2">
  <advance width="591"/>
  <anchor x="271" y="-150" name="bottom"/>
  <anchor x="423" y="810" name="top"/>
  <outline>
    <contour>
      <point x="53" y="0" type="line"/>
      <point x="79" y="0" type="line"/>
      <point x="279" y="254" type="line" smooth="yes"/>
      <point x="314" y="298"/>
      <point x="335" y="343"/>
      <point x="335" y="389" type="curve" smooth="yes"/>
      <point x="335" y="427"/>
      <point x="321" y="463"/>
      <point x="305" y="495" type="curve" smooth="yes"/>
      <point x="192" y="732" type="line"/>
      <point x="166" y="732" type="line"/>
      <point x="286" y="481" type="line" smooth="yes"/>
      <point x="301" y="450"/>
      <point x="313" y="419"/>
      <point x="313" y="387" type="curve" smooth="yes"/>
      <point x="313" y="345"/>
      <point x="292" y="304"/>
      <point x="261" y="265" type="curve" smooth="yes"/>
    </contour>
    <contour>
      <point x="515" y="0" type="line"/>
      <point x="541" y="0" type="line"/>
      <point x="415" y="265" type="line" smooth="yes"/>
      <point x="404" y="289"/>
      <point x="399" y="312"/>
      <point x="399" y="336" type="curve" smooth="yes"/>
      <point x="399" y="384"/>
      <point x="426" y="435"/>
      <point x="462" y="481" type="curve" smooth="yes"/>
      <point x="657" y="732" type="line"/>
      <point x="631" y="732" type="line"/>
      <point x="447" y="495" type="line" smooth="yes"/>
      <point x="409" y="446"/>
      <point x="376" y="390"/>
      <point x="376" y="334" type="curve" smooth="yes"/>
      <point x="376" y="307"/>
      <point x="382" y="280"/>
      <point x="395" y="253" type="curve" smooth="yes"/>
    </contour>
  </outline>
</glyph>
<glyph name=".notdef" format="2">
  <advance width="651"/>
  <note>

</note>
  <outline>
    <contour>
      <point x="90" y="0" type="line"/>
      <point x="621" y="0" type="line"/>
      <point x="621" y="531" type="line"/>
      <point x="90" y="531" type="line"/>
    </contour>
    <contour>
      <point x="114" y="24" type="line"/>
      <point x="114" y="507" type="line"/>
      <point x="597" y="507" type="line"/>
      <point x="597" y="24" type="line"/>
    </contour>
    <contour>
      <point x="206" y="98" type="line"/>
      <point x="356" y="248" type="line"/>
      <point x="506" y="98" type="line"/>
      <point x="523" y="115" type="line"/>
      <point x="373" y="265" type="line"/>
      <point x="523" y="415" type="line"/>
      <point x="506" y="432" type="line"/>
      <point x="356" y="282" type="line"/>
      <point x="206" y="432" type="line"/>
      <point x="189" y="415" type="line"/>
      <point x="339" y="265" type="line"/>
      <point x="189" y="115" type="line"/>
    </contour>
  </outline>
</glyph>
<glyph name="a.salt" format="2">
  <advance width="559"/>
  <anchor x="257" y="-150" name="bottom"/>
  <anchor x="318" y="0" name="ogonek"/>
  <anchor x="383" y="650" name="top"/>
  <outline>
    <contour>
      <point x="259" y="-6" type="curve" smooth="yes"/>
      <point x="335" y="-6"/>
      <point x="439" y="21"/>
      <point x="487" y="48" type="curve"/>
      <point x="555" y="481" type="line"/>
      <point x="510" y="524"/>
      <point x="426" y="537"/>
      <point x="369" y="537" type="curve" smooth="yes"/>
      <point x="202" y="537"/>
      <point x="131" y="454"/>
      <point x="102" y="268" type="curve" smooth="yes"/>
      <point x="97" y="238"/>
      <point x="92" y="202"/>
      <point x="92" y="171" type="curve" smooth="yes"/>
      <point x="92" y="46"/>
      <point x="165" y="-6"/>
    </contour>
    <contour>
      <point x="258" y="16" type="curve" smooth="yes"/>
      <point x="175" y="16"/>
      <point x="116" y="62"/>
      <point x="116" y="172" type="curve" smooth="yes"/>
      <point x="116" y="196"/>
      <point x="119" y="220"/>
      <point x="125" y="258" type="curve" smooth="yes"/>
      <point x="154" y="440"/>
      <point x="206" y="515"/>
      <point x="367" y="515" type="curve" smooth="yes"/>
      <point x="445" y="515"/>
      <point x="504" y="492"/>
      <point x="530" y="476" type="curve"/>
      <point x="464" y="59" type="line"/>
      <point x="404" y="34"/>
      <point x="336.852" y="16"/>
    </contour>
  </outline>
</glyph>
<glyph name="a.smcp" format="2">
  <advance width="560"/>
  <note>
GF Latin Plus glyph
</note>
  <anchor x="262" y="-150" name="bottom"/>
  <anchor x="490" y="0" name="ogonek"/>
  <anchor x="382" y="650" name="top"/>
  <outline>
    <contour>
      <point x="48" y="0" type="line"/>
      <point x="73" y="0" type="line"/>
      <point x="179" y="191" type="line"/>
      <point x="446" y="191" type="line"/>
      <point x="488" y="0" type="line"/>
      <point x="513" y="0" type="line"/>
      <point x="390" y="560" type="line"/>
      <point x="357" y="560" type="line"/>
    </contour>
    <contour>
      <point x="190" y="211" type="line"/>
      <point x="370" y="537" type="line"/>
      <point x="442" y="211" type="line"/>
    </contour>
  </outline>
</glyph>
<glyph name="a.superior" format="2">
  <advance width="421"/>
  <note>
GF Latin Plus glyph
</note>
  <anchor x="238" y="169" name="bottom"/>
  <anchor x="398" y="280" name="ogonek"/>
  <anchor x="331" y="759" name="top"/>
  <outline>
    <contour>
      <point x="238" y="276" type="curve" smooth="yes"/>
      <point x="295" y="276"/>
      <point x="369" y="309"/>
      <point x="391" y="323" type="curve"/>
      <point x="390" y="280" type="line"/>
      <point x="406" y="280" type="line"/>
      <point x="462" y="635" type="line"/>
      <point x="427" y="666"/>
      <point x="364" y="676"/>
      <point x="320" y="676" type="curve" smooth="yes"/>
      <point x="195" y="676"/>
      <point x="141" y="615"/>
      <point x="120" y="478" type="curve" smooth="yes"/>
      <point x="116" y="456"/>
      <point x="112" y="429"/>
      <point x="112" y="406" type="curve" smooth="yes"/>
      <point x="112" y="314"/>
      <point x="167" y="276"/>
    </contour>
    <contour>
      <point x="239" y="295" type="curve" smooth="yes"/>
      <point x="178" y="295"/>
      <point x="134" y="329"/>
      <point x="134" y="408" type="curve" smooth="yes"/>
      <point x="134" y="425"/>
      <point x="136" y="443"/>
      <point x="141" y="471" type="curve" smooth="yes"/>
      <point x="162" y="602"/>
      <point x="200" y="657"/>
      <point x="319" y="657" type="curve" smooth="yes"/>
      <point x="376" y="657"/>
      <point x="419" y="640"/>
      <point x="439" y="629" type="curve"/>
      <point x="393" y="338" type="line"/>
      <point x="344" y="315"/>
      <point x="298" y="295"/>
    </contour>
  </outline>
</glyph>
<glyph name="ae.smcp" format="2">
  <advance width="753"/>
  <note>
GF Latin Plus glyph
</note>
  <anchor x="507" y="650" name="top"/>
  <outline>
    <contour>
      <point x="517" y="-2" type="curve" smooth="yes"/>
      <point x="517" y="-2"/>
      <point x="717" y="2"/>
      <point x="720" y="3" type="curve"/>
      <point x="723" y="18" type="line"/>
      <point x="515" y="18" type="line" smooth="yes"/>
      <point x="471" y="18"/>
      <point x="427" y="28"/>
      <point x="438" y="97" type="curve" smooth="yes"/>
      <point x="465" y="267" type="line"/>
      <point x="730" y="270" type="line"/>
      <point x="733" y="286" type="line"/>
      <point x="468" y="288" type="line"/>
      <point x="493" y="450" type="line" smooth="yes"/>
      <point x="503" y="518"/>
      <point x="507" y="539"/>
      <point x="589" y="539" type="curve" smooth="yes"/>
      <point x="805" y="539" type="line"/>
      <point x="808" y="555" type="line"/>
      <point x="805" y="555"/>
      <point x="594" y="560"/>
      <point x="592" y="560" type="curve" smooth="yes"/>
      <point x="502" y="561"/>
      <point x="473" y="527"/>
      <point x="409" y="450" type="curve" smooth="yes"/>
      <point x="36" y="0" type="line"/>
      <point x="64" y="0" type="line"/>
      <point x="221" y="189" type="line"/>
      <point x="429" y="189" type="line"/>
      <point x="414" y="92" type="line" smooth="yes"/>
      <point x="400" y="6"/>
      <point x="463" y="-4"/>
    </contour>
    <contour>
      <point x="238" y="210" type="line"/>
      <point x="479" y="502" type="line"/>
      <point x="432" y="210" type="line"/>
    </contour>
  </outline>
</glyph>
<glyph name="at.smcp" format="2">
  <advance width="755"/>
  <note>
GF Latin Plus glyph
</note>
  <outline>
    <contour>
      <point x="186" y="-137" type="curve" smooth="yes"/>
      <point x="265" y="-137" type="line" smooth="yes"/>
      <point x="367" y="-137"/>
      <point x="460" y="-135"/>
      <point x="500" y="-129" type="curve"/>
      <point x="502" y="-116" type="line"/>
      <point x="191" y="-116" type="line" smooth="yes"/>
      <point x="129" y="-116"/>
      <point x="85" y="-82"/>
      <point x="84" y="-19" type="curve" smooth="yes"/>
      <point x="84" y="-11"/>
      <point x="85" y="-1"/>
      <point x="86" y="8" type="curve" smooth="yes"/>
      <point x="149" y="397" type="line" smooth="yes"/>
      <point x="158" y="460"/>
      <point x="195" y="514"/>
      <point x="292" y="514" type="curve" smooth="yes"/>
      <point x="610" y="514" type="line" smooth="yes"/>
      <point x="667" y="514"/>
      <point x="708" y="495"/>
      <point x="708" y="430" type="curve" smooth="yes"/>
      <point x="708" y="420"/>
      <point x="707" y="410"/>
      <point x="705" y="397" type="curve" smooth="yes"/>
      <point x="665" y="129" type="line" smooth="yes"/>
      <point x="650" y="29"/>
      <point x="568" y="19"/>
      <point x="530" y="19" type="curve"/>
      <point x="581" y="368" type="line"/>
      <point x="543" y="402"/>
      <point x="482" y="417"/>
      <point x="418" y="417" type="curve" smooth="yes"/>
      <point x="302" y="417"/>
      <point x="207" y="313"/>
      <point x="208" y="135" type="curve" smooth="yes"/>
      <point x="209" y="27"/>
      <point x="268" y="-5"/>
      <point x="340" y="-5" type="curve" smooth="yes"/>
      <point x="392" y="-5"/>
      <point x="484" y="18"/>
      <point x="512" y="48" type="curve"/>
      <point x="512" y="0" type="line"/>
      <point x="538" y="0" type="line" smooth="yes"/>
      <point x="652" y="0"/>
      <point x="683" y="99"/>
      <point x="688" y="128" type="curve" smooth="yes"/>
      <point x="728" y="397" type="line" smooth="yes"/>
      <point x="730" y="409"/>
      <point x="730" y="420"/>
      <point x="730" y="431" type="curve" smooth="yes"/>
      <point x="730" y="497"/>
      <point x="691" y="535"/>
      <point x="612" y="535" type="curve" smooth="yes"/>
      <point x="293" y="535" type="line" smooth="yes"/>
      <point x="180" y="535"/>
      <point x="138" y="471"/>
      <point x="126" y="398" type="curve" smooth="yes"/>
      <point x="63" y="8" type="line" smooth="yes"/>
      <point x="62" y="-1"/>
      <point x="61" y="-11"/>
      <point x="61" y="-19" type="curve" smooth="yes"/>
      <point x="62" y="-88"/>
      <point x="109" y="-137"/>
    </contour>
    <contour>
      <point x="339" y="17" type="curve" smooth="yes"/>
      <point x="286" y="17"/>
      <point x="232" y="38"/>
      <point x="231" y="138" type="curve" smooth="yes"/>
      <point x="230" y="301"/>
      <point x="317" y="397"/>
      <point x="419" y="397" type="curve" smooth="yes"/>
      <point x="467" y="397"/>
      <point x="506" y="390"/>
      <point x="558" y="364" type="curve"/>
      <point x="513" y="63" type="line"/>
      <point x="454" y="21"/>
      <point x="391" y="17"/>
    </contour>
  </outline>
</glyph>
<glyph name="b.smcp" format="2">
  <advance width="509"/>
  <note>
GF Latin Plus glyph
</note>
  <anchor x="338" y="650" name="top"/>
  <outline>
    <contour>
      <point x="76" y="0" type="line"/>
      <point x="283" y="0" type="line" smooth="yes"/>
      <point x="390" y="0"/>
      <point x="445" y="51"/>
      <point x="463" y="137" type="curve" smooth="yes"/>
      <point x="467" y="154"/>
      <point x="467" y="168"/>
      <point x="467" y="178" type="curve" smooth="yes"/>
      <point x="467" y="251"/>
      <point x="412" y="285"/>
      <point x="380" y="294" type="curve"/>
      <point x="432" y="305"/>
      <point x="478" y="346"/>
      <point x="489" y="419" type="curve" smooth="yes"/>
      <point x="492" y="432"/>
      <point x="492" y="444"/>
      <point x="492" y="456" type="curve" smooth="yes"/>
      <point x="492" y="521"/>
      <point x="449" y="560"/>
      <point x="356" y="560" type="curve" smooth="yes"/>
      <point x="165" y="560" type="line"/>
    </contour>
    <contour>
      <point x="103" y="21" type="line"/>
      <point x="145" y="283" type="line"/>
      <point x="330" y="283" type="line" smooth="yes"/>
      <point x="395" y="283"/>
      <point x="443" y="243"/>
      <point x="444" y="179" type="curve" smooth="yes"/>
      <point x="444" y="170"/>
      <point x="443" y="156"/>
      <point x="440" y="143" type="curve" smooth="yes"/>
      <point x="423" y="70"/>
      <point x="386" y="21"/>
      <point x="286" y="21" type="curve" smooth="yes"/>
    </contour>
    <contour>
      <point x="148" y="303" type="line"/>
      <point x="185" y="539" type="line"/>
      <point x="352" y="539" type="line" smooth="yes"/>
      <point x="426" y="539"/>
      <point x="469" y="515"/>
      <point x="469" y="454" type="curve" smooth="yes"/>
      <point x="469" y="442"/>
      <point x="468" y="430"/>
      <point x="465" y="416" type="curve" smooth="yes"/>
      <point x="450" y="342"/>
      <point x="405" y="303"/>
      <point x="331" y="303" type="curve" smooth="yes"/>
    </contour>
  </outline>
</glyph>
<glyph name="b.superior" format="2">
  <advance width="423"/>
  <note>
GF Latin Plus glyph
</note>
  <anchor x="238" y="169" name="bottom"/>
  <outline>
    <contour>
      <point x="273" y="276" type="curve" smooth="yes"/>
      <point x="373" y="276"/>
      <point x="434" y="354"/>
      <point x="452" y="467" type="curve" smooth="yes"/>
      <point x="456" y="497"/>
      <point x="459" y="525"/>
      <point x="459" y="549" type="curve" smooth="yes"/>
      <point x="459" y="634"/>
      <point x="408" y="676"/>
      <point x="339" y="676" type="curve" smooth="yes"/>
      <point x="299" y="676"/>
      <point x="233" y="659"/>
      <point x="181" y="629" type="curve"/>
      <point x="215" y="843" type="line"/>
      <point x="193" y="843" type="line"/>
      <point x="103" y="280" type="line"/>
      <point x="119" y="280" type="line"/>
      <point x="132" y="322" type="line"/>
      <point x="165" y="300"/>
      <point x="222" y="276"/>
    </contour>
    <contour>
      <point x="273" y="295" type="curve" smooth="yes"/>
      <point x="214" y="295"/>
      <point x="171" y="317"/>
      <point x="135" y="336" type="curve"/>
      <point x="178" y="614" type="line"/>
      <point x="232" y="639"/>
      <point x="285" y="657"/>
      <point x="336" y="657" type="curve" smooth="yes"/>
      <point x="393" y="657"/>
      <point x="437" y="626"/>
      <point x="437" y="547" type="curve" smooth="yes"/>
      <point x="437" y="526"/>
      <point x="434" y="501"/>
      <point x="430" y="473" type="curve" smooth="yes"/>
      <point x="412" y="360"/>
      <point x="365" y="295"/>
    </contour>
  </outline>
</glyph>
<glyph name="bracketleft.smcp" format="2">
  <advance width="289"/>
  <note>
GF Latin Plus glyph
</note>
  <outline>
    <contour>
      <point x="190" y="-161" type="curve" smooth="yes"/>
      <point x="232" y="-161" type="line"/>
      <point x="234" y="-140" type="line"/>
      <point x="194" y="-140" type="line" smooth="yes"/>
      <point x="141" y="-140"/>
      <point x="121" y="-107"/>
      <point x="120" y="-61" type="curve" smooth="yes"/>
      <point x="120" y="-50"/>
      <point x="122" y="-39"/>
      <point x="123" y="-28" type="curve" smooth="yes"/>
      <point x="208" y="511" type="line" smooth="yes"/>
      <point x="221" y="591"/>
      <point x="263" y="624"/>
      <point x="316" y="624" type="curve" smooth="yes"/>
      <point x="356" y="624" type="line"/>
      <point x="359" y="644" type="line"/>
      <point x="317" y="644" type="line" smooth="yes"/>
      <point x="218" y="644"/>
      <point x="192" y="559"/>
      <point x="184" y="512" type="curve" smooth="yes"/>
      <point x="99" y="-28" type="line" smooth="yes"/>
      <point x="97" y="-39"/>
      <point x="96" y="-52"/>
      <point x="96" y="-65" type="curve" smooth="yes"/>
      <point x="96" y="-110"/>
      <point x="114" y="-161"/>
    </contour>
  </outline>
</glyph>
<glyph name="c.superior" format="2">
  <advance width="364"/>
  <note>
GF Latin Plus glyph
</note>
  <anchor x="215" y="169" name="bottom"/>
  <anchor x="308" y="759" name="top"/>
  <outline>
    <contour>
      <point x="251" y="276" type="curve" smooth="yes"/>
      <point x="304" y="276"/>
      <point x="348" y="278"/>
      <point x="379" y="281" type="curve"/>
      <point x="381" y="295" type="line"/>
      <point x="255" y="295" type="line" smooth="yes"/>
      <point x="177" y="295"/>
      <point x="135" y="317"/>
      <point x="135" y="414" type="curve" smooth="yes"/>
      <point x="135" y="430"/>
      <point x="138" y="450"/>
      <point x="141" y="473" type="curve" smooth="yes"/>
      <point x="165" y="620"/>
      <point x="226" y="657"/>
      <point x="305" y="657" type="curve" smooth="yes"/>
      <point x="428" y="657" type="line"/>
      <point x="431" y="671" type="line"/>
      <point x="394" y="673"/>
      <point x="340" y="676"/>
      <point x="305" y="676" type="curve" smooth="yes"/>
      <point x="207" y="676"/>
      <point x="142" y="621"/>
      <point x="120" y="482" type="curve" smooth="yes"/>
      <point x="116" y="455"/>
      <point x="113" y="432"/>
      <point x="113" y="413" type="curve" smooth="yes"/>
      <point x="113" y="301"/>
      <point x="170" y="276"/>
    </contour>
  </outline>
</glyph>
<glyph name="c_h" format="2">
  <advance width="1019"/>
  <outline>
    <contour>
      <point x="295" y="-6" type="curve" smooth="yes"/>
      <point x="479" y="-6"/>
      <point x="565.935" y="49.266"/>
      <point x="592" y="211" type="curve" smooth="yes"/>
      <point x="631" y="453" type="line"/>
      <point x="711" y="496"/>
      <point x="769" y="518"/>
      <point x="857" y="518" type="curve" smooth="yes"/>
      <point x="933" y="518"/>
      <point x="976" y="488"/>
      <point x="976" y="409" type="curve" smooth="yes"/>
      <point x="976" y="395"/>
      <point x="975" y="380"/>
      <point x="972" y="363" type="curve" smooth="yes"/>
      <point x="915" y="0" type="line"/>
      <point x="939" y="0" type="line"/>
      <point x="998" y="370" type="line" smooth="yes"/>
      <point x="1000" y="385"/>
      <point x="1001" y="399"/>
      <point x="1001" y="412" type="curve" smooth="yes"/>
      <point x="1001" y="493"/>
      <point x="955" y="540"/>
      <point x="864" y="540" type="curve" smooth="yes"/>
      <point x="779" y="540"/>
      <point x="698" y="510"/>
      <point x="633" y="469" type="curve"/>
      <point x="680" y="763" type="line"/>
      <point x="656" y="763" type="line"/>
      <point x="568" y="211" type="line" smooth="yes"/>
      <point x="544" y="59"/>
      <point x="461.889" y="16"/>
      <point x="299" y="16" type="curve" smooth="yes"/>
      <point x="181.037" y="16"/>
      <point x="117" y="46"/>
      <point x="117" y="180" type="curve" smooth="yes"/>
      <point x="117" y="203"/>
      <point x="121" y="230"/>
      <point x="126" y="262" type="curve" smooth="yes"/>
      <point x="158" y="465"/>
      <point x="241" y="515"/>
      <point x="347" y="515" type="curve" smooth="yes"/>
      <point x="512" y="515" type="line"/>
      <point x="516" y="531" type="line"/>
      <point x="467" y="534"/>
      <point x="395" y="537"/>
      <point x="349" y="537" type="curve" smooth="yes"/>
      <point x="219" y="537"/>
      <point x="133" y="462"/>
      <point x="103" y="273" type="curve" smooth="yes"/>
      <point x="97" y="237"/>
      <point x="93" y="206"/>
      <point x="93" y="180" type="curve" smooth="yes"/>
      <point x="93" y="28"/>
      <point x="176.242" y="-6"/>
    </contour>
  </outline>
</glyph>
<glyph name="c_k" format="2">
  <advance width="952"/>
  <outline>
    <contour>
      <point x="295" y="-6" type="curve" smooth="yes"/>
      <point x="461" y="-6"/>
      <point x="567" y="50"/>
      <point x="586" y="170" type="curve" smooth="yes"/>
      <point x="603" y="275" type="line"/>
      <point x="634" y="275"/>
      <point x="683" y="280"/>
      <point x="720" y="290" type="curve"/>
      <point x="884" y="0" type="line"/>
      <point x="912" y="0" type="line"/>
      <point x="744" y="297" type="line"/>
      <point x="821" y="327"/>
      <point x="897" y="391"/>
      <point x="938" y="531" type="curve"/>
      <point x="914" y="531" type="line"/>
      <point x="860" y="354"/>
      <point x="747" y="297"/>
      <point x="606" y="297" type="curve"/>
      <point x="680" y="763" type="line"/>
      <point x="656" y="763" type="line"/>
      <point x="562" y="173" type="line" smooth="yes"/>
      <point x="544.827" y="65.21"/>
      <point x="450.481" y="16"/>
      <point x="299" y="16" type="curve" smooth="yes"/>
      <point x="181.037" y="16"/>
      <point x="117" y="46"/>
      <point x="117" y="180" type="curve" smooth="yes"/>
      <point x="117" y="203"/>
      <point x="121" y="230"/>
      <point x="126" y="262" type="curve" smooth="yes"/>
      <point x="158" y="465"/>
      <point x="241" y="515"/>
      <point x="347" y="515" type="curve" smooth="yes"/>
      <point x="512" y="515" type="line"/>
      <point x="516" y="531" type="line"/>
      <point x="467" y="534"/>
      <point x="395" y="537"/>
      <point x="349" y="537" type="curve" smooth="yes"/>
      <point x="219" y="537"/>
      <point x="133" y="462"/>
      <point x="103" y="273" type="curve" smooth="yes"/>
      <point x="97" y="237"/>
      <point x="93" y="206"/>
      <point x="93" y="180" type="curve" smooth="yes"/>
      <point x="93" y="28"/>
      <point x="176" y="-6"/>
    </contour>
  </outline>
</glyph>
<glyph name="c_t" format="2">
  <advance width="811"/>
  <outline>
    <contour>
      <point x="275" y="-6" type="curve" smooth="yes"/>
      <point x="346" y="-6"/>
      <point x="404" y="-3"/>
      <point x="445" y="0" type="curve"/>
      <point x="447" y="16" type="line"/>
      <point x="279" y="16" type="line" smooth="yes"/>
      <point x="174" y="16"/>
      <point x="117" y="46"/>
      <point x="117" y="180" type="curve" smooth="yes"/>
      <point x="117" y="203"/>
      <point x="121" y="230"/>
      <point x="126" y="262" type="curve" smooth="yes"/>
      <point x="158" y="465"/>
      <point x="241" y="515"/>
      <point x="347" y="515" type="curve" smooth="yes"/>
      <point x="661" y="515" type="line"/>
      <point x="653" y="531" type="line"/>
      <point x="604" y="534"/>
      <point x="481" y="537"/>
      <point x="349" y="537" type="curve" smooth="yes"/>
      <point x="219" y="537"/>
      <point x="133" y="462"/>
      <point x="103" y="273" type="curve" smooth="yes"/>
      <point x="97" y="237"/>
      <point x="93" y="206"/>
      <point x="93" y="180" type="curve" smooth="yes"/>
      <point x="93" y="28"/>
      <point x="168" y="-6"/>
    </contour>
    <contour>
      <point x="703" y="0" type="curve" smooth="yes"/>
      <point x="759" y="0" type="line"/>
      <point x="762" y="16" type="line"/>
      <point x="696" y="22" type="line" smooth="yes"/>
      <point x="640" y="27"/>
      <point x="614" y="55"/>
      <point x="614" y="107" type="curve" smooth="yes"/>
      <point x="614" y="133"/>
      <point x="619" y="163"/>
      <point x="623" y="188" type="curve" smooth="yes"/>
      <point x="674" y="509" type="line"/>
      <point x="849" y="509" type="line"/>
      <point x="852" y="531" type="line"/>
      <point x="677" y="531" type="line"/>
      <point x="701" y="680" type="line"/>
      <point x="685" y="680" type="line"/>
      <point x="653" y="531" type="line"/>
      <point x="653" y="519" type="line"/>
      <point x="599" y="188" type="line" smooth="yes"/>
      <point x="595" y="163"/>
      <point x="590" y="137"/>
      <point x="590" y="107" type="curve" smooth="yes"/>
      <point x="590" y="40"/>
      <point x="627" y="0"/>
    </contour>
  </outline>
</glyph>
<glyph name="caroncomb.alt" format="2">
  <note>
GF Latin Plus glyph
</note>
  <anchor x="44" y="650" name="_altcaron"/>
  <outline>
    <contour>
      <point x="80" y="566" type="line"/>
      <point x="92" y="566" type="line"/>
      <point x="121" y="724" type="line"/>
      <point x="131" y="791" type="line"/>
      <point x="106" y="791" type="line"/>
      <point x="96" y="724" type="line"/>
    </contour>
  </outline>
</glyph>
<glyph name="circumflexcomb_gravecomb" format="2">
  <anchor x="-269" y="650" name="_top"/>
  <outline>
    <contour>
      <point x="-424" y="631" type="line"/>
      <point x="-406" y="631" type="line"/>
      <point x="-270" y="706" type="line"/>
      <point x="-170" y="631" type="line"/>
      <point x="-152" y="631" type="line"/>
      <point x="-258" y="721" type="line"/>
      <point x="-278" y="721" type="line"/>
    </contour>
    <contour>
      <point x="-358" y="701" type="line"/>
      <point x="-344" y="701" type="line"/>
      <point x="-444" y="834" type="line"/>
      <point x="-470" y="834" type="line"/>
    </contour>
  </outline>
</glyph>
<glyph name="colonsign.smcp" format="2">
  <advance width="518"/>
  <note>
GF Latin Plus glyph
</note>
  <outline>
    <contour>
      <point x="285" y="-5" type="curve" smooth="yes"/>
      <point x="358" y="-5"/>
      <point x="426" y="6"/>
      <point x="465" y="20" type="curve"/>
      <point x="469" y="35" type="line"/>
      <point x="405" y="20"/>
      <point x="365" y="16"/>
      <point x="295" y="16" type="curve" smooth="yes"/>
      <point x="193" y="16"/>
      <point x="143" y="50"/>
      <point x="142" y="165" type="curve" smooth="yes"/>
      <point x="140" y="351"/>
      <point x="267" y="552"/>
      <point x="441" y="552" type="curve" smooth="yes"/>
      <point x="497" y="552"/>
      <point x="544" y="541"/>
      <point x="583" y="532" type="curve"/>
      <point x="588" y="547" type="line"/>
      <point x="564" y="557"/>
      <point x="519" y="573"/>
      <point x="443" y="573" type="curve" smooth="yes"/>
      <point x="253" y="573"/>
      <point x="117" y="362"/>
      <point x="119" y="163" type="curve" smooth="yes"/>
      <point x="120" y="41"/>
      <point x="180" y="-5"/>
    </contour>
    <contour>
      <point x="64" y="-84" type="line"/>
      <point x="86" y="-84" type="line"/>
      <point x="525" y="606" type="line"/>
      <point x="503" y="606" type="line"/>
    </contour>
    <contour>
      <point x="178" y="-84" type="line"/>
      <point x="200" y="-84" type="line"/>
      <point x="639" y="606" type="line"/>
      <point x="617" y="606" type="line"/>
    </contour>
  </outline>
</glyph>
<glyph name="d.salt" format="2">
  <advance width="560"/>
  <anchor x="602" y="650" name="altcaron"/>
  <anchor x="257" y="-150" name="bottom"/>
  <anchor x="603" y="850" name="top"/>
  <outline>
    <contour>
      <point x="253" y="-6" type="curve" smooth="yes"/>
      <point x="336" y="-6"/>
      <point x="425" y="15"/>
      <point x="488" y="48" type="curve"/>
      <point x="601" y="763" type="line"/>
      <point x="577" y="763" type="line"/>
      <point x="535" y="498" type="line"/>
      <point x="484" y="526"/>
      <point x="432" y="537"/>
      <point x="368" y="537" type="curve" smooth="yes"/>
      <point x="180" y="537"/>
      <point x="133" y="432"/>
      <point x="103" y="271" type="curve" smooth="yes"/>
      <point x="96" y="235"/>
      <point x="93" y="202"/>
      <point x="93" y="165" type="curve" smooth="yes"/>
      <point x="93" y="49"/>
      <point x="164" y="-6"/>
    </contour>
    <contour>
      <point x="252" y="16" type="curve" smooth="yes"/>
      <point x="178" y="16"/>
      <point x="117" y="59"/>
      <point x="117" y="171" type="curve" smooth="yes"/>
      <point x="117" y="197"/>
      <point x="121" y="228"/>
      <point x="127" y="263" type="curve" smooth="yes"/>
      <point x="157" y="431"/>
      <point x="199" y="515"/>
      <point x="366" y="515" type="curve" smooth="yes"/>
      <point x="435" y="515"/>
      <point x="483" y="502"/>
      <point x="531" y="476" type="curve"/>
      <point x="465" y="59" type="line"/>
      <point x="398" y="29"/>
      <point x="331" y="16"/>
    </contour>
  </outline>
</glyph>
<glyph name="d.superior" format="2">
  <advance width="422"/>
  <note>
GF Latin Plus glyph
</note>
  <anchor x="497" y="759" name="altcaron"/>
  <anchor x="238" y="169" name="bottom"/>
  <outline>
    <contour>
      <point x="233" y="276" type="curve" smooth="yes"/>
      <point x="295" y="276"/>
      <point x="355" y="303"/>
      <point x="392" y="323" type="curve"/>
      <point x="391" y="280" type="line"/>
      <point x="406" y="280" type="line"/>
      <point x="496" y="843" type="line"/>
      <point x="474" y="843" type="line"/>
      <point x="443" y="648" type="line"/>
      <point x="405" y="669"/>
      <point x="366" y="676"/>
      <point x="319" y="676" type="curve" smooth="yes"/>
      <point x="179" y="676"/>
      <point x="143" y="599"/>
      <point x="120" y="481" type="curve" smooth="yes"/>
      <point x="115" y="454"/>
      <point x="113" y="429"/>
      <point x="113" y="402" type="curve" smooth="yes"/>
      <point x="113" y="317"/>
      <point x="166" y="276"/>
    </contour>
    <contour>
      <point x="235" y="295" type="curve" smooth="yes"/>
      <point x="180" y="295"/>
      <point x="135" y="326"/>
      <point x="135" y="407" type="curve" smooth="yes"/>
      <point x="135" y="426"/>
      <point x="138" y="449"/>
      <point x="142" y="474" type="curve" smooth="yes"/>
      <point x="164" y="596"/>
      <point x="196" y="657"/>
      <point x="318" y="657" type="curve" smooth="yes"/>
      <point x="369" y="657"/>
      <point x="404" y="648"/>
      <point x="439" y="629" type="curve"/>
      <point x="394" y="338" type="line"/>
      <point x="344" y="315"/>
      <point x="293" y="295"/>
    </contour>
  </outline>
</glyph>
<glyph name="dcroat.salt" format="2">
  <advance width="521"/>
  <outline>
    <contour>
      <point x="400" y="640" type="line"/>
      <point x="658" y="640" type="line"/>
      <point x="661" y="656" type="line"/>
      <point x="403" y="656" type="line"/>
    </contour>
    <component base="d.salt"/>
  </outline>
</glyph>
<glyph name="degree.smcp" format="2">
  <advance width="297"/>
  <note>
GF Latin Plus glyph
</note>
  <outline>
    <contour>
      <point x="211" y="389" type="curve" smooth="yes"/>
      <point x="279" y="389"/>
      <point x="326" y="432"/>
      <point x="325" y="500" type="curve" smooth="yes"/>
      <point x="325" y="546"/>
      <point x="292" y="578"/>
      <point x="241" y="578" type="curve" smooth="yes"/>
      <point x="173" y="578"/>
      <point x="124" y="533"/>
      <point x="125" y="466" type="curve" smooth="yes"/>
      <point x="125" y="421"/>
      <point x="160" y="389"/>
    </contour>
    <contour>
      <point x="213" y="402" type="curve" smooth="yes"/>
      <point x="168" y="402"/>
      <point x="138" y="429"/>
      <point x="138" y="469" type="curve" smooth="yes"/>
      <point x="138" y="522"/>
      <point x="180" y="565"/>
      <point x="239" y="565" type="curve" smooth="yes"/>
      <point x="284" y="565"/>
      <point x="312" y="537"/>
      <point x="312" y="498" type="curve" smooth="yes"/>
      <point x="313" y="443"/>
      <point x="271" y="402"/>
    </contour>
  </outline>
</glyph>
<glyph name="e.superior" format="2">
  <advance width="412"/>
  <note>
GF Latin Plus glyph
</note>
  <anchor x="236" y="169" name="bottom"/>
  <anchor x="387" y="280" name="ogonek"/>
  <anchor x="329" y="759" name="top"/>
  <outline>
    <contour>
      <point x="280" y="276" type="curve" smooth="yes"/>
      <point x="324" y="276"/>
      <point x="371" y="279"/>
      <point x="397" y="281" type="curve"/>
      <point x="400" y="295" type="line"/>
      <point x="283" y="295" type="line" smooth="yes"/>
      <point x="177" y="295"/>
      <point x="137" y="329"/>
      <point x="136" y="408" type="curve" smooth="yes"/>
      <point x="136" y="426"/>
      <point x="137" y="447"/>
      <point x="140" y="466" type="curve"/>
      <point x="160" y="460"/>
      <point x="206" y="453"/>
      <point x="261" y="453" type="curve" smooth="yes"/>
      <point x="359" y="453"/>
      <point x="458" y="477"/>
      <point x="457" y="579" type="curve" smooth="yes"/>
      <point x="457" y="651"/>
      <point x="408" y="679"/>
      <point x="321" y="679" type="curve" smooth="yes"/>
      <point x="194" y="679"/>
      <point x="139" y="608"/>
      <point x="122" y="495" type="curve" smooth="yes"/>
      <point x="118" y="468"/>
      <point x="114" y="438"/>
      <point x="114" y="407" type="curve" smooth="yes"/>
      <point x="115" y="319"/>
      <point x="165" y="276"/>
    </contour>
    <contour>
      <point x="247" y="471" type="curve" smooth="yes"/>
      <point x="207" y="471"/>
      <point x="168" y="475"/>
      <point x="142" y="480" type="curve"/>
      <point x="158" y="594"/>
      <point x="200" y="660"/>
      <point x="319" y="660" type="curve" smooth="yes"/>
      <point x="396" y="660"/>
      <point x="436" y="638"/>
      <point x="436" y="577" type="curve" smooth="yes"/>
      <point x="436" y="491"/>
      <point x="355" y="471"/>
    </contour>
  </outline>
</glyph>
<glyph name="emdash.smcp" format="2">
  <advance width="632"/>
  <note>
GF Latin Plus glyph
</note>
  <outline>
    <contour>
      <point x="67" y="210" type="line"/>
      <point x="631" y="210" type="line"/>
      <point x="635" y="233" type="line"/>
      <point x="71" y="233" type="line"/>
    </contour>
  </outline>
</glyph>
<glyph name="eng.smcp" format="2">
  <advance width="552"/>
  <note>
GF Latin Plus glyph
</note>
  <outline>
    <contour>
      <point x="311" y="-186" type="curve" smooth="yes"/>
      <point x="397" y="-186"/>
      <point x="451" y="-160"/>
      <point x="465" y="-69" type="curve" smooth="yes"/>
      <point x="476" y="0" type="line"/>
      <point x="453" y="4" type="line"/>
      <point x="441" y="-68" type="line" smooth="yes"/>
      <point x="428" y="-149"/>
      <point x="377" y="-165"/>
      <point x="313" y="-165" type="curve" smooth="yes"/>
      <point x="289" y="-165"/>
      <point x="251" y="-158"/>
      <point x="229" y="-151" type="curve"/>
      <point x="227" y="-167" type="line"/>
      <point x="247" y="-177"/>
      <point x="283" y="-186"/>
    </contour>
    <component base="n.smcp"/>
  </outline>
</glyph>
<glyph name="eth.smcp" format="2">
  <advance width="562"/>
  <note>
GF Latin Plus glyph
</note>
  <outline>
    <contour>
      <point x="59" y="276" type="line"/>
      <point x="322" y="276" type="line"/>
      <point x="326" y="295" type="line"/>
      <point x="63" y="295" type="line"/>
    </contour>
    <component base="d.smcp"/>
  </outline>
</glyph>
<glyph name="euro.smcp" format="2">
  <advance width="518"/>
  <note>
GF Latin Plus glyph
</note>
  <outline>
    <contour>
      <point x="153" y="327" type="line"/>
      <point x="169" y="327" type="line"/>
      <point x="414" y="329" type="line"/>
      <point x="416" y="343" type="line"/>
      <point x="172" y="346" type="line"/>
      <point x="156" y="346" type="line"/>
      <point x="93" y="342" type="line"/>
      <point x="90" y="329" type="line"/>
    </contour>
    <contour>
      <point x="134" y="203" type="line"/>
      <point x="149" y="203" type="line"/>
      <point x="394" y="206" type="line"/>
      <point x="396" y="220" type="line"/>
      <point x="152" y="222" type="line"/>
      <point x="136" y="222" type="line"/>
      <point x="73" y="221" type="line"/>
      <point x="71" y="207" type="line"/>
    </contour>
    <component base="c.smcp" xOffset="26"/>
  </outline>
</glyph>
<glyph name="exclam.smcp" format="2">
  <advance width="235"/>
  <note>
GF Latin Plus glyph
</note>
  <outline>
    <contour>
      <point x="132" y="150" type="line"/>
      <point x="148" y="150" type="line"/>
      <point x="217" y="559" type="line"/>
      <point x="193" y="559" type="line"/>
    </contour>
    <component base="period" xOffset="32"/>
  </outline>
</glyph>
